<ttFont>
    <TTGlyph name=".notdef" xMin="56" yMin="0" xMax="1470" yMax="1291">
      <contour>
        <pt x="906" y="28" on="1"/>
        <pt x="1430" y="1263" on="1"/>
        <pt x="619" y="1263" on="1"/>
        <pt x="95" y="28" on="1"/>
      </contour>
      <contour>
        <pt x="605" y="1291" on="1"/>
        <pt x="1470" y="1291" on="1"/>
        <pt x="921" y="0" on="1"/>
        <pt x="56" y="0" on="1"/>
      </contour>
    </TTGlyph>
    <TTGlyph name="A" xMin="-187" yMin="-16" xMax="1425" yMax="1285">
      <contour>
        <pt x="785" y="718" on="1"/>
        <pt x="785" y="702" on="0"/>
        <pt x="793" y="682" on="0"/>
        <pt x="808" y="668" on="0"/>
        <pt x="829" y="658" on="0"/>
        <pt x="842" y="654" on="1"/>
        <pt x="845" y="651" on="0"/>
        <pt x="853" y="648" on="1"/>
        <pt x="857" y="646" on="0"/>
        <pt x="862" y="645" on="1"/>
        <pt x="974" y="645" on="1"/>
        <pt x="987" y="645" on="0"/>
        <pt x="1012" y="676" on="0"/>
        <pt x="1033" y="717" on="0"/>
        <pt x="1051" y="759" on="0"/>
        <pt x="1057" y="770" on="1"/>
        <pt x="1059" y="774" on="0"/>
        <pt x="1076" y="796" on="0"/>
        <pt x="1078" y="798" on="1"/>
        <pt x="1082" y="803" on="0"/>
        <pt x="1092" y="818" on="0"/>
        <pt x="1092" y="820" on="1"/>
        <pt x="1094" y="826" on="0"/>
        <pt x="1104" y="855" on="0"/>
        <pt x="1116" y="888" on="0"/>
        <pt x="1126" y="918" on="0"/>
        <pt x="1128" y="924" on="1"/>
        <pt x="1126" y="924" on="0"/>
        <pt x="1126" y="927" on="1"/>
        <pt x="1126" y="931" on="0"/>
        <pt x="1128" y="931" on="1"/>
        <pt x="1128" y="932" on="0"/>
        <pt x="1132" y="950" on="0"/>
        <pt x="1135" y="951" on="1"/>
        <pt x="1135" y="952" on="0"/>
        <pt x="1136" y="960" on="0"/>
        <pt x="1137" y="969" on="0"/>
        <pt x="1139" y="978" on="0"/>
        <pt x="1140" y="979" on="1"/>
        <pt x="1143" y="983" on="0"/>
        <pt x="1154" y="1006" on="0"/>
        <pt x="1168" y="1030" on="0"/>
        <pt x="1179" y="1051" on="0"/>
        <pt x="1182" y="1055" on="1"/>
        <pt x="1180" y="1060" on="0"/>
        <pt x="1171" y="1078" on="0"/>
        <pt x="1164" y="1078" on="1"/>
        <pt x="1163" y="1078" on="1"/>
        <pt x="1156" y="1074" on="0"/>
        <pt x="1130" y="1057" on="0"/>
        <pt x="1128" y="1055" on="1"/>
        <pt x="1126" y="1054" on="0"/>
        <pt x="1114" y="1036" on="0"/>
        <pt x="1112" y="1035" on="1"/>
        <pt x="1111" y="1033" on="0"/>
        <pt x="1108" y="1028" on="0"/>
        <pt x="1106" y="1026" on="1"/>
        <pt x="1103" y="1023" on="0"/>
        <pt x="1100" y="1021" on="1"/>
        <pt x="1098" y="1020" on="0"/>
        <pt x="1085" y="1014" on="0"/>
        <pt x="1070" y="1007" on="0"/>
        <pt x="1058" y="1001" on="0"/>
        <pt x="1057" y="1000" on="1"/>
        <pt x="1056" y="998" on="0"/>
        <pt x="1048" y="988" on="0"/>
        <pt x="1039" y="977" on="0"/>
        <pt x="1032" y="966" on="0"/>
        <pt x="1031" y="965" on="1"/>
        <pt x="1029" y="964" on="0"/>
        <pt x="1016" y="956" on="0"/>
        <pt x="1001" y="947" on="0"/>
        <pt x="989" y="938" on="0"/>
        <pt x="988" y="936" on="1"/>
        <pt x="986" y="935" on="0"/>
        <pt x="976" y="926" on="0"/>
        <pt x="965" y="914" on="0"/>
        <pt x="954" y="903" on="0"/>
        <pt x="953" y="901" on="1"/>
        <pt x="951" y="901" on="0"/>
        <pt x="932" y="891" on="0"/>
        <pt x="932" y="889" on="1"/>
        <pt x="928" y="886" on="0"/>
        <pt x="915" y="873" on="0"/>
        <pt x="902" y="859" on="0"/>
        <pt x="891" y="848" on="0"/>
        <pt x="889" y="848" on="1"/>
        <pt x="888" y="845" on="0"/>
        <pt x="881" y="828" on="0"/>
        <pt x="872" y="809" on="0"/>
        <pt x="864" y="793" on="0"/>
        <pt x="862" y="792" on="1"/>
        <pt x="855" y="780" on="0"/>
        <pt x="829" y="767" on="0"/>
        <pt x="804" y="753" on="0"/>
        <pt x="785" y="735" on="0"/>
      </contour>
      <contour>
        <pt x="-187" y="24" on="1"/>
        <pt x="-187" y="67" on="0"/>
        <pt x="-152" y="88" on="1"/>
        <pt x="-151" y="90" on="0"/>
        <pt x="-135" y="101" on="0"/>
        <pt x="-114" y="114" on="0"/>
        <pt x="-95" y="127" on="0"/>
        <pt x="-90" y="131" on="1"/>
        <pt x="-73" y="142" on="0"/>
        <pt x="-37" y="149" on="0"/>
        <pt x="-21" y="157" on="1"/>
        <pt x="-19" y="158" on="0"/>
        <pt x="-10" y="165" on="0"/>
        <pt x="-1" y="173" on="0"/>
        <pt x="6" y="179" on="0"/>
        <pt x="7" y="180" on="1"/>
        <pt x="9" y="181" on="0"/>
        <pt x="21" y="185" on="0"/>
        <pt x="35" y="189" on="0"/>
        <pt x="47" y="192" on="0"/>
        <pt x="48" y="192" on="1"/>
        <pt x="50" y="194" on="0"/>
        <pt x="62" y="199" on="0"/>
        <pt x="64" y="201" on="1"/>
        <pt x="89" y="218" on="0"/>
        <pt x="157" y="267" on="0"/>
        <pt x="180" y="291" on="1"/>
        <pt x="181" y="292" on="0"/>
        <pt x="188" y="301" on="0"/>
        <pt x="195" y="310" on="0"/>
        <pt x="202" y="318" on="0"/>
        <pt x="202" y="318" on="1"/>
        <pt x="216" y="330" on="0"/>
        <pt x="247" y="348" on="0"/>
        <pt x="258" y="362" on="1"/>
        <pt x="269" y="371" on="0"/>
        <pt x="283" y="411" on="0"/>
        <pt x="292" y="424" on="1"/>
        <pt x="313" y="437" on="0"/>
        <pt x="347" y="465" on="0"/>
        <pt x="376" y="494" on="0"/>
        <pt x="403" y="527" on="0"/>
        <pt x="419" y="547" on="1"/>
        <pt x="419" y="553" on="0"/>
        <pt x="426" y="555" on="1"/>
        <pt x="427" y="555" on="0"/>
        <pt x="445" y="561" on="0"/>
        <pt x="446" y="562" on="1"/>
        <pt x="466" y="574" on="0"/>
        <pt x="494" y="596" on="0"/>
        <pt x="517" y="618" on="0"/>
        <pt x="541" y="643" on="0"/>
        <pt x="557" y="659" on="1"/>
        <pt x="559" y="659" on="0"/>
        <pt x="583" y="664" on="0"/>
        <pt x="585" y="666" on="1"/>
        <pt x="585" y="667" on="0"/>
        <pt x="591" y="674" on="0"/>
        <pt x="597" y="682" on="0"/>
        <pt x="603" y="689" on="0"/>
        <pt x="604" y="689" on="1"/>
        <pt x="617" y="693" on="0"/>
        <pt x="631" y="701" on="0"/>
        <pt x="642" y="708" on="1"/>
        <pt x="642" y="708" on="0"/>
        <pt x="645" y="717" on="0"/>
        <pt x="649" y="726" on="0"/>
        <pt x="653" y="735" on="0"/>
        <pt x="654" y="735" on="1"/>
        <pt x="656" y="739" on="0"/>
        <pt x="677" y="760" on="0"/>
        <pt x="682" y="763" on="1"/>
        <pt x="685" y="766" on="0"/>
        <pt x="693" y="771" on="1"/>
        <pt x="697" y="774" on="0"/>
        <pt x="702" y="777" on="1"/>
        <pt x="725" y="799" on="0"/>
        <pt x="762" y="847" on="0"/>
        <pt x="785" y="867" on="1"/>
        <pt x="787" y="868" on="0"/>
        <pt x="791" y="871" on="0"/>
        <pt x="793" y="872" on="1"/>
        <pt x="799" y="874" on="1"/>
        <pt x="800" y="876" on="0"/>
        <pt x="811" y="887" on="0"/>
        <pt x="824" y="899" on="0"/>
        <pt x="834" y="909" on="0"/>
        <pt x="836" y="910" on="1"/>
        <pt x="840" y="914" on="0"/>
        <pt x="865" y="934" on="0"/>
        <pt x="870" y="936" on="1"/>
        <pt x="900" y="959" on="0"/>
        <pt x="959" y="1003" on="0"/>
        <pt x="988" y="1028" on="1"/>
        <pt x="990" y="1030" on="0"/>
        <pt x="1007" y="1046" on="0"/>
        <pt x="1009" y="1048" on="1"/>
        <pt x="1015" y="1062" on="1"/>
        <pt x="1020" y="1069" on="0"/>
        <pt x="1027" y="1075" on="0"/>
        <pt x="1035" y="1079" on="0"/>
        <pt x="1044" y="1084" on="0"/>
        <pt x="1050" y="1090" on="1"/>
        <pt x="1063" y="1102" on="0"/>
        <pt x="1084" y="1125" on="0"/>
        <pt x="1103" y="1149" on="0"/>
        <pt x="1125" y="1174" on="0"/>
        <pt x="1140" y="1187" on="1"/>
        <pt x="1143" y="1190" on="0"/>
        <pt x="1164" y="1206" on="0"/>
        <pt x="1191" y="1226" on="0"/>
        <pt x="1218" y="1246" on="0"/>
        <pt x="1225" y="1251" on="1"/>
        <pt x="1227" y="1252" on="0"/>
        <pt x="1230" y="1253" on="1"/>
        <pt x="1232" y="1254" on="0"/>
        <pt x="1237" y="1256" on="0"/>
        <pt x="1239" y="1256" on="1"/>
        <pt x="1240" y="1258" on="0"/>
        <pt x="1251" y="1270" on="0"/>
        <pt x="1251" y="1272" on="1"/>
        <pt x="1256" y="1272" on="0"/>
        <pt x="1279" y="1274" on="0"/>
        <pt x="1303" y="1276" on="0"/>
        <pt x="1325" y="1278" on="0"/>
        <pt x="1329" y="1278" on="1"/>
        <pt x="1330" y="1278" on="0"/>
        <pt x="1346" y="1285" on="0"/>
        <pt x="1348" y="1285" on="1"/>
        <pt x="1365" y="1285" on="1"/>
        <pt x="1394" y="1285" on="0"/>
        <pt x="1425" y="1264" on="0"/>
        <pt x="1425" y="1237" on="1"/>
        <pt x="1425" y="1196" on="0"/>
        <pt x="1402" y="1126" on="0"/>
        <pt x="1382" y="1090" on="1"/>
        <pt x="1382" y="1088" on="0"/>
        <pt x="1377" y="1079" on="0"/>
        <pt x="1370" y="1067" on="0"/>
        <pt x="1364" y="1057" on="0"/>
        <pt x="1363" y="1055" on="1"/>
        <pt x="1362" y="1053" on="0"/>
        <pt x="1360" y="1050" on="0"/>
        <pt x="1359" y="1048" on="1"/>
        <pt x="1357" y="1045" on="0"/>
        <pt x="1356" y="1043" on="1"/>
        <pt x="1356" y="1033" on="1"/>
        <pt x="1356" y="1009" on="1"/>
        <pt x="1355" y="1004" on="0"/>
        <pt x="1344" y="988" on="0"/>
        <pt x="1342" y="986" on="1"/>
        <pt x="1336" y="975" on="0"/>
        <pt x="1328" y="949" on="0"/>
        <pt x="1322" y="936" on="1"/>
        <pt x="1312" y="920" on="0"/>
        <pt x="1300" y="886" on="0"/>
        <pt x="1291" y="852" on="0"/>
        <pt x="1281" y="816" on="0"/>
        <pt x="1273" y="798" on="1"/>
        <pt x="1272" y="796" on="0"/>
        <pt x="1263" y="787" on="0"/>
        <pt x="1254" y="775" on="0"/>
        <pt x="1245" y="765" on="0"/>
        <pt x="1244" y="763" on="1"/>
        <pt x="1244" y="761" on="0"/>
        <pt x="1239" y="737" on="0"/>
        <pt x="1239" y="735" on="1"/>
        <pt x="1237" y="732" on="0"/>
        <pt x="1233" y="719" on="0"/>
        <pt x="1228" y="706" on="0"/>
        <pt x="1225" y="695" on="0"/>
        <pt x="1225" y="694" on="1"/>
        <pt x="1207" y="680" on="0"/>
        <pt x="1196" y="639" on="0"/>
        <pt x="1188" y="619" on="1"/>
        <pt x="1187" y="613" on="0"/>
        <pt x="1177" y="585" on="0"/>
        <pt x="1175" y="581" on="1"/>
        <pt x="1174" y="580" on="0"/>
        <pt x="1166" y="564" on="0"/>
        <pt x="1156" y="546" on="0"/>
        <pt x="1148" y="530" on="0"/>
        <pt x="1147" y="528" on="1"/>
        <pt x="1147" y="526" on="0"/>
        <pt x="1145" y="516" on="0"/>
        <pt x="1142" y="504" on="0"/>
        <pt x="1140" y="494" on="0"/>
        <pt x="1140" y="493" on="1"/>
        <pt x="1134" y="469" on="0"/>
        <pt x="1114" y="424" on="0"/>
        <pt x="1093" y="379" on="0"/>
        <pt x="1073" y="335" on="0"/>
        <pt x="1066" y="311" on="1"/>
        <pt x="1064" y="310" on="0"/>
        <pt x="1060" y="294" on="0"/>
        <pt x="1055" y="275" on="0"/>
        <pt x="1051" y="258" on="0"/>
        <pt x="1050" y="256" on="1"/>
        <pt x="1050" y="255" on="0"/>
        <pt x="1044" y="245" on="0"/>
        <pt x="1037" y="233" on="0"/>
        <pt x="1031" y="222" on="0"/>
        <pt x="1031" y="221" on="1"/>
        <pt x="1030" y="220" on="0"/>
        <pt x="1025" y="212" on="0"/>
        <pt x="1020" y="203" on="0"/>
        <pt x="1016" y="194" on="0"/>
        <pt x="1015" y="192" on="1"/>
        <pt x="1009" y="183" on="0"/>
        <pt x="988" y="153" on="0"/>
        <pt x="988" y="140" on="1"/>
        <pt x="988" y="132" on="0"/>
        <pt x="1010" y="117" on="0"/>
        <pt x="1037" y="96" on="0"/>
        <pt x="1059" y="68" on="0"/>
        <pt x="1059" y="48" on="1"/>
        <pt x="1059" y="43" on="0"/>
        <pt x="1059" y="28" on="0"/>
        <pt x="1057" y="26" on="1"/>
        <pt x="1055" y="21" on="0"/>
        <pt x="1036" y="12" on="0"/>
        <pt x="1013" y="4" on="0"/>
        <pt x="992" y="-1" on="0"/>
        <pt x="988" y="-2" on="1"/>
        <pt x="986" y="-2" on="0"/>
        <pt x="959" y="-4" on="0"/>
        <pt x="923" y="-6" on="0"/>
        <pt x="887" y="-8" on="0"/>
        <pt x="877" y="-9" on="1"/>
        <pt x="868" y="-9" on="1"/>
        <pt x="862" y="-9" on="1"/>
        <pt x="859" y="-7" on="0"/>
        <pt x="837" y="-2" on="0"/>
        <pt x="836" y="-2" on="1"/>
        <pt x="661" y="-2" on="1"/>
        <pt x="655" y="4" on="0"/>
        <pt x="640" y="12" on="0"/>
        <pt x="627" y="20" on="0"/>
        <pt x="619" y="31" on="0"/>
        <pt x="619" y="40" on="1"/>
        <pt x="619" y="72" on="0"/>
        <pt x="644" y="98" on="0"/>
        <pt x="682" y="108" on="0"/>
        <pt x="727" y="116" on="0"/>
        <pt x="746" y="131" on="1"/>
        <pt x="778" y="157" on="0"/>
        <pt x="824" y="231" on="0"/>
        <pt x="842" y="270" on="1"/>
        <pt x="842" y="271" on="0"/>
        <pt x="845" y="281" on="0"/>
        <pt x="850" y="293" on="0"/>
        <pt x="854" y="303" on="0"/>
        <pt x="855" y="304" on="1"/>
        <pt x="857" y="307" on="0"/>
        <pt x="868" y="318" on="0"/>
        <pt x="870" y="318" on="1"/>
        <pt x="884" y="339" on="0"/>
        <pt x="889" y="393" on="0"/>
        <pt x="896" y="415" on="1"/>
        <pt x="897" y="418" on="0"/>
        <pt x="904" y="434" on="0"/>
        <pt x="912" y="453" on="0"/>
        <pt x="919" y="469" on="0"/>
        <pt x="919" y="472" on="1"/>
        <pt x="919" y="491" on="1"/>
        <pt x="919" y="503" on="1"/>
        <pt x="919" y="513" on="0"/>
        <pt x="917" y="530" on="0"/>
        <pt x="912" y="535" on="1"/>
        <pt x="910" y="536" on="0"/>
        <pt x="892" y="541" on="0"/>
        <pt x="889" y="541" on="1"/>
        <pt x="888" y="542" on="0"/>
        <pt x="874" y="548" on="0"/>
        <pt x="858" y="556" on="0"/>
        <pt x="843" y="562" on="0"/>
        <pt x="842" y="562" on="1"/>
        <pt x="834" y="562" on="1"/>
        <pt x="820" y="562" on="1"/>
        <pt x="813" y="562" on="0"/>
        <pt x="787" y="559" on="0"/>
        <pt x="760" y="557" on="0"/>
        <pt x="740" y="555" on="0"/>
        <pt x="739" y="555" on="1"/>
        <pt x="737" y="554" on="0"/>
        <pt x="719" y="549" on="0"/>
        <pt x="716" y="547" on="1"/>
        <pt x="713" y="547" on="1"/>
        <pt x="699" y="547" on="0"/>
        <pt x="673" y="555" on="0"/>
        <pt x="659" y="555" on="1"/>
        <pt x="650" y="555" on="0"/>
        <pt x="623" y="547" on="0"/>
        <pt x="595" y="535" on="0"/>
        <pt x="570" y="520" on="0"/>
        <pt x="564" y="512" on="1"/>
        <pt x="561" y="510" on="0"/>
        <pt x="546" y="489" on="0"/>
        <pt x="543" y="484" on="1"/>
        <pt x="540" y="484" on="0"/>
        <pt x="535" y="477" on="1"/>
        <pt x="493" y="448" on="0"/>
        <pt x="426" y="370" on="0"/>
        <pt x="391" y="334" on="1"/>
        <pt x="385" y="328" on="0"/>
        <pt x="360" y="303" on="0"/>
        <pt x="333" y="276" on="0"/>
        <pt x="310" y="253" on="0"/>
        <pt x="306" y="249" on="1"/>
        <pt x="304" y="247" on="0"/>
        <pt x="296" y="241" on="1"/>
        <pt x="292" y="238" on="0"/>
        <pt x="287" y="235" on="1"/>
        <pt x="264" y="215" on="0"/>
        <pt x="230" y="154" on="0"/>
        <pt x="230" y="123" on="1"/>
        <pt x="230" y="111" on="1"/>
        <pt x="272" y="69" on="1"/>
        <pt x="277" y="63" on="0"/>
        <pt x="280" y="48" on="0"/>
        <pt x="280" y="42" on="1"/>
        <pt x="280" y="33" on="1"/>
        <pt x="280" y="15" on="0"/>
        <pt x="267" y="-2" on="0"/>
        <pt x="249" y="-2" on="1"/>
        <pt x="235" y="-2" on="0"/>
        <pt x="209" y="7" on="0"/>
        <pt x="195" y="7" on="1"/>
        <pt x="181" y="7" on="0"/>
        <pt x="161" y="-7" on="0"/>
        <pt x="145" y="-9" on="1"/>
        <pt x="114" y="-9" on="1"/>
        <pt x="76" y="-9" on="0"/>
        <pt x="0" y="0" on="0"/>
        <pt x="-38" y="0" on="1"/>
        <pt x="-56" y="0" on="0"/>
        <pt x="-89" y="-16" on="0"/>
        <pt x="-107" y="-16" on="1"/>
        <pt x="-135" y="-16" on="0"/>
        <pt x="-169" y="-3" on="0"/>
        <pt x="-187" y="19" on="1"/>
      </contour>
    </TTGlyph>
    <TTGlyph name="A.swash" xMin="80" yMin="-131" xMax="2851" yMax="1455">
      <contour>
        <pt x="1799" y="799" on="1"/>
        <pt x="1799" y="796" on="1"/>
        <pt x="1808" y="771" on="0"/>
        <pt x="1840" y="742" on="0"/>
        <pt x="1869" y="742" on="1"/>
        <pt x="1888" y="742" on="1"/>
        <pt x="1889" y="742" on="0"/>
        <pt x="1907" y="747" on="0"/>
        <pt x="1908" y="747" on="1"/>
        <pt x="1972" y="747" on="1"/>
        <pt x="1980" y="748" on="0"/>
        <pt x="2002" y="754" on="0"/>
        <pt x="2024" y="762" on="0"/>
        <pt x="2042" y="774" on="0"/>
        <pt x="2047" y="782" on="1"/>
        <pt x="2049" y="785" on="0"/>
        <pt x="2057" y="800" on="0"/>
        <pt x="2066" y="818" on="0"/>
        <pt x="2074" y="835" on="0"/>
        <pt x="2076" y="839" on="1"/>
        <pt x="2076" y="841" on="0"/>
        <pt x="2081" y="856" on="0"/>
        <pt x="2081" y="858" on="1"/>
        <pt x="2082" y="860" on="0"/>
        <pt x="2091" y="871" on="0"/>
        <pt x="2101" y="883" on="0"/>
        <pt x="2109" y="892" on="0"/>
        <pt x="2111" y="893" on="1"/>
        <pt x="2111" y="894" on="0"/>
        <pt x="2116" y="904" on="0"/>
        <pt x="2116" y="908" on="1"/>
        <pt x="2125" y="926" on="0"/>
        <pt x="2130" y="966" on="0"/>
        <pt x="2138" y="984" on="1"/>
        <pt x="2138" y="1088" on="1"/>
        <pt x="2132" y="1093" on="1"/>
        <pt x="2130" y="1093" on="0"/>
        <pt x="2115" y="1097" on="0"/>
        <pt x="2111" y="1097" on="1"/>
        <pt x="2073" y="1097" on="0"/>
        <pt x="2010" y="1063" on="0"/>
        <pt x="1984" y="1031" on="1"/>
        <pt x="1984" y="1029" on="0"/>
        <pt x="1974" y="1014" on="0"/>
        <pt x="1972" y="1012" on="1"/>
        <pt x="1951" y="989" on="0"/>
        <pt x="1900" y="940" on="0"/>
        <pt x="1852" y="888" on="0"/>
        <pt x="1811" y="833" on="0"/>
        <pt x="1799" y="804" on="1"/>
      </contour>
      <contour>
        <pt x="80" y="311" on="1"/>
        <pt x="81" y="313" on="0"/>
        <pt x="87" y="330" on="0"/>
        <pt x="87" y="332" on="1"/>
        <pt x="87" y="335" on="0"/>
        <pt x="91" y="353" on="0"/>
        <pt x="96" y="376" on="0"/>
        <pt x="100" y="396" on="0"/>
        <pt x="101" y="401" on="1"/>
        <pt x="101" y="405" on="1"/>
        <pt x="101" y="408" on="1"/>
        <pt x="99" y="415" on="0"/>
        <pt x="93" y="449" on="0"/>
        <pt x="87" y="486" on="0"/>
        <pt x="81" y="520" on="0"/>
        <pt x="80" y="526" on="1"/>
        <pt x="91" y="558" on="0"/>
        <pt x="108" y="626" on="0"/>
        <pt x="121" y="657" on="1"/>
        <pt x="123" y="659" on="0"/>
        <pt x="126" y="676" on="0"/>
        <pt x="126" y="678" on="1"/>
        <pt x="132" y="693" on="0"/>
        <pt x="151" y="726" on="0"/>
        <pt x="177" y="754" on="0"/>
        <pt x="207" y="774" on="0"/>
        <pt x="225" y="777" on="1"/>
        <pt x="277" y="777" on="1"/>
        <pt x="308" y="777" on="1"/>
        <pt x="321" y="777" on="0"/>
        <pt x="346" y="775" on="0"/>
        <pt x="357" y="770" on="1"/>
        <pt x="363" y="758" on="0"/>
        <pt x="380" y="728" on="0"/>
        <pt x="396" y="696" on="0"/>
        <pt x="407" y="664" on="0"/>
        <pt x="407" y="650" on="1"/>
        <pt x="407" y="639" on="0"/>
        <pt x="389" y="618" on="0"/>
        <pt x="384" y="609" on="1"/>
        <pt x="384" y="607" on="0"/>
        <pt x="378" y="597" on="0"/>
        <pt x="370" y="586" on="0"/>
        <pt x="364" y="575" on="0"/>
        <pt x="363" y="574" on="1"/>
        <pt x="358" y="567" on="0"/>
        <pt x="334" y="551" on="0"/>
        <pt x="304" y="536" on="0"/>
        <pt x="276" y="523" on="0"/>
        <pt x="268" y="519" on="1"/>
        <pt x="251" y="510" on="0"/>
        <pt x="234" y="487" on="0"/>
        <pt x="228" y="461" on="0"/>
        <pt x="227" y="431" on="0"/>
        <pt x="225" y="415" on="1"/>
        <pt x="225" y="413" on="0"/>
        <pt x="218" y="398" on="0"/>
        <pt x="218" y="396" on="1"/>
        <pt x="203" y="324" on="0"/>
        <pt x="203" y="254" on="1"/>
        <pt x="203" y="180" on="0"/>
        <pt x="260" y="131" on="1"/>
        <pt x="264" y="126" on="0"/>
        <pt x="286" y="111" on="0"/>
        <pt x="287" y="111" on="1"/>
        <pt x="288" y="109" on="0"/>
        <pt x="303" y="107" on="0"/>
        <pt x="320" y="105" on="0"/>
        <pt x="335" y="104" on="0"/>
        <pt x="338" y="104" on="1"/>
        <pt x="362" y="99" on="0"/>
        <pt x="412" y="84" on="0"/>
        <pt x="463" y="71" on="0"/>
        <pt x="514" y="62" on="0"/>
        <pt x="540" y="62" on="1"/>
        <pt x="550" y="62" on="1"/>
        <pt x="561" y="62" on="0"/>
        <pt x="596" y="64" on="0"/>
        <pt x="629" y="67" on="0"/>
        <pt x="653" y="69" on="0"/>
        <pt x="654" y="69" on="1"/>
        <pt x="656" y="69" on="0"/>
        <pt x="666" y="73" on="0"/>
        <pt x="678" y="77" on="0"/>
        <pt x="687" y="81" on="0"/>
        <pt x="689" y="81" on="1"/>
        <pt x="745" y="98" on="0"/>
        <pt x="857" y="121" on="0"/>
        <pt x="912" y="138" on="1"/>
        <pt x="918" y="139" on="0"/>
        <pt x="944" y="156" on="0"/>
        <pt x="972" y="177" on="0"/>
        <pt x="995" y="196" on="0"/>
        <pt x="1000" y="201" on="1"/>
        <pt x="1003" y="204" on="0"/>
        <pt x="1026" y="226" on="0"/>
        <pt x="1051" y="252" on="0"/>
        <pt x="1073" y="274" on="0"/>
        <pt x="1076" y="277" on="1"/>
        <pt x="1080" y="279" on="0"/>
        <pt x="1101" y="295" on="0"/>
        <pt x="1104" y="298" on="1"/>
        <pt x="1106" y="299" on="0"/>
        <pt x="1117" y="305" on="0"/>
        <pt x="1129" y="311" on="0"/>
        <pt x="1138" y="317" on="0"/>
        <pt x="1139" y="318" on="1"/>
        <pt x="1141" y="320" on="0"/>
        <pt x="1159" y="337" on="0"/>
        <pt x="1161" y="339" on="1"/>
        <pt x="1171" y="348" on="0"/>
        <pt x="1191" y="358" on="0"/>
        <pt x="1212" y="366" on="0"/>
        <pt x="1232" y="374" on="0"/>
        <pt x="1242" y="381" on="1"/>
        <pt x="1253" y="387" on="0"/>
        <pt x="1270" y="415" on="0"/>
        <pt x="1277" y="422" on="1"/>
        <pt x="1281" y="426" on="0"/>
        <pt x="1311" y="454" on="0"/>
        <pt x="1344" y="487" on="0"/>
        <pt x="1373" y="516" on="0"/>
        <pt x="1376" y="519" on="1"/>
        <pt x="1377" y="522" on="0"/>
        <pt x="1384" y="533" on="0"/>
        <pt x="1393" y="547" on="0"/>
        <pt x="1401" y="558" on="0"/>
        <pt x="1403" y="561" on="1"/>
        <pt x="1404" y="562" on="0"/>
        <pt x="1406" y="570" on="0"/>
        <pt x="1408" y="579" on="0"/>
        <pt x="1410" y="587" on="0"/>
        <pt x="1410" y="588" on="1"/>
        <pt x="1411" y="589" on="0"/>
        <pt x="1419" y="600" on="0"/>
        <pt x="1429" y="612" on="0"/>
        <pt x="1437" y="622" on="0"/>
        <pt x="1438" y="623" on="1"/>
        <pt x="1454" y="645" on="0"/>
        <pt x="1484" y="691" on="0"/>
        <pt x="1507" y="708" on="1"/>
        <pt x="1508" y="708" on="0"/>
        <pt x="1524" y="715" on="0"/>
        <pt x="1543" y="724" on="0"/>
        <pt x="1560" y="733" on="0"/>
        <pt x="1562" y="735" on="1"/>
        <pt x="1564" y="736" on="0"/>
        <pt x="1577" y="748" on="0"/>
        <pt x="1591" y="762" on="0"/>
        <pt x="1602" y="775" on="0"/>
        <pt x="1604" y="777" on="1"/>
        <pt x="1606" y="778" on="0"/>
        <pt x="1630" y="794" on="0"/>
        <pt x="1632" y="796" on="1"/>
        <pt x="1664" y="823" on="0"/>
        <pt x="1715" y="891" on="0"/>
        <pt x="1742" y="920" on="1"/>
        <pt x="1767" y="946" on="0"/>
        <pt x="1817" y="997" on="0"/>
        <pt x="1846" y="1019" on="1"/>
        <pt x="1882" y="1044" on="0"/>
        <pt x="1947" y="1101" on="0"/>
        <pt x="2009" y="1163" on="0"/>
        <pt x="2071" y="1225" on="0"/>
        <pt x="2104" y="1254" on="1"/>
        <pt x="2105" y="1255" on="0"/>
        <pt x="2119" y="1265" on="0"/>
        <pt x="2135" y="1277" on="0"/>
        <pt x="2149" y="1287" on="0"/>
        <pt x="2151" y="1289" on="1"/>
        <pt x="2153" y="1291" on="0"/>
        <pt x="2171" y="1308" on="0"/>
        <pt x="2173" y="1310" on="1"/>
        <pt x="2219" y="1344" on="0"/>
        <pt x="2328" y="1381" on="0"/>
        <pt x="2381" y="1400" on="1"/>
        <pt x="2381" y="1400" on="0"/>
        <pt x="2389" y="1404" on="0"/>
        <pt x="2398" y="1409" on="0"/>
        <pt x="2407" y="1413" on="0"/>
        <pt x="2408" y="1413" on="1"/>
        <pt x="2438" y="1427" on="0"/>
        <pt x="2488" y="1433" on="0"/>
        <pt x="2519" y="1439" on="1"/>
        <pt x="2520" y="1440" on="0"/>
        <pt x="2532" y="1446" on="0"/>
        <pt x="2546" y="1451" on="0"/>
        <pt x="2559" y="1455" on="0"/>
        <pt x="2561" y="1455" on="1"/>
        <pt x="2604" y="1455" on="1"/>
        <pt x="2644" y="1455" on="0"/>
        <pt x="2721" y="1436" on="0"/>
        <pt x="2761" y="1427" on="1"/>
        <pt x="2771" y="1424" on="0"/>
        <pt x="2789" y="1423" on="0"/>
        <pt x="2806" y="1420" on="0"/>
        <pt x="2819" y="1411" on="0"/>
        <pt x="2824" y="1400" on="1"/>
        <pt x="2824" y="1398" on="0"/>
        <pt x="2829" y="1381" on="0"/>
        <pt x="2833" y="1362" on="0"/>
        <pt x="2837" y="1346" on="0"/>
        <pt x="2837" y="1344" on="1"/>
        <pt x="2838" y="1343" on="0"/>
        <pt x="2842" y="1334" on="0"/>
        <pt x="2846" y="1325" on="0"/>
        <pt x="2850" y="1317" on="0"/>
        <pt x="2851" y="1317" on="1"/>
        <pt x="2851" y="1313" on="1"/>
        <pt x="2851" y="1277" on="0"/>
        <pt x="2807" y="1213" on="0"/>
        <pt x="2782" y="1192" on="1"/>
        <pt x="2773" y="1183" on="0"/>
        <pt x="2760" y="1183" on="1"/>
        <pt x="2755" y="1183" on="0"/>
        <pt x="2742" y="1185" on="0"/>
        <pt x="2737" y="1185" on="1"/>
        <pt x="2725" y="1185" on="0"/>
        <pt x="2708" y="1186" on="0"/>
        <pt x="2694" y="1190" on="0"/>
        <pt x="2680" y="1198" on="0"/>
        <pt x="2670" y="1204" on="1"/>
        <pt x="2669" y="1206" on="0"/>
        <pt x="2657" y="1217" on="0"/>
        <pt x="2643" y="1229" on="0"/>
        <pt x="2631" y="1238" on="0"/>
        <pt x="2630" y="1239" on="1"/>
        <pt x="2630" y="1240" on="0"/>
        <pt x="2616" y="1246" on="0"/>
        <pt x="2616" y="1247" on="1"/>
        <pt x="2607" y="1254" on="0"/>
        <pt x="2592" y="1271" on="0"/>
        <pt x="2575" y="1286" on="0"/>
        <pt x="2556" y="1296" on="0"/>
        <pt x="2543" y="1296" on="1"/>
        <pt x="2523" y="1296" on="0"/>
        <pt x="2483" y="1280" on="0"/>
        <pt x="2446" y="1254" on="0"/>
        <pt x="2417" y="1221" on="0"/>
        <pt x="2408" y="1204" on="1"/>
        <pt x="2407" y="1202" on="0"/>
        <pt x="2401" y="1180" on="0"/>
        <pt x="2401" y="1178" on="1"/>
        <pt x="2396" y="1161" on="0"/>
        <pt x="2381" y="1130" on="0"/>
        <pt x="2363" y="1100" on="0"/>
        <pt x="2345" y="1070" on="0"/>
        <pt x="2339" y="1054" on="1"/>
        <pt x="2338" y="1051" on="0"/>
        <pt x="2329" y="1026" on="0"/>
        <pt x="2320" y="997" on="0"/>
        <pt x="2312" y="973" on="0"/>
        <pt x="2311" y="971" on="1"/>
        <pt x="2311" y="969" on="0"/>
        <pt x="2304" y="961" on="0"/>
        <pt x="2297" y="952" on="0"/>
        <pt x="2290" y="944" on="0"/>
        <pt x="2289" y="943" on="1"/>
        <pt x="2289" y="941" on="0"/>
        <pt x="2284" y="929" on="0"/>
        <pt x="2278" y="914" on="0"/>
        <pt x="2272" y="898" on="0"/>
        <pt x="2270" y="893" on="1"/>
        <pt x="2269" y="891" on="0"/>
        <pt x="2267" y="885" on="0"/>
        <pt x="2265" y="882" on="1"/>
        <pt x="2261" y="874" on="1"/>
        <pt x="2261" y="837" on="1"/>
        <pt x="2261" y="823" on="1"/>
        <pt x="2261" y="823" on="0"/>
        <pt x="2258" y="815" on="0"/>
        <pt x="2254" y="806" on="0"/>
        <pt x="2250" y="797" on="0"/>
        <pt x="2249" y="796" on="1"/>
        <pt x="2247" y="794" on="0"/>
        <pt x="2242" y="778" on="0"/>
        <pt x="2242" y="777" on="1"/>
        <pt x="2242" y="775" on="0"/>
        <pt x="2239" y="764" on="0"/>
        <pt x="2237" y="752" on="0"/>
        <pt x="2235" y="743" on="0"/>
        <pt x="2235" y="742" on="1"/>
        <pt x="2235" y="740" on="0"/>
        <pt x="2229" y="731" on="0"/>
        <pt x="2221" y="722" on="0"/>
        <pt x="2215" y="714" on="0"/>
        <pt x="2215" y="713" on="1"/>
        <pt x="2206" y="699" on="0"/>
        <pt x="2193" y="662" on="0"/>
        <pt x="2183" y="623" on="0"/>
        <pt x="2176" y="585" on="0"/>
        <pt x="2173" y="569" on="1"/>
        <pt x="2170" y="554" on="0"/>
        <pt x="2153" y="528" on="0"/>
        <pt x="2133" y="504" on="0"/>
        <pt x="2115" y="479" on="0"/>
        <pt x="2111" y="465" on="1"/>
        <pt x="2102" y="440" on="0"/>
        <pt x="2092" y="390" on="0"/>
        <pt x="2081" y="367" on="1"/>
        <pt x="2081" y="365" on="0"/>
        <pt x="2075" y="355" on="0"/>
        <pt x="2067" y="344" on="0"/>
        <pt x="2061" y="333" on="0"/>
        <pt x="2061" y="332" on="1"/>
        <pt x="2058" y="326" on="0"/>
        <pt x="2047" y="293" on="0"/>
        <pt x="2033" y="256" on="0"/>
        <pt x="2022" y="222" on="0"/>
        <pt x="2019" y="215" on="1"/>
        <pt x="2019" y="201" on="1"/>
        <pt x="2019" y="181" on="0"/>
        <pt x="2040" y="150" on="0"/>
        <pt x="2054" y="138" on="1"/>
        <pt x="2065" y="138" on="0"/>
        <pt x="2089" y="140" on="0"/>
        <pt x="2102" y="140" on="1"/>
        <pt x="2143" y="140" on="0"/>
        <pt x="2224" y="121" on="0"/>
        <pt x="2249" y="90" on="1"/>
        <pt x="2252" y="86" on="0"/>
        <pt x="2261" y="71" on="0"/>
        <pt x="2261" y="69" on="1"/>
        <pt x="2261" y="67" on="0"/>
        <pt x="2262" y="65" on="1"/>
        <pt x="2262" y="63" on="0"/>
        <pt x="2263" y="60" on="0"/>
        <pt x="2263" y="59" on="1"/>
        <pt x="2263" y="50" on="0"/>
        <pt x="2261" y="43" on="0"/>
        <pt x="2254" y="35" on="1"/>
        <pt x="2236" y="5" on="0"/>
        <pt x="2206" y="-9" on="0"/>
        <pt x="2180" y="-9" on="1"/>
        <pt x="2147" y="-9" on="1"/>
        <pt x="2139" y="-9" on="0"/>
        <pt x="2106" y="-7" on="0"/>
        <pt x="2104" y="-7" on="1"/>
        <pt x="2101" y="-7" on="0"/>
        <pt x="2076" y="-5" on="0"/>
        <pt x="2047" y="-2" on="0"/>
        <pt x="2022" y="0" on="0"/>
        <pt x="2019" y="0" on="1"/>
        <pt x="1811" y="0" on="1"/>
        <pt x="1805" y="5" on="0"/>
        <pt x="1790" y="7" on="0"/>
        <pt x="1782" y="7" on="1"/>
        <pt x="1770" y="7" on="1"/>
        <pt x="1755" y="7" on="0"/>
        <pt x="1726" y="0" on="0"/>
        <pt x="1696" y="-9" on="0"/>
        <pt x="1667" y="-16" on="0"/>
        <pt x="1652" y="-16" on="1"/>
        <pt x="1646" y="-16" on="0"/>
        <pt x="1613" y="-9" on="0"/>
        <pt x="1580" y="3" on="0"/>
        <pt x="1554" y="19" on="0"/>
        <pt x="1554" y="29" on="1"/>
        <pt x="1554" y="41" on="0"/>
        <pt x="1567" y="63" on="0"/>
        <pt x="1587" y="82" on="0"/>
        <pt x="1609" y="98" on="0"/>
        <pt x="1618" y="104" on="1"/>
        <pt x="1715" y="104" on="1"/>
        <pt x="1717" y="104" on="0"/>
        <pt x="1734" y="108" on="0"/>
        <pt x="1735" y="111" on="1"/>
        <pt x="1740" y="114" on="0"/>
        <pt x="1760" y="128" on="0"/>
        <pt x="1780" y="144" on="0"/>
        <pt x="1796" y="157" on="0"/>
        <pt x="1799" y="159" on="1"/>
        <pt x="1802" y="165" on="0"/>
        <pt x="1805" y="170" on="1"/>
        <pt x="1807" y="175" on="0"/>
        <pt x="1810" y="183" on="0"/>
        <pt x="1811" y="185" on="1"/>
        <pt x="1811" y="194" on="1"/>
        <pt x="1813" y="198" on="0"/>
        <pt x="1820" y="218" on="0"/>
        <pt x="1827" y="237" on="0"/>
        <pt x="1833" y="253" on="0"/>
        <pt x="1834" y="254" on="1"/>
        <pt x="1847" y="291" on="0"/>
        <pt x="1890" y="353" on="0"/>
        <pt x="1903" y="388" on="1"/>
        <pt x="1903" y="389" on="0"/>
        <pt x="1904" y="399" on="0"/>
        <pt x="1906" y="411" on="0"/>
        <pt x="1908" y="421" on="0"/>
        <pt x="1908" y="422" on="1"/>
        <pt x="1915" y="442" on="0"/>
        <pt x="1930" y="476" on="0"/>
        <pt x="1942" y="508" on="0"/>
        <pt x="1950" y="541" on="0"/>
        <pt x="1950" y="561" on="1"/>
        <pt x="1950" y="576" on="1"/>
        <pt x="1950" y="585" on="0"/>
        <pt x="1948" y="601" on="0"/>
        <pt x="1943" y="609" on="1"/>
        <pt x="1914" y="627" on="0"/>
        <pt x="1842" y="659" on="0"/>
        <pt x="1808" y="659" on="1"/>
        <pt x="1783" y="659" on="0"/>
        <pt x="1735" y="647" on="0"/>
        <pt x="1715" y="638" on="1"/>
        <pt x="1696" y="629" on="0"/>
        <pt x="1665" y="603" on="0"/>
        <pt x="1645" y="595" on="1"/>
        <pt x="1640" y="590" on="0"/>
        <pt x="1616" y="569" on="0"/>
        <pt x="1590" y="545" on="0"/>
        <pt x="1566" y="523" on="0"/>
        <pt x="1562" y="519" on="1"/>
        <pt x="1558" y="515" on="0"/>
        <pt x="1542" y="499" on="0"/>
        <pt x="1525" y="481" on="0"/>
        <pt x="1510" y="466" on="0"/>
        <pt x="1507" y="465" on="1"/>
        <pt x="1505" y="463" on="0"/>
        <pt x="1493" y="445" on="0"/>
        <pt x="1493" y="443" on="1"/>
        <pt x="1491" y="440" on="0"/>
        <pt x="1478" y="425" on="0"/>
        <pt x="1462" y="410" on="0"/>
        <pt x="1448" y="398" on="0"/>
        <pt x="1445" y="396" on="1"/>
        <pt x="1442" y="394" on="0"/>
        <pt x="1424" y="382" on="0"/>
        <pt x="1424" y="381" on="1"/>
        <pt x="1423" y="380" on="0"/>
        <pt x="1414" y="370" on="0"/>
        <pt x="1405" y="358" on="0"/>
        <pt x="1397" y="347" on="0"/>
        <pt x="1396" y="346" on="1"/>
        <pt x="1388" y="337" on="0"/>
        <pt x="1349" y="291" on="0"/>
        <pt x="1304" y="240" on="0"/>
        <pt x="1265" y="194" on="0"/>
        <pt x="1258" y="185" on="1"/>
        <pt x="1239" y="171" on="0"/>
        <pt x="1212" y="142" on="0"/>
        <pt x="1187" y="112" on="0"/>
        <pt x="1162" y="83" on="0"/>
        <pt x="1145" y="69" on="1"/>
        <pt x="1145" y="67" on="0"/>
        <pt x="1128" y="55" on="0"/>
        <pt x="1126" y="55" on="1"/>
        <pt x="1123" y="53" on="0"/>
        <pt x="1106" y="40" on="0"/>
        <pt x="1086" y="25" on="0"/>
        <pt x="1068" y="10" on="0"/>
        <pt x="1064" y="7" on="1"/>
        <pt x="1057" y="0" on="1"/>
        <pt x="1054" y="-2" on="0"/>
        <pt x="1034" y="-12" on="0"/>
        <pt x="1011" y="-24" on="0"/>
        <pt x="991" y="-34" on="0"/>
        <pt x="988" y="-35" on="1"/>
        <pt x="984" y="-38" on="0"/>
        <pt x="956" y="-58" on="0"/>
        <pt x="923" y="-81" on="0"/>
        <pt x="894" y="-101" on="0"/>
        <pt x="891" y="-104" on="1"/>
        <pt x="874" y="-115" on="0"/>
        <pt x="826" y="-124" on="0"/>
        <pt x="806" y="-126" on="1"/>
        <pt x="799" y="-126" on="0"/>
        <pt x="754" y="-128" on="0"/>
        <pt x="701" y="-129" on="0"/>
        <pt x="652" y="-131" on="0"/>
        <pt x="642" y="-131" on="1"/>
        <pt x="580" y="-131" on="1"/>
        <pt x="516" y="-131" on="0"/>
        <pt x="402" y="-110" on="0"/>
        <pt x="343" y="-85" on="1"/>
        <pt x="339" y="-82" on="0"/>
        <pt x="319" y="-71" on="0"/>
        <pt x="296" y="-57" on="0"/>
        <pt x="277" y="-45" on="0"/>
        <pt x="274" y="-42" on="1"/>
        <pt x="272" y="-41" on="0"/>
        <pt x="266" y="-33" on="0"/>
        <pt x="259" y="-24" on="0"/>
        <pt x="253" y="-16" on="0"/>
        <pt x="253" y="-16" on="1"/>
        <pt x="214" y="29" on="0"/>
        <pt x="137" y="111" on="0"/>
        <pt x="101" y="159" on="1"/>
        <pt x="99" y="162" on="0"/>
        <pt x="92" y="174" on="0"/>
        <pt x="85" y="188" on="0"/>
        <pt x="80" y="199" on="0"/>
        <pt x="80" y="201" on="1"/>
      </contour>
    </TTGlyph>
    <TTGlyph name="AE" xMin="-191" yMin="-16" xMax="2190" yMax="1408">
      <contour>
        <pt x="781" y="718" on="1"/>
        <pt x="781" y="702" on="0"/>
        <pt x="789" y="682" on="0"/>
        <pt x="804" y="668" on="0"/>
        <pt x="825" y="658" on="0"/>
        <pt x="838" y="654" on="1"/>
        <pt x="841" y="651" on="0"/>
        <pt x="849" y="648" on="1"/>
        <pt x="853" y="646" on="0"/>
        <pt x="858" y="645" on="1"/>
        <pt x="970" y="645" on="1"/>
        <pt x="983" y="664" on="0"/>
        <pt x="1012" y="693" on="0"/>
        <pt x="1029" y="718" on="1"/>
        <pt x="1035" y="734" on="0"/>
        <pt x="1048" y="761" on="0"/>
        <pt x="1053" y="770" on="1"/>
        <pt x="1053" y="771" on="1"/>
        <pt x="1053" y="771" on="0"/>
        <pt x="1055" y="773" on="1"/>
        <pt x="1060" y="785" on="0"/>
        <pt x="1071" y="810" on="0"/>
        <pt x="1077" y="822" on="1"/>
        <pt x="1079" y="824" on="0"/>
        <pt x="1092" y="841" on="0"/>
        <pt x="1096" y="846" on="1"/>
        <pt x="1096" y="848" on="0"/>
        <pt x="1098" y="851" on="0"/>
        <pt x="1098" y="853" on="1"/>
        <pt x="1099" y="857" on="0"/>
        <pt x="1101" y="872" on="0"/>
        <pt x="1103" y="887" on="0"/>
        <pt x="1105" y="898" on="0"/>
        <pt x="1107" y="900" on="1"/>
        <pt x="1108" y="902" on="0"/>
        <pt x="1109" y="905" on="1"/>
        <pt x="1111" y="911" on="0"/>
        <pt x="1112" y="913" on="1"/>
        <pt x="1127" y="945" on="1"/>
        <pt x="1127" y="948" on="1"/>
        <pt x="1131" y="954" on="0"/>
        <pt x="1131" y="958" on="1"/>
        <pt x="1133" y="963" on="0"/>
        <pt x="1134" y="977" on="0"/>
        <pt x="1136" y="979" on="1"/>
        <pt x="1139" y="983" on="0"/>
        <pt x="1150" y="1006" on="0"/>
        <pt x="1164" y="1030" on="0"/>
        <pt x="1175" y="1051" on="0"/>
        <pt x="1178" y="1055" on="1"/>
        <pt x="1176" y="1060" on="0"/>
        <pt x="1167" y="1078" on="0"/>
        <pt x="1160" y="1078" on="1"/>
        <pt x="1159" y="1078" on="1"/>
        <pt x="1152" y="1074" on="0"/>
        <pt x="1126" y="1057" on="0"/>
        <pt x="1124" y="1055" on="1"/>
        <pt x="1122" y="1054" on="0"/>
        <pt x="1110" y="1036" on="0"/>
        <pt x="1108" y="1035" on="1"/>
        <pt x="1107" y="1033" on="0"/>
        <pt x="1104" y="1028" on="0"/>
        <pt x="1102" y="1026" on="1"/>
        <pt x="1099" y="1023" on="0"/>
        <pt x="1096" y="1021" on="1"/>
        <pt x="1094" y="1020" on="0"/>
        <pt x="1081" y="1014" on="0"/>
        <pt x="1066" y="1007" on="0"/>
        <pt x="1054" y="1001" on="0"/>
        <pt x="1053" y="1000" on="1"/>
        <pt x="1052" y="998" on="0"/>
        <pt x="1044" y="988" on="0"/>
        <pt x="1035" y="977" on="0"/>
        <pt x="1028" y="966" on="0"/>
        <pt x="1027" y="965" on="1"/>
        <pt x="1025" y="964" on="0"/>
        <pt x="1012" y="956" on="0"/>
        <pt x="997" y="947" on="0"/>
        <pt x="985" y="938" on="0"/>
        <pt x="984" y="936" on="1"/>
        <pt x="982" y="935" on="0"/>
        <pt x="972" y="926" on="0"/>
        <pt x="961" y="914" on="0"/>
        <pt x="950" y="903" on="0"/>
        <pt x="949" y="901" on="1"/>
        <pt x="947" y="901" on="0"/>
        <pt x="928" y="891" on="0"/>
        <pt x="928" y="889" on="1"/>
        <pt x="924" y="886" on="0"/>
        <pt x="911" y="873" on="0"/>
        <pt x="898" y="859" on="0"/>
        <pt x="887" y="848" on="0"/>
        <pt x="885" y="848" on="1"/>
        <pt x="884" y="845" on="0"/>
        <pt x="877" y="828" on="0"/>
        <pt x="868" y="809" on="0"/>
        <pt x="860" y="793" on="0"/>
        <pt x="858" y="792" on="1"/>
        <pt x="851" y="780" on="0"/>
        <pt x="825" y="767" on="0"/>
        <pt x="800" y="753" on="0"/>
        <pt x="781" y="735" on="0"/>
      </contour>
      <contour>
        <pt x="494" y="66" on="1"/>
        <pt x="502" y="88" on="0"/>
        <pt x="523" y="109" on="0"/>
        <pt x="546" y="109" on="1"/>
        <pt x="564" y="109" on="0"/>
        <pt x="593" y="93" on="0"/>
        <pt x="608" y="93" on="1"/>
        <pt x="614" y="93" on="1"/>
        <pt x="615" y="94" on="0"/>
        <pt x="633" y="100" on="0"/>
        <pt x="654" y="107" on="0"/>
        <pt x="673" y="113" on="0"/>
        <pt x="676" y="114" on="1"/>
        <pt x="683" y="114" on="1"/>
        <pt x="688" y="114" on="0"/>
        <pt x="691" y="111" on="1"/>
        <pt x="705" y="113" on="0"/>
        <pt x="730" y="122" on="0"/>
        <pt x="742" y="131" on="1"/>
        <pt x="774" y="157" on="0"/>
        <pt x="820" y="231" on="0"/>
        <pt x="838" y="270" on="1"/>
        <pt x="838" y="271" on="0"/>
        <pt x="841" y="281" on="0"/>
        <pt x="846" y="293" on="0"/>
        <pt x="850" y="303" on="0"/>
        <pt x="851" y="304" on="1"/>
        <pt x="853" y="307" on="0"/>
        <pt x="864" y="318" on="0"/>
        <pt x="866" y="318" on="1"/>
        <pt x="880" y="339" on="0"/>
        <pt x="885" y="393" on="0"/>
        <pt x="892" y="415" on="1"/>
        <pt x="893" y="417" on="0"/>
        <pt x="898" y="430" on="0"/>
        <pt x="905" y="446" on="0"/>
        <pt x="911" y="462" on="0"/>
        <pt x="913" y="467" on="1"/>
        <pt x="913" y="470" on="0"/>
        <pt x="913" y="477" on="0"/>
        <pt x="915" y="479" on="1"/>
        <pt x="915" y="503" on="1"/>
        <pt x="915" y="513" on="0"/>
        <pt x="913" y="530" on="0"/>
        <pt x="908" y="535" on="1"/>
        <pt x="906" y="536" on="0"/>
        <pt x="888" y="541" on="0"/>
        <pt x="885" y="541" on="1"/>
        <pt x="884" y="542" on="0"/>
        <pt x="870" y="548" on="0"/>
        <pt x="854" y="556" on="0"/>
        <pt x="839" y="562" on="0"/>
        <pt x="838" y="562" on="1"/>
        <pt x="816" y="562" on="1"/>
        <pt x="809" y="562" on="0"/>
        <pt x="783" y="559" on="0"/>
        <pt x="756" y="557" on="0"/>
        <pt x="736" y="555" on="0"/>
        <pt x="735" y="555" on="1"/>
        <pt x="733" y="554" on="0"/>
        <pt x="715" y="549" on="0"/>
        <pt x="712" y="547" on="1"/>
        <pt x="709" y="547" on="1"/>
        <pt x="695" y="547" on="0"/>
        <pt x="669" y="555" on="0"/>
        <pt x="655" y="555" on="1"/>
        <pt x="646" y="555" on="0"/>
        <pt x="619" y="547" on="0"/>
        <pt x="591" y="535" on="0"/>
        <pt x="566" y="520" on="0"/>
        <pt x="560" y="512" on="1"/>
        <pt x="557" y="510" on="0"/>
        <pt x="542" y="489" on="0"/>
        <pt x="539" y="484" on="1"/>
        <pt x="536" y="484" on="0"/>
        <pt x="531" y="477" on="1"/>
        <pt x="489" y="448" on="0"/>
        <pt x="422" y="370" on="0"/>
        <pt x="387" y="334" on="1"/>
        <pt x="302" y="249" on="1"/>
        <pt x="300" y="247" on="0"/>
        <pt x="292" y="241" on="1"/>
        <pt x="288" y="238" on="0"/>
        <pt x="283" y="235" on="1"/>
        <pt x="260" y="215" on="0"/>
        <pt x="226" y="154" on="0"/>
        <pt x="226" y="123" on="1"/>
        <pt x="226" y="111" on="1"/>
        <pt x="268" y="69" on="1"/>
        <pt x="273" y="63" on="0"/>
        <pt x="276" y="48" on="0"/>
        <pt x="276" y="42" on="1"/>
        <pt x="276" y="33" on="1"/>
        <pt x="276" y="15" on="0"/>
        <pt x="263" y="-2" on="0"/>
        <pt x="245" y="-2" on="1"/>
        <pt x="231" y="-2" on="0"/>
        <pt x="205" y="7" on="0"/>
        <pt x="191" y="7" on="1"/>
        <pt x="177" y="7" on="0"/>
        <pt x="157" y="-7" on="0"/>
        <pt x="141" y="-9" on="1"/>
        <pt x="110" y="-9" on="1"/>
        <pt x="72" y="-9" on="0"/>
        <pt x="-4" y="0" on="0"/>
        <pt x="-42" y="0" on="1"/>
        <pt x="-60" y="0" on="0"/>
        <pt x="-93" y="-16" on="0"/>
        <pt x="-111" y="-16" on="1"/>
        <pt x="-139" y="-16" on="0"/>
        <pt x="-173" y="-3" on="0"/>
        <pt x="-191" y="19" on="1"/>
        <pt x="-191" y="24" on="1"/>
        <pt x="-191" y="67" on="0"/>
        <pt x="-156" y="88" on="1"/>
        <pt x="-155" y="90" on="0"/>
        <pt x="-139" y="101" on="0"/>
        <pt x="-118" y="114" on="0"/>
        <pt x="-99" y="127" on="0"/>
        <pt x="-94" y="131" on="1"/>
        <pt x="-77" y="142" on="0"/>
        <pt x="-41" y="149" on="0"/>
        <pt x="-25" y="157" on="1"/>
        <pt x="-23" y="158" on="0"/>
        <pt x="-14" y="165" on="0"/>
        <pt x="-5" y="173" on="0"/>
        <pt x="2" y="179" on="0"/>
        <pt x="3" y="180" on="1"/>
        <pt x="5" y="181" on="0"/>
        <pt x="17" y="185" on="0"/>
        <pt x="31" y="189" on="0"/>
        <pt x="43" y="192" on="0"/>
        <pt x="44" y="192" on="1"/>
        <pt x="46" y="194" on="0"/>
        <pt x="58" y="199" on="0"/>
        <pt x="60" y="201" on="1"/>
        <pt x="85" y="218" on="0"/>
        <pt x="153" y="267" on="0"/>
        <pt x="176" y="291" on="1"/>
        <pt x="177" y="292" on="0"/>
        <pt x="184" y="301" on="0"/>
        <pt x="191" y="310" on="0"/>
        <pt x="198" y="318" on="0"/>
        <pt x="198" y="318" on="1"/>
        <pt x="212" y="330" on="0"/>
        <pt x="243" y="348" on="0"/>
        <pt x="254" y="362" on="1"/>
        <pt x="265" y="371" on="0"/>
        <pt x="279" y="411" on="0"/>
        <pt x="288" y="424" on="1"/>
        <pt x="309" y="437" on="0"/>
        <pt x="343" y="465" on="0"/>
        <pt x="372" y="494" on="0"/>
        <pt x="399" y="527" on="0"/>
        <pt x="415" y="547" on="1"/>
        <pt x="415" y="553" on="0"/>
        <pt x="422" y="555" on="1"/>
        <pt x="423" y="555" on="0"/>
        <pt x="441" y="561" on="0"/>
        <pt x="442" y="562" on="1"/>
        <pt x="462" y="574" on="0"/>
        <pt x="490" y="596" on="0"/>
        <pt x="513" y="618" on="0"/>
        <pt x="537" y="643" on="0"/>
        <pt x="553" y="659" on="1"/>
        <pt x="555" y="659" on="0"/>
        <pt x="579" y="664" on="0"/>
        <pt x="581" y="666" on="1"/>
        <pt x="581" y="667" on="0"/>
        <pt x="587" y="674" on="0"/>
        <pt x="593" y="682" on="0"/>
        <pt x="599" y="689" on="0"/>
        <pt x="600" y="689" on="1"/>
        <pt x="613" y="693" on="0"/>
        <pt x="627" y="701" on="0"/>
        <pt x="638" y="708" on="1"/>
        <pt x="638" y="708" on="0"/>
        <pt x="641" y="717" on="0"/>
        <pt x="645" y="726" on="0"/>
        <pt x="649" y="735" on="0"/>
        <pt x="650" y="735" on="1"/>
        <pt x="652" y="739" on="0"/>
        <pt x="673" y="760" on="0"/>
        <pt x="678" y="763" on="1"/>
        <pt x="681" y="766" on="0"/>
        <pt x="689" y="771" on="1"/>
        <pt x="693" y="774" on="0"/>
        <pt x="698" y="777" on="1"/>
        <pt x="721" y="799" on="0"/>
        <pt x="758" y="847" on="0"/>
        <pt x="781" y="867" on="1"/>
        <pt x="783" y="868" on="0"/>
        <pt x="787" y="871" on="0"/>
        <pt x="789" y="872" on="1"/>
        <pt x="795" y="874" on="1"/>
        <pt x="796" y="876" on="0"/>
        <pt x="807" y="887" on="0"/>
        <pt x="820" y="899" on="0"/>
        <pt x="830" y="909" on="0"/>
        <pt x="832" y="910" on="1"/>
        <pt x="836" y="914" on="0"/>
        <pt x="861" y="934" on="0"/>
        <pt x="866" y="936" on="1"/>
        <pt x="896" y="959" on="0"/>
        <pt x="955" y="1003" on="0"/>
        <pt x="984" y="1028" on="1"/>
        <pt x="986" y="1030" on="0"/>
        <pt x="1003" y="1046" on="0"/>
        <pt x="1005" y="1048" on="1"/>
        <pt x="1011" y="1062" on="1"/>
        <pt x="1016" y="1069" on="0"/>
        <pt x="1023" y="1075" on="0"/>
        <pt x="1031" y="1079" on="0"/>
        <pt x="1040" y="1084" on="0"/>
        <pt x="1046" y="1090" on="1"/>
        <pt x="1059" y="1102" on="0"/>
        <pt x="1080" y="1125" on="0"/>
        <pt x="1099" y="1149" on="0"/>
        <pt x="1121" y="1174" on="0"/>
        <pt x="1136" y="1187" on="1"/>
        <pt x="1139" y="1190" on="0"/>
        <pt x="1159" y="1205" on="0"/>
        <pt x="1184" y="1224" on="0"/>
        <pt x="1209" y="1243" on="0"/>
        <pt x="1217" y="1249" on="1"/>
        <pt x="1194" y="1250" on="0"/>
        <pt x="1139" y="1252" on="0"/>
        <pt x="1089" y="1264" on="0"/>
        <pt x="1056" y="1291" on="0"/>
        <pt x="1056" y="1317" on="1"/>
        <pt x="1056" y="1334" on="0"/>
        <pt x="1090" y="1363" on="0"/>
        <pt x="1107" y="1365" on="1"/>
        <pt x="1176" y="1365" on="1"/>
        <pt x="1178" y="1365" on="0"/>
        <pt x="1193" y="1372" on="0"/>
        <pt x="1195" y="1372" on="1"/>
        <pt x="1205" y="1372" on="1"/>
        <pt x="1217" y="1372" on="0"/>
        <pt x="1236" y="1365" on="0"/>
        <pt x="1247" y="1365" on="1"/>
        <pt x="1250" y="1365" on="1"/>
        <pt x="1254" y="1366" on="0"/>
        <pt x="1270" y="1368" on="0"/>
        <pt x="1286" y="1370" on="0"/>
        <pt x="1299" y="1372" on="0"/>
        <pt x="1300" y="1372" on="1"/>
        <pt x="1348" y="1381" on="0"/>
        <pt x="1446" y="1387" on="0"/>
        <pt x="1496" y="1387" on="1"/>
        <pt x="1518" y="1387" on="0"/>
        <pt x="1562" y="1387" on="0"/>
        <pt x="1584" y="1386" on="1"/>
        <pt x="1592" y="1391" on="0"/>
        <pt x="1603" y="1394" on="0"/>
        <pt x="1608" y="1394" on="1"/>
        <pt x="1613" y="1394" on="0"/>
        <pt x="1621" y="1393" on="0"/>
        <pt x="1627" y="1393" on="1"/>
        <pt x="1639" y="1393" on="1"/>
        <pt x="1642" y="1393" on="0"/>
        <pt x="1647" y="1396" on="1"/>
        <pt x="1653" y="1400" on="1"/>
        <pt x="1691" y="1406" on="0"/>
        <pt x="1747" y="1408" on="0"/>
        <pt x="1785" y="1408" on="1"/>
        <pt x="1791" y="1408" on="0"/>
        <pt x="1814" y="1407" on="0"/>
        <pt x="1837" y="1407" on="0"/>
        <pt x="1854" y="1406" on="0"/>
        <pt x="1856" y="1406" on="1"/>
        <pt x="1860" y="1406" on="0"/>
        <pt x="1897" y="1404" on="0"/>
        <pt x="1939" y="1402" on="0"/>
        <pt x="1975" y="1400" on="0"/>
        <pt x="1980" y="1400" on="1"/>
        <pt x="2063" y="1400" on="1"/>
        <pt x="2067" y="1400" on="0"/>
        <pt x="2093" y="1396" on="0"/>
        <pt x="2122" y="1392" on="0"/>
        <pt x="2149" y="1387" on="0"/>
        <pt x="2155" y="1386" on="1"/>
        <pt x="2165" y="1384" on="0"/>
        <pt x="2175" y="1373" on="0"/>
        <pt x="2179" y="1358" on="0"/>
        <pt x="2180" y="1339" on="0"/>
        <pt x="2183" y="1330" on="1"/>
        <pt x="2183" y="1329" on="0"/>
        <pt x="2190" y="1310" on="0"/>
        <pt x="2190" y="1308" on="1"/>
        <pt x="2190" y="1306" on="1"/>
        <pt x="2190" y="1272" on="0"/>
        <pt x="2167" y="1215" on="0"/>
        <pt x="2155" y="1185" on="1"/>
        <pt x="2151" y="1175" on="0"/>
        <pt x="2147" y="1158" on="0"/>
        <pt x="2144" y="1142" on="0"/>
        <pt x="2142" y="1124" on="0"/>
        <pt x="2139" y="1114" on="1"/>
        <pt x="2137" y="1102" on="0"/>
        <pt x="2118" y="1073" on="0"/>
        <pt x="2092" y="1048" on="0"/>
        <pt x="2062" y="1031" on="0"/>
        <pt x="2049" y="1031" on="1"/>
        <pt x="2043" y="1031" on="1"/>
        <pt x="2024" y="1043" on="0"/>
        <pt x="2007" y="1080" on="0"/>
        <pt x="2001" y="1122" on="0"/>
        <pt x="1998" y="1166" on="0"/>
        <pt x="1994" y="1185" on="1"/>
        <pt x="1993" y="1187" on="0"/>
        <pt x="1992" y="1193" on="0"/>
        <pt x="1991" y="1196" on="1"/>
        <pt x="1989" y="1204" on="1"/>
        <pt x="1987" y="1207" on="0"/>
        <pt x="1974" y="1220" on="0"/>
        <pt x="1958" y="1236" on="0"/>
        <pt x="1943" y="1250" on="0"/>
        <pt x="1939" y="1254" on="1"/>
        <pt x="1937" y="1256" on="0"/>
        <pt x="1927" y="1261" on="0"/>
        <pt x="1925" y="1261" on="1"/>
        <pt x="1863" y="1261" on="1"/>
        <pt x="1858" y="1261" on="0"/>
        <pt x="1840" y="1262" on="0"/>
        <pt x="1820" y="1264" on="0"/>
        <pt x="1803" y="1267" on="0"/>
        <pt x="1800" y="1268" on="1"/>
        <pt x="1800" y="1268" on="0"/>
        <pt x="1791" y="1272" on="0"/>
        <pt x="1782" y="1276" on="0"/>
        <pt x="1773" y="1280" on="0"/>
        <pt x="1773" y="1280" on="1"/>
        <pt x="1770" y="1282" on="0"/>
        <pt x="1740" y="1288" on="0"/>
        <pt x="1707" y="1295" on="0"/>
        <pt x="1677" y="1301" on="0"/>
        <pt x="1674" y="1303" on="1"/>
        <pt x="1652" y="1309" on="0"/>
        <pt x="1611" y="1323" on="0"/>
        <pt x="1588" y="1323" on="1"/>
        <pt x="1565" y="1323" on="0"/>
        <pt x="1535" y="1300" on="0"/>
        <pt x="1522" y="1280" on="1"/>
        <pt x="1520" y="1279" on="0"/>
        <pt x="1513" y="1266" on="0"/>
        <pt x="1504" y="1249" on="0"/>
        <pt x="1497" y="1231" on="0"/>
        <pt x="1496" y="1227" on="1"/>
        <pt x="1493" y="1225" on="0"/>
        <pt x="1489" y="1207" on="0"/>
        <pt x="1487" y="1204" on="1"/>
        <pt x="1486" y="1203" on="0"/>
        <pt x="1474" y="1191" on="0"/>
        <pt x="1459" y="1178" on="0"/>
        <pt x="1447" y="1165" on="0"/>
        <pt x="1446" y="1164" on="1"/>
        <pt x="1444" y="1161" on="0"/>
        <pt x="1443" y="1158" on="1"/>
        <pt x="1441" y="1156" on="0"/>
        <pt x="1440" y="1150" on="0"/>
        <pt x="1439" y="1149" on="1"/>
        <pt x="1438" y="1148" on="0"/>
        <pt x="1434" y="1138" on="0"/>
        <pt x="1429" y="1126" on="0"/>
        <pt x="1424" y="1115" on="0"/>
        <pt x="1423" y="1114" on="1"/>
        <pt x="1422" y="1112" on="0"/>
        <pt x="1421" y="1111" on="1"/>
        <pt x="1420" y="1109" on="0"/>
        <pt x="1418" y="1107" on="1"/>
        <pt x="1415" y="1103" on="0"/>
        <pt x="1402" y="1087" on="0"/>
        <pt x="1389" y="1069" on="0"/>
        <pt x="1378" y="1054" on="0"/>
        <pt x="1377" y="1052" on="1"/>
        <pt x="1375" y="1052" on="0"/>
        <pt x="1370" y="1040" on="0"/>
        <pt x="1370" y="1038" on="1"/>
        <pt x="1369" y="1035" on="0"/>
        <pt x="1363" y="1017" on="0"/>
        <pt x="1356" y="997" on="0"/>
        <pt x="1350" y="979" on="0"/>
        <pt x="1349" y="976" on="1"/>
        <pt x="1347" y="973" on="0"/>
        <pt x="1342" y="962" on="0"/>
        <pt x="1335" y="948" on="0"/>
        <pt x="1328" y="937" on="0"/>
        <pt x="1326" y="934" on="1"/>
        <pt x="1299" y="893" on="1"/>
        <pt x="1294" y="877" on="0"/>
        <pt x="1285" y="846" on="0"/>
        <pt x="1280" y="829" on="1"/>
        <pt x="1284" y="806" on="0"/>
        <pt x="1314" y="768" on="0"/>
        <pt x="1337" y="768" on="1"/>
        <pt x="1352" y="768" on="0"/>
        <pt x="1375" y="771" on="0"/>
        <pt x="1389" y="775" on="1"/>
        <pt x="1399" y="777" on="0"/>
        <pt x="1413" y="780" on="0"/>
        <pt x="1421" y="780" on="1"/>
        <pt x="1436" y="780" on="0"/>
        <pt x="1462" y="775" on="0"/>
        <pt x="1482" y="775" on="1"/>
        <pt x="1556" y="775" on="1"/>
        <pt x="1566" y="775" on="0"/>
        <pt x="1580" y="784" on="0"/>
        <pt x="1590" y="796" on="0"/>
        <pt x="1600" y="810" on="0"/>
        <pt x="1605" y="815" on="1"/>
        <pt x="1606" y="817" on="0"/>
        <pt x="1617" y="828" on="0"/>
        <pt x="1629" y="839" on="0"/>
        <pt x="1639" y="849" on="0"/>
        <pt x="1639" y="849" on="1"/>
        <pt x="1641" y="851" on="0"/>
        <pt x="1654" y="867" on="0"/>
        <pt x="1668" y="884" on="0"/>
        <pt x="1680" y="898" on="0"/>
        <pt x="1681" y="900" on="1"/>
        <pt x="1683" y="901" on="0"/>
        <pt x="1707" y="917" on="0"/>
        <pt x="1709" y="919" on="1"/>
        <pt x="1719" y="928" on="0"/>
        <pt x="1733" y="946" on="0"/>
        <pt x="1747" y="960" on="0"/>
        <pt x="1765" y="969" on="0"/>
        <pt x="1778" y="969" on="1"/>
        <pt x="1804" y="969" on="0"/>
        <pt x="1816" y="944" on="0"/>
        <pt x="1816" y="922" on="1"/>
        <pt x="1816" y="904" on="0"/>
        <pt x="1811" y="861" on="0"/>
        <pt x="1807" y="844" on="1"/>
        <pt x="1807" y="843" on="0"/>
        <pt x="1803" y="836" on="0"/>
        <pt x="1797" y="828" on="0"/>
        <pt x="1793" y="822" on="0"/>
        <pt x="1793" y="822" on="1"/>
        <pt x="1792" y="820" on="0"/>
        <pt x="1787" y="811" on="0"/>
        <pt x="1785" y="810" on="1"/>
        <pt x="1764" y="751" on="0"/>
        <pt x="1707" y="638" on="0"/>
        <pt x="1681" y="580" on="1"/>
        <pt x="1681" y="578" on="0"/>
        <pt x="1674" y="554" on="0"/>
        <pt x="1674" y="552" on="1"/>
        <pt x="1668" y="532" on="0"/>
        <pt x="1654" y="496" on="0"/>
        <pt x="1635" y="466" on="0"/>
        <pt x="1606" y="442" on="0"/>
        <pt x="1584" y="434" on="1"/>
        <pt x="1584" y="432" on="0"/>
        <pt x="1579" y="432" on="0"/>
        <pt x="1577" y="432" on="1"/>
        <pt x="1567" y="432" on="0"/>
        <pt x="1550" y="454" on="0"/>
        <pt x="1537" y="483" on="0"/>
        <pt x="1530" y="513" on="0"/>
        <pt x="1530" y="521" on="1"/>
        <pt x="1530" y="532" on="0"/>
        <pt x="1536" y="551" on="0"/>
        <pt x="1536" y="562" on="1"/>
        <pt x="1536" y="592" on="0"/>
        <pt x="1517" y="641" on="0"/>
        <pt x="1487" y="649" on="1"/>
        <pt x="1485" y="649" on="0"/>
        <pt x="1469" y="652" on="0"/>
        <pt x="1450" y="654" on="0"/>
        <pt x="1434" y="656" on="0"/>
        <pt x="1432" y="656" on="1"/>
        <pt x="1429" y="657" on="0"/>
        <pt x="1406" y="669" on="0"/>
        <pt x="1404" y="671" on="1"/>
        <pt x="1402" y="671" on="0"/>
        <pt x="1378" y="676" on="0"/>
        <pt x="1377" y="676" on="1"/>
        <pt x="1376" y="677" on="0"/>
        <pt x="1364" y="680" on="0"/>
        <pt x="1350" y="682" on="0"/>
        <pt x="1338" y="683" on="0"/>
        <pt x="1337" y="683" on="1"/>
        <pt x="1334" y="683" on="0"/>
        <pt x="1329" y="685" on="0"/>
        <pt x="1326" y="685" on="1"/>
        <pt x="1318" y="685" on="0"/>
        <pt x="1297" y="680" on="0"/>
        <pt x="1276" y="674" on="0"/>
        <pt x="1257" y="667" on="0"/>
        <pt x="1250" y="664" on="1"/>
        <pt x="1230" y="656" on="0"/>
        <pt x="1200" y="618" on="0"/>
        <pt x="1188" y="602" on="1"/>
        <pt x="1175" y="580" on="0"/>
        <pt x="1151" y="536" on="0"/>
        <pt x="1140" y="514" on="1"/>
        <pt x="1136" y="493" on="1"/>
        <pt x="1130" y="469" on="0"/>
        <pt x="1110" y="424" on="0"/>
        <pt x="1089" y="379" on="0"/>
        <pt x="1069" y="335" on="0"/>
        <pt x="1062" y="311" on="1"/>
        <pt x="1060" y="310" on="0"/>
        <pt x="1056" y="294" on="0"/>
        <pt x="1051" y="275" on="0"/>
        <pt x="1047" y="258" on="0"/>
        <pt x="1046" y="256" on="1"/>
        <pt x="1046" y="255" on="0"/>
        <pt x="1040" y="245" on="0"/>
        <pt x="1033" y="233" on="0"/>
        <pt x="1027" y="222" on="0"/>
        <pt x="1027" y="221" on="1"/>
        <pt x="1026" y="220" on="0"/>
        <pt x="1021" y="212" on="0"/>
        <pt x="1016" y="203" on="0"/>
        <pt x="1012" y="194" on="0"/>
        <pt x="1011" y="192" on="1"/>
        <pt x="1007" y="185" on="0"/>
        <pt x="993" y="168" on="0"/>
        <pt x="989" y="159" on="1"/>
        <pt x="991" y="151" on="0"/>
        <pt x="995" y="139" on="0"/>
        <pt x="999" y="135" on="1"/>
        <pt x="1002" y="133" on="0"/>
        <pt x="1013" y="126" on="0"/>
        <pt x="1025" y="119" on="0"/>
        <pt x="1035" y="114" on="0"/>
        <pt x="1037" y="114" on="1"/>
        <pt x="1091" y="114" on="1"/>
        <pt x="1098" y="113" on="0"/>
        <pt x="1134" y="110" on="0"/>
        <pt x="1173" y="106" on="0"/>
        <pt x="1209" y="101" on="0"/>
        <pt x="1216" y="100" on="1"/>
        <pt x="1218" y="100" on="0"/>
        <pt x="1236" y="93" on="0"/>
        <pt x="1238" y="93" on="1"/>
        <pt x="1241" y="93" on="0"/>
        <pt x="1259" y="90" on="0"/>
        <pt x="1278" y="88" on="0"/>
        <pt x="1296" y="86" on="0"/>
        <pt x="1300" y="86" on="1"/>
        <pt x="1363" y="86" on="1"/>
        <pt x="1365" y="86" on="0"/>
        <pt x="1381" y="80" on="0"/>
        <pt x="1383" y="80" on="1"/>
        <pt x="1411" y="80" on="1"/>
        <pt x="1412" y="79" on="0"/>
        <pt x="1427" y="78" on="0"/>
        <pt x="1446" y="78" on="0"/>
        <pt x="1467" y="78" on="0"/>
        <pt x="1473" y="78" on="1"/>
        <pt x="1476" y="78" on="0"/>
        <pt x="1494" y="78" on="0"/>
        <pt x="1515" y="78" on="0"/>
        <pt x="1533" y="79" on="0"/>
        <pt x="1536" y="80" on="1"/>
        <pt x="1567" y="82" on="0"/>
        <pt x="1639" y="88" on="0"/>
        <pt x="1669" y="93" on="1"/>
        <pt x="1692" y="98" on="0"/>
        <pt x="1722" y="122" on="0"/>
        <pt x="1742" y="135" on="1"/>
        <pt x="1760" y="146" on="0"/>
        <pt x="1782" y="162" on="0"/>
        <pt x="1800" y="178" on="1"/>
        <pt x="1803" y="179" on="0"/>
        <pt x="1818" y="189" on="0"/>
        <pt x="1835" y="199" on="0"/>
        <pt x="1851" y="208" on="0"/>
        <pt x="1854" y="209" on="1"/>
        <pt x="1873" y="221" on="0"/>
        <pt x="1893" y="235" on="0"/>
        <pt x="1911" y="249" on="1"/>
        <pt x="1912" y="250" on="0"/>
        <pt x="1918" y="256" on="0"/>
        <pt x="1925" y="264" on="0"/>
        <pt x="1931" y="270" on="0"/>
        <pt x="1932" y="270" on="1"/>
        <pt x="1942" y="278" on="0"/>
        <pt x="1956" y="296" on="0"/>
        <pt x="1967" y="313" on="0"/>
        <pt x="1977" y="329" on="0"/>
        <pt x="1984" y="336" on="1"/>
        <pt x="1989" y="341" on="0"/>
        <pt x="2002" y="344" on="0"/>
        <pt x="2011" y="344" on="1"/>
        <pt x="2018" y="344" on="0"/>
        <pt x="2027" y="335" on="0"/>
        <pt x="2033" y="322" on="0"/>
        <pt x="2036" y="308" on="0"/>
        <pt x="2036" y="303" on="1"/>
        <pt x="2036" y="300" on="0"/>
        <pt x="2035" y="286" on="0"/>
        <pt x="2033" y="270" on="0"/>
        <pt x="2030" y="256" on="0"/>
        <pt x="2029" y="253" on="1"/>
        <pt x="2027" y="242" on="0"/>
        <pt x="2020" y="212" on="0"/>
        <pt x="2010" y="182" on="0"/>
        <pt x="1999" y="154" on="0"/>
        <pt x="1994" y="144" on="1"/>
        <pt x="1992" y="139" on="0"/>
        <pt x="1975" y="117" on="0"/>
        <pt x="1973" y="114" on="1"/>
        <pt x="1973" y="112" on="0"/>
        <pt x="1965" y="96" on="0"/>
        <pt x="1956" y="78" on="0"/>
        <pt x="1947" y="62" on="0"/>
        <pt x="1946" y="59" on="1"/>
        <pt x="1936" y="40" on="0"/>
        <pt x="1901" y="14" on="0"/>
        <pt x="1859" y="-3" on="0"/>
        <pt x="1813" y="-10" on="0"/>
        <pt x="1793" y="-10" on="1"/>
        <pt x="1766" y="-10" on="1"/>
        <pt x="1764" y="-10" on="0"/>
        <pt x="1740" y="-3" on="0"/>
        <pt x="1738" y="-3" on="1"/>
        <pt x="1733" y="-3" on="0"/>
        <pt x="1712" y="-2" on="0"/>
        <pt x="1700" y="-2" on="1"/>
        <pt x="1688" y="-2" on="0"/>
        <pt x="1666" y="-3" on="0"/>
        <pt x="1662" y="-3" on="1"/>
        <pt x="1655" y="1" on="0"/>
        <pt x="1646" y="5" on="0"/>
        <pt x="1639" y="5" on="1"/>
        <pt x="1631" y="5" on="0"/>
        <pt x="1623" y="1" on="0"/>
        <pt x="1612" y="-3" on="1"/>
        <pt x="1508" y="-3" on="1"/>
        <pt x="1506" y="-3" on="0"/>
        <pt x="1482" y="2" on="0"/>
        <pt x="1480" y="2" on="1"/>
        <pt x="1479" y="3" on="1"/>
        <pt x="1477" y="5" on="0"/>
        <pt x="1475" y="5" on="1"/>
        <pt x="1467" y="5" on="0"/>
        <pt x="1451" y="-3" on="0"/>
        <pt x="1441" y="-3" on="1"/>
        <pt x="1342" y="-3" on="1"/>
        <pt x="1338" y="-3" on="0"/>
        <pt x="1318" y="-4" on="0"/>
        <pt x="1294" y="-6" on="0"/>
        <pt x="1272" y="-7" on="0"/>
        <pt x="1268" y="-7" on="1"/>
        <pt x="1261" y="-7" on="0"/>
        <pt x="1238" y="-6" on="0"/>
        <pt x="1214" y="-4" on="0"/>
        <pt x="1196" y="-3" on="0"/>
        <pt x="1195" y="-3" on="1"/>
        <pt x="1183" y="-3" on="1"/>
        <pt x="1171" y="-3" on="0"/>
        <pt x="1135" y="-4" on="0"/>
        <pt x="1099" y="-6" on="0"/>
        <pt x="1069" y="-7" on="0"/>
        <pt x="1063" y="-7" on="1"/>
        <pt x="973" y="-7" on="1"/>
        <pt x="969" y="-7" on="0"/>
        <pt x="950" y="-5" on="0"/>
        <pt x="939" y="-3" on="1"/>
        <pt x="921" y="-5" on="0"/>
        <pt x="884" y="-7" on="0"/>
        <pt x="873" y="-9" on="1"/>
        <pt x="858" y="-9" on="1"/>
        <pt x="854" y="-5" on="0"/>
        <pt x="847" y="-5" on="1"/>
        <pt x="833" y="-5" on="0"/>
        <pt x="803" y="-3" on="0"/>
        <pt x="799" y="-3" on="1"/>
        <pt x="797" y="-3" on="0"/>
        <pt x="781" y="-7" on="0"/>
        <pt x="780" y="-9" on="1"/>
        <pt x="761" y="-11" on="0"/>
        <pt x="727" y="-12" on="0"/>
        <pt x="709" y="-12" on="1"/>
        <pt x="681" y="-12" on="0"/>
        <pt x="627" y="-10" on="0"/>
        <pt x="601" y="-10" on="1"/>
        <pt x="541" y="-10" on="1"/>
        <pt x="520" y="-2" on="0"/>
        <pt x="503" y="38" on="0"/>
        <pt x="494" y="59" on="1"/>
      </contour>
    </TTGlyph>
    <TTGlyph name="AE.swash" xMin="68" yMin="-142" xMax="2993" yMax="1431">
      <contour>
        <pt x="1883" y="751" on="1"/>
        <pt x="1887" y="750" on="0"/>
        <pt x="1908" y="746" on="0"/>
        <pt x="1933" y="742" on="0"/>
        <pt x="1955" y="739" on="0"/>
        <pt x="1960" y="739" on="1"/>
        <pt x="1966" y="738" on="0"/>
        <pt x="1972" y="737" on="1"/>
        <pt x="1977" y="736" on="0"/>
        <pt x="1987" y="735" on="0"/>
        <pt x="1990" y="735" on="1"/>
        <pt x="2015" y="735" on="0"/>
        <pt x="2048" y="745" on="0"/>
        <pt x="2072" y="764" on="0"/>
        <pt x="2089" y="793" on="0"/>
        <pt x="2099" y="813" on="1"/>
        <pt x="2112" y="843" on="0"/>
        <pt x="2141" y="901" on="0"/>
        <pt x="2152" y="932" on="1"/>
        <pt x="2154" y="934" on="0"/>
        <pt x="2159" y="957" on="0"/>
        <pt x="2159" y="958" on="1"/>
        <pt x="2160" y="961" on="0"/>
        <pt x="2171" y="982" on="0"/>
        <pt x="2182" y="1005" on="0"/>
        <pt x="2192" y="1025" on="0"/>
        <pt x="2194" y="1028" on="1"/>
        <pt x="2196" y="1029" on="0"/>
        <pt x="2196" y="1049" on="0"/>
        <pt x="2196" y="1054" on="1"/>
        <pt x="2196" y="1077" on="0"/>
        <pt x="2188" y="1105" on="0"/>
        <pt x="2163" y="1105" on="1"/>
        <pt x="2143" y="1105" on="0"/>
        <pt x="2114" y="1089" on="0"/>
        <pt x="2091" y="1065" on="0"/>
        <pt x="2073" y="1035" on="0"/>
        <pt x="2064" y="1021" on="1"/>
        <pt x="2062" y="1021" on="0"/>
        <pt x="2057" y="1017" on="0"/>
        <pt x="2056" y="1016" on="1"/>
        <pt x="2030" y="993" on="0"/>
        <pt x="1970" y="960" on="0"/>
        <pt x="1945" y="939" on="1"/>
        <pt x="1940" y="934" on="0"/>
        <pt x="1914" y="909" on="0"/>
        <pt x="1884" y="880" on="0"/>
        <pt x="1858" y="854" on="0"/>
        <pt x="1853" y="848" on="1"/>
        <pt x="1845" y="837" on="0"/>
        <pt x="1841" y="823" on="0"/>
        <pt x="1841" y="811" on="1"/>
        <pt x="1841" y="791" on="0"/>
        <pt x="1869" y="764" on="0"/>
      </contour>
      <contour>
        <pt x="68" y="445" on="1"/>
        <pt x="68" y="486" on="0"/>
        <pt x="84" y="569" on="0"/>
        <pt x="115" y="647" on="0"/>
        <pt x="162" y="717" on="0"/>
        <pt x="192" y="744" on="1"/>
        <pt x="197" y="748" on="0"/>
        <pt x="232" y="760" on="0"/>
        <pt x="271" y="771" on="0"/>
        <pt x="307" y="778" on="0"/>
        <pt x="313" y="778" on="1"/>
        <pt x="331" y="778" on="1"/>
        <pt x="338" y="777" on="0"/>
        <pt x="361" y="769" on="0"/>
        <pt x="385" y="759" on="0"/>
        <pt x="407" y="748" on="0"/>
        <pt x="414" y="744" on="1"/>
        <pt x="439" y="728" on="0"/>
        <pt x="448" y="680" on="0"/>
        <pt x="448" y="652" on="1"/>
        <pt x="448" y="647" on="1"/>
        <pt x="434" y="608" on="0"/>
        <pt x="395" y="564" on="0"/>
        <pt x="360" y="543" on="1"/>
        <pt x="356" y="541" on="0"/>
        <pt x="346" y="536" on="0"/>
        <pt x="345" y="536" on="1"/>
        <pt x="343" y="536" on="0"/>
        <pt x="330" y="534" on="0"/>
        <pt x="317" y="532" on="0"/>
        <pt x="305" y="531" on="0"/>
        <pt x="303" y="531" on="1"/>
        <pt x="286" y="526" on="0"/>
        <pt x="252" y="494" on="0"/>
        <pt x="224" y="454" on="0"/>
        <pt x="203" y="413" on="0"/>
        <pt x="199" y="398" on="1"/>
        <pt x="199" y="391" on="1"/>
        <pt x="199" y="370" on="1"/>
        <pt x="199" y="369" on="0"/>
        <pt x="197" y="359" on="0"/>
        <pt x="194" y="348" on="0"/>
        <pt x="192" y="338" on="0"/>
        <pt x="192" y="336" on="1"/>
        <pt x="192" y="334" on="0"/>
        <pt x="191" y="319" on="0"/>
        <pt x="191" y="317" on="1"/>
        <pt x="191" y="297" on="0"/>
        <pt x="210" y="270" on="0"/>
        <pt x="218" y="254" on="1"/>
        <pt x="219" y="252" on="0"/>
        <pt x="224" y="241" on="0"/>
        <pt x="229" y="230" on="0"/>
        <pt x="233" y="220" on="0"/>
        <pt x="234" y="220" on="1"/>
        <pt x="236" y="217" on="0"/>
        <pt x="250" y="201" on="0"/>
        <pt x="266" y="182" on="0"/>
        <pt x="280" y="166" on="0"/>
        <pt x="282" y="163" on="1"/>
        <pt x="284" y="161" on="0"/>
        <pt x="294" y="144" on="0"/>
        <pt x="296" y="142" on="1"/>
        <pt x="303" y="131" on="0"/>
        <pt x="326" y="126" on="0"/>
        <pt x="338" y="121" on="1"/>
        <pt x="357" y="113" on="0"/>
        <pt x="408" y="89" on="0"/>
        <pt x="461" y="67" on="0"/>
        <pt x="514" y="52" on="0"/>
        <pt x="535" y="52" on="1"/>
        <pt x="538" y="52" on="1"/>
        <pt x="540" y="52" on="0"/>
        <pt x="553" y="54" on="0"/>
        <pt x="567" y="57" on="0"/>
        <pt x="578" y="59" on="0"/>
        <pt x="580" y="59" on="1"/>
        <pt x="583" y="59" on="0"/>
        <pt x="610" y="61" on="0"/>
        <pt x="641" y="64" on="0"/>
        <pt x="669" y="66" on="0"/>
        <pt x="672" y="66" on="1"/>
        <pt x="674" y="66" on="0"/>
        <pt x="701" y="73" on="0"/>
        <pt x="706" y="73" on="1"/>
        <pt x="709" y="74" on="0"/>
        <pt x="712" y="76" on="1"/>
        <pt x="717" y="79" on="0"/>
        <pt x="718" y="81" on="1"/>
        <pt x="722" y="81" on="0"/>
        <pt x="743" y="85" on="0"/>
        <pt x="746" y="86" on="1"/>
        <pt x="797" y="97" on="0"/>
        <pt x="887" y="135" on="0"/>
        <pt x="933" y="156" on="1"/>
        <pt x="934" y="156" on="0"/>
        <pt x="951" y="161" on="0"/>
        <pt x="954" y="163" on="1"/>
        <pt x="956" y="163" on="0"/>
        <pt x="980" y="168" on="0"/>
        <pt x="983" y="170" on="1"/>
        <pt x="984" y="170" on="0"/>
        <pt x="994" y="181" on="0"/>
        <pt x="1005" y="193" on="0"/>
        <pt x="1016" y="203" on="0"/>
        <pt x="1018" y="204" on="1"/>
        <pt x="1019" y="206" on="0"/>
        <pt x="1041" y="217" on="0"/>
        <pt x="1045" y="220" on="1"/>
        <pt x="1083" y="240" on="0"/>
        <pt x="1150" y="301" on="0"/>
        <pt x="1184" y="329" on="1"/>
        <pt x="1184" y="330" on="0"/>
        <pt x="1191" y="336" on="0"/>
        <pt x="1200" y="342" on="0"/>
        <pt x="1208" y="348" on="0"/>
        <pt x="1211" y="349" on="1"/>
        <pt x="1244" y="373" on="0"/>
        <pt x="1302" y="433" on="0"/>
        <pt x="1334" y="462" on="1"/>
        <pt x="1337" y="462" on="0"/>
        <pt x="1352" y="472" on="0"/>
        <pt x="1357" y="474" on="1"/>
        <pt x="1369" y="481" on="1"/>
        <pt x="1430" y="535" on="0"/>
        <pt x="1542" y="648" on="0"/>
        <pt x="1599" y="704" on="1"/>
        <pt x="1602" y="705" on="0"/>
        <pt x="1620" y="721" on="0"/>
        <pt x="1640" y="740" on="0"/>
        <pt x="1658" y="756" on="0"/>
        <pt x="1661" y="758" on="1"/>
        <pt x="1664" y="761" on="0"/>
        <pt x="1672" y="769" on="0"/>
        <pt x="1681" y="778" on="0"/>
        <pt x="1688" y="785" on="0"/>
        <pt x="1689" y="785" on="1"/>
        <pt x="1690" y="787" on="0"/>
        <pt x="1700" y="802" on="0"/>
        <pt x="1712" y="819" on="0"/>
        <pt x="1722" y="834" on="0"/>
        <pt x="1723" y="836" on="1"/>
        <pt x="1729" y="842" on="0"/>
        <pt x="1763" y="875" on="0"/>
        <pt x="1801" y="912" on="0"/>
        <pt x="1835" y="945" on="0"/>
        <pt x="1841" y="951" on="1"/>
        <pt x="1857" y="957" on="0"/>
        <pt x="1880" y="985" on="0"/>
        <pt x="1898" y="1018" on="0"/>
        <pt x="1914" y="1051" on="0"/>
        <pt x="1922" y="1062" on="1"/>
        <pt x="1925" y="1066" on="0"/>
        <pt x="1942" y="1083" on="0"/>
        <pt x="1960" y="1101" on="0"/>
        <pt x="1976" y="1116" on="0"/>
        <pt x="1979" y="1119" on="1"/>
        <pt x="1992" y="1121" on="0"/>
        <pt x="2015" y="1133" on="0"/>
        <pt x="2036" y="1148" on="0"/>
        <pt x="2057" y="1162" on="0"/>
        <pt x="2069" y="1166" on="1"/>
        <pt x="2168" y="1263" on="1"/>
        <pt x="2170" y="1265" on="0"/>
        <pt x="2178" y="1270" on="0"/>
        <pt x="2180" y="1270" on="1"/>
        <pt x="2183" y="1273" on="0"/>
        <pt x="2203" y="1290" on="0"/>
        <pt x="2226" y="1309" on="0"/>
        <pt x="2246" y="1325" on="0"/>
        <pt x="2249" y="1327" on="1"/>
        <pt x="2251" y="1328" on="0"/>
        <pt x="2262" y="1333" on="0"/>
        <pt x="2276" y="1340" on="0"/>
        <pt x="2288" y="1346" on="0"/>
        <pt x="2291" y="1348" on="1"/>
        <pt x="2293" y="1348" on="0"/>
        <pt x="2317" y="1353" on="0"/>
        <pt x="2318" y="1355" on="1"/>
        <pt x="2320" y="1355" on="0"/>
        <pt x="2344" y="1367" on="0"/>
        <pt x="2346" y="1367" on="1"/>
        <pt x="2351" y="1370" on="0"/>
        <pt x="2367" y="1377" on="0"/>
        <pt x="2383" y="1384" on="0"/>
        <pt x="2394" y="1389" on="0"/>
        <pt x="2395" y="1389" on="1"/>
        <pt x="2398" y="1390" on="0"/>
        <pt x="2418" y="1394" on="0"/>
        <pt x="2441" y="1398" on="0"/>
        <pt x="2461" y="1401" on="0"/>
        <pt x="2464" y="1401" on="1"/>
        <pt x="2465" y="1402" on="0"/>
        <pt x="2474" y="1405" on="0"/>
        <pt x="2483" y="1407" on="0"/>
        <pt x="2491" y="1409" on="0"/>
        <pt x="2491" y="1410" on="1"/>
        <pt x="2576" y="1410" on="1"/>
        <pt x="2611" y="1410" on="1"/>
        <pt x="2620" y="1410" on="0"/>
        <pt x="2644" y="1415" on="0"/>
        <pt x="2668" y="1421" on="0"/>
        <pt x="2691" y="1428" on="0"/>
        <pt x="2699" y="1431" on="1"/>
        <pt x="2860" y="1431" on="1"/>
        <pt x="2882" y="1431" on="0"/>
        <pt x="2932" y="1403" on="0"/>
        <pt x="2950" y="1389" on="1"/>
        <pt x="2953" y="1386" on="0"/>
        <pt x="2961" y="1378" on="0"/>
        <pt x="2970" y="1369" on="0"/>
        <pt x="2976" y="1362" on="0"/>
        <pt x="2976" y="1362" on="1"/>
        <pt x="2976" y="1346" on="1"/>
        <pt x="2976" y="1304" on="1"/>
        <pt x="2978" y="1303" on="0"/>
        <pt x="2991" y="1287" on="0"/>
        <pt x="2991" y="1285" on="1"/>
        <pt x="2993" y="1259" on="0"/>
        <pt x="2968" y="1200" on="0"/>
        <pt x="2950" y="1182" on="1"/>
        <pt x="2943" y="1175" on="0"/>
        <pt x="2915" y="1173" on="0"/>
        <pt x="2907" y="1173" on="1"/>
        <pt x="2872" y="1173" on="0"/>
        <pt x="2832" y="1217" on="0"/>
        <pt x="2812" y="1244" on="1"/>
        <pt x="2805" y="1251" on="0"/>
        <pt x="2784" y="1269" on="0"/>
        <pt x="2759" y="1286" on="0"/>
        <pt x="2733" y="1297" on="0"/>
        <pt x="2722" y="1297" on="1"/>
        <pt x="2568" y="1297" on="1"/>
        <pt x="2555" y="1297" on="0"/>
        <pt x="2521" y="1284" on="0"/>
        <pt x="2487" y="1264" on="0"/>
        <pt x="2458" y="1240" on="0"/>
        <pt x="2450" y="1228" on="1"/>
        <pt x="2449" y="1228" on="0"/>
        <pt x="2445" y="1218" on="0"/>
        <pt x="2441" y="1207" on="0"/>
        <pt x="2438" y="1196" on="0"/>
        <pt x="2438" y="1194" on="1"/>
        <pt x="2436" y="1192" on="0"/>
        <pt x="2427" y="1178" on="0"/>
        <pt x="2418" y="1162" on="0"/>
        <pt x="2411" y="1148" on="0"/>
        <pt x="2410" y="1147" on="1"/>
        <pt x="2374" y="1081" on="0"/>
        <pt x="2339" y="950" on="0"/>
        <pt x="2325" y="877" on="1"/>
        <pt x="2325" y="875" on="0"/>
        <pt x="2320" y="853" on="0"/>
        <pt x="2318" y="848" on="1"/>
        <pt x="2318" y="846" on="0"/>
        <pt x="2312" y="829" on="0"/>
        <pt x="2312" y="827" on="1"/>
        <pt x="2312" y="825" on="1"/>
        <pt x="2312" y="800" on="0"/>
        <pt x="2336" y="770" on="0"/>
        <pt x="2373" y="755" on="0"/>
        <pt x="2419" y="751" on="0"/>
        <pt x="2441" y="751" on="1"/>
        <pt x="2485" y="751" on="1"/>
        <pt x="2520" y="751" on="0"/>
        <pt x="2586" y="756" on="0"/>
        <pt x="2618" y="773" on="1"/>
        <pt x="2634" y="781" on="0"/>
        <pt x="2659" y="812" on="0"/>
        <pt x="2680" y="851" on="0"/>
        <pt x="2699" y="891" on="0"/>
        <pt x="2719" y="925" on="0"/>
        <pt x="2742" y="946" on="0"/>
        <pt x="2758" y="946" on="1"/>
        <pt x="2784" y="946" on="0"/>
        <pt x="2805" y="917" on="0"/>
        <pt x="2812" y="896" on="1"/>
        <pt x="2810" y="890" on="0"/>
        <pt x="2802" y="856" on="0"/>
        <pt x="2793" y="819" on="0"/>
        <pt x="2785" y="785" on="0"/>
        <pt x="2784" y="778" on="1"/>
        <pt x="2783" y="777" on="0"/>
        <pt x="2779" y="765" on="0"/>
        <pt x="2773" y="752" on="0"/>
        <pt x="2769" y="740" on="0"/>
        <pt x="2768" y="739" on="1"/>
        <pt x="2768" y="737" on="0"/>
        <pt x="2766" y="726" on="0"/>
        <pt x="2763" y="714" on="0"/>
        <pt x="2761" y="705" on="0"/>
        <pt x="2761" y="704" on="1"/>
        <pt x="2757" y="678" on="0"/>
        <pt x="2733" y="631" on="0"/>
        <pt x="2727" y="605" on="1"/>
        <pt x="2727" y="604" on="0"/>
        <pt x="2725" y="590" on="0"/>
        <pt x="2724" y="574" on="0"/>
        <pt x="2722" y="560" on="0"/>
        <pt x="2722" y="559" on="1"/>
        <pt x="2720" y="555" on="0"/>
        <pt x="2716" y="540" on="0"/>
        <pt x="2711" y="525" on="0"/>
        <pt x="2707" y="512" on="0"/>
        <pt x="2706" y="509" on="1"/>
        <pt x="2706" y="507" on="0"/>
        <pt x="2695" y="491" on="0"/>
        <pt x="2692" y="490" on="1"/>
        <pt x="2691" y="488" on="0"/>
        <pt x="2687" y="475" on="0"/>
        <pt x="2683" y="460" on="0"/>
        <pt x="2680" y="447" on="0"/>
        <pt x="2680" y="446" on="1"/>
        <pt x="2678" y="445" on="0"/>
        <pt x="2673" y="432" on="0"/>
        <pt x="2671" y="432" on="1"/>
        <pt x="2667" y="430" on="0"/>
        <pt x="2637" y="414" on="0"/>
        <pt x="2630" y="412" on="1"/>
        <pt x="2623" y="412" on="1"/>
        <pt x="2609" y="412" on="0"/>
        <pt x="2596" y="450" on="0"/>
        <pt x="2588" y="500" on="0"/>
        <pt x="2582" y="548" on="0"/>
        <pt x="2576" y="559" on="1"/>
        <pt x="2561" y="585" on="0"/>
        <pt x="2519" y="615" on="0"/>
        <pt x="2471" y="631" on="0"/>
        <pt x="2417" y="635" on="0"/>
        <pt x="2389" y="635" on="1"/>
        <pt x="2329" y="635" on="1"/>
        <pt x="2272" y="635" on="1"/>
        <pt x="2250" y="633" on="0"/>
        <pt x="2213" y="586" on="0"/>
        <pt x="2184" y="526" on="0"/>
        <pt x="2164" y="467" on="0"/>
        <pt x="2159" y="453" on="1"/>
        <pt x="2159" y="452" on="0"/>
        <pt x="2154" y="439" on="0"/>
        <pt x="2148" y="424" on="0"/>
        <pt x="2141" y="409" on="0"/>
        <pt x="2139" y="405" on="1"/>
        <pt x="2138" y="404" on="0"/>
        <pt x="2134" y="396" on="0"/>
        <pt x="2129" y="387" on="0"/>
        <pt x="2125" y="378" on="0"/>
        <pt x="2125" y="377" on="1"/>
        <pt x="2125" y="376" on="0"/>
        <pt x="2123" y="366" on="0"/>
        <pt x="2121" y="354" on="0"/>
        <pt x="2119" y="344" on="0"/>
        <pt x="2118" y="343" on="1"/>
        <pt x="2117" y="340" on="0"/>
        <pt x="2107" y="320" on="0"/>
        <pt x="2094" y="297" on="0"/>
        <pt x="2084" y="276" on="0"/>
        <pt x="2083" y="273" on="1"/>
        <pt x="2083" y="273" on="0"/>
        <pt x="2081" y="263" on="0"/>
        <pt x="2078" y="249" on="0"/>
        <pt x="2076" y="236" on="0"/>
        <pt x="2076" y="232" on="1"/>
        <pt x="2076" y="221" on="1"/>
        <pt x="2076" y="195" on="0"/>
        <pt x="2105" y="159" on="0"/>
        <pt x="2149" y="137" on="0"/>
        <pt x="2200" y="128" on="0"/>
        <pt x="2222" y="128" on="1"/>
        <pt x="2251" y="128" on="0"/>
        <pt x="2309" y="142" on="0"/>
        <pt x="2341" y="142" on="1"/>
        <pt x="2342" y="142" on="0"/>
        <pt x="2359" y="143" on="0"/>
        <pt x="2382" y="143" on="0"/>
        <pt x="2406" y="144" on="0"/>
        <pt x="2412" y="144" on="1"/>
        <pt x="2416" y="144" on="0"/>
        <pt x="2436" y="143" on="0"/>
        <pt x="2460" y="143" on="0"/>
        <pt x="2481" y="142" on="0"/>
        <pt x="2485" y="142" on="1"/>
        <pt x="2493" y="137" on="0"/>
        <pt x="2506" y="135" on="0"/>
        <pt x="2514" y="135" on="1"/>
        <pt x="2526" y="135" on="1"/>
        <pt x="2549" y="135" on="0"/>
        <pt x="2596" y="147" on="0"/>
        <pt x="2643" y="163" on="0"/>
        <pt x="2686" y="182" on="0"/>
        <pt x="2706" y="190" on="1"/>
        <pt x="2729" y="199" on="0"/>
        <pt x="2764" y="232" on="0"/>
        <pt x="2795" y="270" on="0"/>
        <pt x="2826" y="309" on="0"/>
        <pt x="2846" y="324" on="1"/>
        <pt x="2847" y="324" on="0"/>
        <pt x="2858" y="331" on="0"/>
        <pt x="2871" y="339" on="0"/>
        <pt x="2885" y="347" on="0"/>
        <pt x="2888" y="349" on="1"/>
        <pt x="2896" y="356" on="0"/>
        <pt x="2915" y="372" on="0"/>
        <pt x="2924" y="372" on="1"/>
        <pt x="2936" y="372" on="0"/>
        <pt x="2954" y="356" on="0"/>
        <pt x="2964" y="334" on="0"/>
        <pt x="2969" y="308" on="0"/>
        <pt x="2969" y="299" on="1"/>
        <pt x="2969" y="279" on="0"/>
        <pt x="2959" y="250" on="0"/>
        <pt x="2957" y="232" on="1"/>
        <pt x="2952" y="210" on="0"/>
        <pt x="2944" y="154" on="0"/>
        <pt x="2931" y="100" on="0"/>
        <pt x="2909" y="52" on="0"/>
        <pt x="2888" y="38" on="1"/>
        <pt x="2868" y="25" on="0"/>
        <pt x="2821" y="12" on="0"/>
        <pt x="2803" y="-3" on="1"/>
        <pt x="2645" y="-3" on="1"/>
        <pt x="2635" y="2" on="0"/>
        <pt x="2605" y="5" on="0"/>
        <pt x="2592" y="5" on="1"/>
        <pt x="2576" y="5" on="1"/>
        <pt x="2531" y="5" on="0"/>
        <pt x="2442" y="-3" on="0"/>
        <pt x="2396" y="-3" on="1"/>
        <pt x="2306" y="-3" on="1"/>
        <pt x="2303" y="-3" on="0"/>
        <pt x="2287" y="-1" on="0"/>
        <pt x="2268" y="1" on="0"/>
        <pt x="2252" y="3" on="0"/>
        <pt x="2249" y="3" on="1"/>
        <pt x="2223" y="3" on="1"/>
        <pt x="2203" y="3" on="1"/>
        <pt x="2198" y="3" on="0"/>
        <pt x="2176" y="-3" on="0"/>
        <pt x="2173" y="-3" on="1"/>
        <pt x="2171" y="-3" on="0"/>
        <pt x="2153" y="-5" on="0"/>
        <pt x="2132" y="-8" on="0"/>
        <pt x="2114" y="-10" on="0"/>
        <pt x="2111" y="-10" on="1"/>
        <pt x="2084" y="-13" on="0"/>
        <pt x="2034" y="-31" on="0"/>
        <pt x="2007" y="-31" on="1"/>
        <pt x="1668" y="-31" on="1"/>
        <pt x="1658" y="-31" on="0"/>
        <pt x="1634" y="-22" on="0"/>
        <pt x="1613" y="-7" on="0"/>
        <pt x="1599" y="12" on="0"/>
        <pt x="1599" y="22" on="1"/>
        <pt x="1599" y="52" on="0"/>
        <pt x="1633" y="86" on="0"/>
        <pt x="1683" y="105" on="0"/>
        <pt x="1737" y="115" on="0"/>
        <pt x="1758" y="121" on="1"/>
        <pt x="1790" y="132" on="0"/>
        <pt x="1830" y="166" on="0"/>
        <pt x="1848" y="197" on="1"/>
        <pt x="1849" y="200" on="0"/>
        <pt x="1855" y="211" on="0"/>
        <pt x="1862" y="225" on="0"/>
        <pt x="1868" y="236" on="0"/>
        <pt x="1869" y="239" on="1"/>
        <pt x="1869" y="240" on="0"/>
        <pt x="1873" y="252" on="0"/>
        <pt x="1877" y="267" on="0"/>
        <pt x="1881" y="279" on="0"/>
        <pt x="1883" y="280" on="1"/>
        <pt x="1884" y="283" on="0"/>
        <pt x="1890" y="296" on="0"/>
        <pt x="1896" y="309" on="0"/>
        <pt x="1902" y="321" on="0"/>
        <pt x="1903" y="324" on="1"/>
        <pt x="1904" y="324" on="0"/>
        <pt x="1910" y="331" on="0"/>
        <pt x="1917" y="340" on="0"/>
        <pt x="1922" y="348" on="0"/>
        <pt x="1922" y="349" on="1"/>
        <pt x="1945" y="384" on="0"/>
        <pt x="1968" y="463" on="0"/>
        <pt x="1979" y="502" on="1"/>
        <pt x="1979" y="505" on="0"/>
        <pt x="1982" y="510" on="1"/>
        <pt x="1986" y="516" on="1"/>
        <pt x="1987" y="518" on="0"/>
        <pt x="1991" y="533" on="0"/>
        <pt x="1995" y="551" on="0"/>
        <pt x="1999" y="567" on="0"/>
        <pt x="2000" y="571" on="1"/>
        <pt x="2000" y="576" on="1"/>
        <pt x="2000" y="585" on="0"/>
        <pt x="1988" y="602" on="0"/>
        <pt x="1971" y="615" on="0"/>
        <pt x="1952" y="625" on="0"/>
        <pt x="1945" y="628" on="1"/>
        <pt x="1907" y="633" on="0"/>
        <pt x="1830" y="640" on="0"/>
        <pt x="1791" y="640" on="1"/>
        <pt x="1765" y="640" on="0"/>
        <pt x="1719" y="623" on="0"/>
        <pt x="1679" y="596" on="0"/>
        <pt x="1642" y="561" on="0"/>
        <pt x="1626" y="543" on="1"/>
        <pt x="1626" y="542" on="0"/>
        <pt x="1620" y="534" on="0"/>
        <pt x="1612" y="524" on="0"/>
        <pt x="1606" y="516" on="0"/>
        <pt x="1606" y="516" on="1"/>
        <pt x="1603" y="514" on="0"/>
        <pt x="1579" y="504" on="0"/>
        <pt x="1576" y="502" on="1"/>
        <pt x="1562" y="491" on="0"/>
        <pt x="1539" y="458" on="0"/>
        <pt x="1537" y="439" on="1"/>
        <pt x="1534" y="436" on="0"/>
        <pt x="1515" y="419" on="0"/>
        <pt x="1494" y="399" on="0"/>
        <pt x="1476" y="381" on="0"/>
        <pt x="1473" y="377" on="1"/>
        <pt x="1471" y="374" on="0"/>
        <pt x="1449" y="348" on="0"/>
        <pt x="1424" y="318" on="0"/>
        <pt x="1401" y="292" on="0"/>
        <pt x="1398" y="289" on="1"/>
        <pt x="1385" y="273" on="0"/>
        <pt x="1370" y="238" on="0"/>
        <pt x="1357" y="225" on="1"/>
        <pt x="1355" y="223" on="0"/>
        <pt x="1337" y="213" on="0"/>
        <pt x="1334" y="211" on="1"/>
        <pt x="1295" y="173" on="0"/>
        <pt x="1217" y="95" on="0"/>
        <pt x="1177" y="59" on="1"/>
        <pt x="1175" y="57" on="0"/>
        <pt x="1163" y="49" on="0"/>
        <pt x="1148" y="40" on="0"/>
        <pt x="1135" y="32" on="0"/>
        <pt x="1133" y="31" on="1"/>
        <pt x="1132" y="29" on="0"/>
        <pt x="1116" y="11" on="0"/>
        <pt x="1114" y="9" on="1"/>
        <pt x="1108" y="5" on="0"/>
        <pt x="1074" y="-17" on="0"/>
        <pt x="1036" y="-41" on="0"/>
        <pt x="1002" y="-62" on="0"/>
        <pt x="995" y="-66" on="1"/>
        <pt x="961" y="-87" on="0"/>
        <pt x="876" y="-116" on="0"/>
        <pt x="785" y="-134" on="0"/>
        <pt x="695" y="-142" on="0"/>
        <pt x="656" y="-142" on="1"/>
        <pt x="594" y="-142" on="1"/>
        <pt x="592" y="-142" on="0"/>
        <pt x="577" y="-140" on="0"/>
        <pt x="561" y="-137" on="0"/>
        <pt x="547" y="-135" on="0"/>
        <pt x="545" y="-135" on="1"/>
        <pt x="528" y="-135" on="1"/>
        <pt x="504" y="-135" on="1"/>
        <pt x="496" y="-135" on="0"/>
        <pt x="481" y="-134" on="0"/>
        <pt x="469" y="-130" on="1"/>
        <pt x="448" y="-121" on="0"/>
        <pt x="397" y="-89" on="0"/>
        <pt x="379" y="-80" on="1"/>
        <pt x="378" y="-79" on="0"/>
        <pt x="368" y="-76" on="0"/>
        <pt x="356" y="-71" on="0"/>
        <pt x="346" y="-67" on="0"/>
        <pt x="345" y="-66" on="1"/>
        <pt x="339" y="-62" on="0"/>
        <pt x="314" y="-45" on="0"/>
        <pt x="287" y="-28" on="0"/>
        <pt x="265" y="-13" on="0"/>
        <pt x="262" y="-10" on="1"/>
        <pt x="260" y="-10" on="0"/>
        <pt x="252" y="0" on="0"/>
        <pt x="243" y="12" on="0"/>
        <pt x="235" y="23" on="0"/>
        <pt x="234" y="24" on="1"/>
        <pt x="233" y="25" on="0"/>
        <pt x="225" y="33" on="0"/>
        <pt x="215" y="42" on="0"/>
        <pt x="207" y="50" on="0"/>
        <pt x="206" y="52" on="1"/>
        <pt x="204" y="55" on="0"/>
        <pt x="190" y="75" on="0"/>
        <pt x="174" y="99" on="0"/>
        <pt x="160" y="119" on="0"/>
        <pt x="158" y="121" on="1"/>
        <pt x="156" y="124" on="0"/>
        <pt x="139" y="139" on="0"/>
        <pt x="137" y="142" on="1"/>
        <pt x="111" y="176" on="0"/>
        <pt x="83" y="248" on="0"/>
        <pt x="70" y="324" on="0"/>
        <pt x="68" y="403" on="0"/>
      </contour>
    </TTGlyph>
    <TTGlyph name="Aacute" xMin="-187" yMin="-16" xMax="1751" yMax="1769">
      <component glyphName="A" x="0" y="0" flags="0x204"/>
      <component glyphName="Acute" x="428" y="-99" flags="0x4"/>
    </TTGlyph>
    <TTGlyph name="Aacute.swash" xMin="80" yMin="-131" xMax="2851" yMax="1868">
      <component glyphName="A.swash" x="0" y="0" flags="0x204"/>
      <component glyphName="Acute" x="1470" y="0" flags="0x4"/>
    </TTGlyph>
    <TTGlyph name="Abreve" xMin="-187" yMin="-16" xMax="1634" yMax="1769">
      <component glyphName="A" x="0" y="0" flags="0x204"/>
      <component glyphName="Breve" x="683" y="-99" flags="0x4"/>
    </TTGlyph>
    <TTGlyph name="Abreve.swash" xMin="80" yMin="-131" xMax="2851" yMax="1868">
      <component glyphName="A.swash" x="0" y="0" flags="0x204"/>
      <component glyphName="Breve" x="1750" y="0" flags="0x4"/>
    </TTGlyph>
    <TTGlyph name="Acircumflex" xMin="-187" yMin="-16" xMax="1560" yMax="1757">
      <component glyphName="A" x="0" y="0" flags="0x204"/>
      <component glyphName="Circumflex" x="447" y="-99" flags="0x4"/>
    </TTGlyph>
    <TTGlyph name="Acircumflex.swash" xMin="80" yMin="-131" xMax="2851" yMax="1856">
      <component glyphName="A.swash" x="0" y="0" flags="0x204"/>
      <component glyphName="Circumflex" x="1547" y="0" flags="0x4"/>
    </TTGlyph>
    <TTGlyph name="Acute" xMin="886" yMin="1466" xMax="1323" yMax="1868">
      <contour>
        <pt x="888" y="1532" on="1"/>
        <pt x="896" y="1574" on="0"/>
        <pt x="940" y="1640" on="0"/>
        <pt x="997" y="1696" on="0"/>
        <pt x="1062" y="1746" on="0"/>
        <pt x="1092" y="1773" on="1"/>
        <pt x="1113" y="1792" on="0"/>
        <pt x="1147" y="1827" on="0"/>
        <pt x="1183" y="1853" on="0"/>
        <pt x="1223" y="1868" on="0"/>
        <pt x="1250" y="1868" on="1"/>
        <pt x="1270" y="1868" on="0"/>
        <pt x="1290" y="1864" on="1"/>
        <pt x="1292" y="1863" on="0"/>
        <pt x="1301" y="1862" on="0"/>
        <pt x="1304" y="1861" on="1"/>
        <pt x="1305" y="1858" on="0"/>
        <pt x="1312" y="1844" on="0"/>
        <pt x="1318" y="1827" on="0"/>
        <pt x="1323" y="1811" on="0"/>
        <pt x="1323" y="1808" on="1"/>
        <pt x="1322" y="1805" on="0"/>
        <pt x="1322" y="1802" on="1"/>
        <pt x="1321" y="1799" on="0"/>
        <pt x="1321" y="1794" on="1"/>
        <pt x="1318" y="1780" on="0"/>
        <pt x="1313" y="1764" on="0"/>
        <pt x="1304" y="1753" on="1"/>
        <pt x="1287" y="1733" on="0"/>
        <pt x="1253" y="1721" on="0"/>
        <pt x="1236" y="1707" on="1"/>
        <pt x="1232" y="1703" on="0"/>
        <pt x="1213" y="1684" on="0"/>
        <pt x="1212" y="1682" on="1"/>
        <pt x="1195" y="1663" on="0"/>
        <pt x="1164" y="1635" on="0"/>
        <pt x="1132" y="1610" on="0"/>
        <pt x="1100" y="1586" on="0"/>
        <pt x="1082" y="1571" on="1"/>
        <pt x="1080" y="1569" on="0"/>
        <pt x="1068" y="1556" on="0"/>
        <pt x="1056" y="1542" on="0"/>
        <pt x="1046" y="1529" on="0"/>
        <pt x="1045" y="1528" on="1"/>
        <pt x="1040" y="1524" on="0"/>
        <pt x="1014" y="1506" on="0"/>
        <pt x="986" y="1486" on="0"/>
        <pt x="960" y="1469" on="0"/>
        <pt x="955" y="1466" on="1"/>
        <pt x="951" y="1467" on="0"/>
        <pt x="948" y="1467" on="1"/>
        <pt x="938" y="1469" on="0"/>
        <pt x="915" y="1480" on="0"/>
        <pt x="896" y="1497" on="0"/>
        <pt x="886" y="1519" on="0"/>
      </contour>
    </TTGlyph>
    <TTGlyph name="Adieresis" xMin="-187" yMin="-16" xMax="1593" yMax="1696">
      <component glyphName="A" x="0" y="0" flags="0x204"/>
      <component glyphName="Dieresis" x="429" y="-99" flags="0x4"/>
    </TTGlyph>
    <TTGlyph name="Adieresis.swash" xMin="80" yMin="-131" xMax="2851" yMax="1795">
      <component glyphName="A.swash" x="0" y="0" flags="0x204"/>
      <component glyphName="Dieresis" x="1334" y="0" flags="0x4"/>
    </TTGlyph>
    <TTGlyph name="Agrave" xMin="-187" yMin="-16" xMax="1433" yMax="1767">
      <component glyphName="A" x="0" y="0" flags="0x204"/>
      <component glyphName="Grave" x="438" y="-99" flags="0x4"/>
    </TTGlyph>
    <TTGlyph name="Agrave.swash" xMin="80" yMin="-131" xMax="2851" yMax="1866">
      <component glyphName="A.swash" x="0" y="0" flags="0x204"/>
      <component glyphName="Grave" x="1382" y="0" flags="0x4"/>
    </TTGlyph>
    <TTGlyph name="Amacron" xMin="-187" yMin="-16" xMax="1625" yMax="1632">
      <component glyphName="A" x="0" y="0" flags="0x204"/>
      <component glyphName="Macron" x="498" y="-99" flags="0x4"/>
    </TTGlyph>
    <TTGlyph name="Amacron.swash" xMin="80" yMin="-131" xMax="2851" yMax="1731">
      <component glyphName="A.swash" x="0" y="0" flags="0x204"/>
      <component glyphName="Macron" x="1554" y="0" flags="0x4"/>
    </TTGlyph>
    <TTGlyph name="Aogonek" xMin="-187" yMin="-431" xMax="1425" yMax="1285">
      <contour>
        <pt x="-187" y="24" on="1"/>
        <pt x="-187" y="67" on="0"/>
        <pt x="-152" y="88" on="1"/>
        <pt x="-151" y="90" on="0"/>
        <pt x="-135" y="101" on="0"/>
        <pt x="-114" y="114" on="0"/>
        <pt x="-95" y="127" on="0"/>
        <pt x="-90" y="131" on="1"/>
        <pt x="-73" y="142" on="0"/>
        <pt x="-37" y="149" on="0"/>
        <pt x="-21" y="157" on="1"/>
        <pt x="-19" y="158" on="0"/>
        <pt x="-10" y="165" on="0"/>
        <pt x="-1" y="173" on="0"/>
        <pt x="6" y="179" on="0"/>
        <pt x="7" y="180" on="1"/>
        <pt x="9" y="181" on="0"/>
        <pt x="21" y="185" on="0"/>
        <pt x="35" y="189" on="0"/>
        <pt x="47" y="192" on="0"/>
        <pt x="48" y="192" on="1"/>
        <pt x="50" y="194" on="0"/>
        <pt x="62" y="199" on="0"/>
        <pt x="64" y="201" on="1"/>
        <pt x="89" y="218" on="0"/>
        <pt x="157" y="267" on="0"/>
        <pt x="180" y="291" on="1"/>
        <pt x="181" y="292" on="0"/>
        <pt x="188" y="301" on="0"/>
        <pt x="195" y="310" on="0"/>
        <pt x="202" y="318" on="0"/>
        <pt x="202" y="318" on="1"/>
        <pt x="216" y="330" on="0"/>
        <pt x="247" y="348" on="0"/>
        <pt x="258" y="362" on="1"/>
        <pt x="269" y="371" on="0"/>
        <pt x="283" y="411" on="0"/>
        <pt x="292" y="424" on="1"/>
        <pt x="313" y="437" on="0"/>
        <pt x="347" y="465" on="0"/>
        <pt x="376" y="494" on="0"/>
        <pt x="403" y="527" on="0"/>
        <pt x="419" y="547" on="1"/>
        <pt x="419" y="553" on="0"/>
        <pt x="426" y="555" on="1"/>
        <pt x="427" y="555" on="0"/>
        <pt x="445" y="561" on="0"/>
        <pt x="446" y="562" on="1"/>
        <pt x="466" y="574" on="0"/>
        <pt x="494" y="596" on="0"/>
        <pt x="517" y="618" on="0"/>
        <pt x="541" y="643" on="0"/>
        <pt x="557" y="659" on="1"/>
        <pt x="559" y="659" on="0"/>
        <pt x="583" y="664" on="0"/>
        <pt x="585" y="666" on="1"/>
        <pt x="585" y="667" on="0"/>
        <pt x="591" y="674" on="0"/>
        <pt x="597" y="682" on="0"/>
        <pt x="603" y="689" on="0"/>
        <pt x="604" y="689" on="1"/>
        <pt x="617" y="693" on="0"/>
        <pt x="631" y="701" on="0"/>
        <pt x="642" y="708" on="1"/>
        <pt x="642" y="708" on="0"/>
        <pt x="645" y="717" on="0"/>
        <pt x="649" y="726" on="0"/>
        <pt x="653" y="735" on="0"/>
        <pt x="654" y="735" on="1"/>
        <pt x="656" y="739" on="0"/>
        <pt x="677" y="760" on="0"/>
        <pt x="682" y="763" on="1"/>
        <pt x="685" y="766" on="0"/>
        <pt x="693" y="771" on="1"/>
        <pt x="697" y="774" on="0"/>
        <pt x="702" y="777" on="1"/>
        <pt x="725" y="799" on="0"/>
        <pt x="762" y="847" on="0"/>
        <pt x="785" y="867" on="1"/>
        <pt x="787" y="868" on="0"/>
        <pt x="791" y="871" on="0"/>
        <pt x="793" y="872" on="1"/>
        <pt x="799" y="874" on="1"/>
        <pt x="800" y="876" on="0"/>
        <pt x="811" y="887" on="0"/>
        <pt x="824" y="899" on="0"/>
        <pt x="834" y="909" on="0"/>
        <pt x="836" y="910" on="1"/>
        <pt x="840" y="914" on="0"/>
        <pt x="865" y="934" on="0"/>
        <pt x="870" y="936" on="1"/>
        <pt x="900" y="959" on="0"/>
        <pt x="959" y="1003" on="0"/>
        <pt x="988" y="1028" on="1"/>
        <pt x="990" y="1030" on="0"/>
        <pt x="1007" y="1046" on="0"/>
        <pt x="1009" y="1048" on="1"/>
        <pt x="1015" y="1062" on="1"/>
        <pt x="1020" y="1069" on="0"/>
        <pt x="1027" y="1075" on="0"/>
        <pt x="1035" y="1079" on="0"/>
        <pt x="1044" y="1084" on="0"/>
        <pt x="1050" y="1090" on="1"/>
        <pt x="1063" y="1102" on="0"/>
        <pt x="1084" y="1125" on="0"/>
        <pt x="1103" y="1149" on="0"/>
        <pt x="1125" y="1174" on="0"/>
        <pt x="1140" y="1187" on="1"/>
        <pt x="1143" y="1190" on="0"/>
        <pt x="1164" y="1206" on="0"/>
        <pt x="1191" y="1226" on="0"/>
        <pt x="1218" y="1246" on="0"/>
        <pt x="1225" y="1251" on="1"/>
        <pt x="1227" y="1252" on="0"/>
        <pt x="1230" y="1253" on="1"/>
        <pt x="1232" y="1254" on="0"/>
        <pt x="1237" y="1256" on="0"/>
        <pt x="1239" y="1256" on="1"/>
        <pt x="1240" y="1258" on="0"/>
        <pt x="1251" y="1270" on="0"/>
        <pt x="1251" y="1272" on="1"/>
        <pt x="1256" y="1272" on="0"/>
        <pt x="1279" y="1274" on="0"/>
        <pt x="1303" y="1276" on="0"/>
        <pt x="1325" y="1278" on="0"/>
        <pt x="1329" y="1278" on="1"/>
        <pt x="1330" y="1278" on="0"/>
        <pt x="1346" y="1285" on="0"/>
        <pt x="1348" y="1285" on="1"/>
        <pt x="1365" y="1285" on="1"/>
        <pt x="1394" y="1285" on="0"/>
        <pt x="1425" y="1264" on="0"/>
        <pt x="1425" y="1237" on="1"/>
        <pt x="1425" y="1196" on="0"/>
        <pt x="1402" y="1126" on="0"/>
        <pt x="1382" y="1090" on="1"/>
        <pt x="1382" y="1088" on="0"/>
        <pt x="1377" y="1079" on="0"/>
        <pt x="1370" y="1067" on="0"/>
        <pt x="1364" y="1057" on="0"/>
        <pt x="1363" y="1055" on="1"/>
        <pt x="1362" y="1053" on="0"/>
        <pt x="1360" y="1050" on="0"/>
        <pt x="1359" y="1048" on="1"/>
        <pt x="1357" y="1045" on="0"/>
        <pt x="1356" y="1043" on="1"/>
        <pt x="1356" y="1009" on="1"/>
        <pt x="1355" y="1004" on="0"/>
        <pt x="1344" y="988" on="0"/>
        <pt x="1342" y="986" on="1"/>
        <pt x="1336" y="975" on="0"/>
        <pt x="1328" y="949" on="0"/>
        <pt x="1322" y="936" on="1"/>
        <pt x="1312" y="920" on="0"/>
        <pt x="1300" y="886" on="0"/>
        <pt x="1291" y="852" on="0"/>
        <pt x="1281" y="816" on="0"/>
        <pt x="1273" y="798" on="1"/>
        <pt x="1272" y="796" on="0"/>
        <pt x="1263" y="787" on="0"/>
        <pt x="1254" y="775" on="0"/>
        <pt x="1245" y="765" on="0"/>
        <pt x="1244" y="763" on="1"/>
        <pt x="1244" y="761" on="0"/>
        <pt x="1239" y="737" on="0"/>
        <pt x="1239" y="735" on="1"/>
        <pt x="1237" y="732" on="0"/>
        <pt x="1233" y="719" on="0"/>
        <pt x="1228" y="706" on="0"/>
        <pt x="1225" y="695" on="0"/>
        <pt x="1225" y="694" on="1"/>
        <pt x="1207" y="680" on="0"/>
        <pt x="1196" y="639" on="0"/>
        <pt x="1188" y="619" on="1"/>
        <pt x="1187" y="613" on="0"/>
        <pt x="1177" y="585" on="0"/>
        <pt x="1175" y="581" on="1"/>
        <pt x="1174" y="580" on="0"/>
        <pt x="1166" y="564" on="0"/>
        <pt x="1156" y="546" on="0"/>
        <pt x="1148" y="530" on="0"/>
        <pt x="1147" y="528" on="1"/>
        <pt x="1147" y="526" on="0"/>
        <pt x="1145" y="516" on="0"/>
        <pt x="1142" y="504" on="0"/>
        <pt x="1140" y="494" on="0"/>
        <pt x="1140" y="493" on="1"/>
        <pt x="1134" y="469" on="0"/>
        <pt x="1114" y="424" on="0"/>
        <pt x="1093" y="379" on="0"/>
        <pt x="1073" y="335" on="0"/>
        <pt x="1066" y="311" on="1"/>
        <pt x="1064" y="310" on="0"/>
        <pt x="1060" y="294" on="0"/>
        <pt x="1055" y="275" on="0"/>
        <pt x="1051" y="258" on="0"/>
        <pt x="1050" y="256" on="1"/>
        <pt x="1050" y="255" on="0"/>
        <pt x="1044" y="245" on="0"/>
        <pt x="1037" y="233" on="0"/>
        <pt x="1031" y="222" on="0"/>
        <pt x="1031" y="221" on="1"/>
        <pt x="1030" y="220" on="0"/>
        <pt x="1025" y="212" on="0"/>
        <pt x="1020" y="203" on="0"/>
        <pt x="1016" y="194" on="0"/>
        <pt x="1015" y="192" on="1"/>
        <pt x="1009" y="183" on="0"/>
        <pt x="988" y="153" on="0"/>
        <pt x="988" y="140" on="1"/>
        <pt x="988" y="132" on="0"/>
        <pt x="1010" y="117" on="0"/>
        <pt x="1037" y="96" on="0"/>
        <pt x="1059" y="68" on="0"/>
        <pt x="1059" y="48" on="1"/>
        <pt x="1059" y="43" on="0"/>
        <pt x="1059" y="28" on="0"/>
        <pt x="1057" y="26" on="1"/>
        <pt x="1055" y="21" on="0"/>
        <pt x="1036" y="12" on="0"/>
        <pt x="1013" y="4" on="0"/>
        <pt x="992" y="-1" on="0"/>
        <pt x="988" y="-2" on="1"/>
        <pt x="986" y="-2" on="0"/>
        <pt x="944" y="-4" on="0"/>
        <pt x="921" y="-6" on="1"/>
        <pt x="898" y="-38" on="0"/>
        <pt x="857" y="-98" on="0"/>
        <pt x="843" y="-131" on="1"/>
        <pt x="836" y="-148" on="0"/>
        <pt x="819" y="-187" on="0"/>
        <pt x="815" y="-205" on="1"/>
        <pt x="814" y="-215" on="0"/>
        <pt x="809" y="-235" on="0"/>
        <pt x="809" y="-246" on="1"/>
        <pt x="809" y="-252" on="1"/>
        <pt x="811" y="-264" on="0"/>
        <pt x="831" y="-277" on="0"/>
        <pt x="833" y="-288" on="1"/>
        <pt x="845" y="-297" on="1"/>
        <pt x="849" y="-304" on="0"/>
        <pt x="863" y="-307" on="0"/>
        <pt x="874" y="-308" on="1"/>
        <pt x="932" y="-297" on="1"/>
        <pt x="941" y="-297" on="0"/>
        <pt x="950" y="-300" on="0"/>
        <pt x="956" y="-303" on="0"/>
        <pt x="963" y="-305" on="0"/>
        <pt x="971" y="-305" on="1"/>
        <pt x="995" y="-307" on="1"/>
        <pt x="1009" y="-307" on="0"/>
        <pt x="1009" y="-317" on="1"/>
        <pt x="1009" y="-319" on="0"/>
        <pt x="1007" y="-325" on="1"/>
        <pt x="1003" y="-333" on="0"/>
        <pt x="992" y="-342" on="1"/>
        <pt x="959" y="-370" on="0"/>
        <pt x="884" y="-406" on="0"/>
        <pt x="847" y="-416" on="1"/>
        <pt x="817" y="-428" on="1"/>
        <pt x="806" y="-430" on="0"/>
        <pt x="778" y="-431" on="0"/>
        <pt x="766" y="-431" on="1"/>
        <pt x="757" y="-431" on="0"/>
        <pt x="726" y="-427" on="0"/>
        <pt x="715" y="-425" on="1"/>
        <pt x="703" y="-418" on="1"/>
        <pt x="691" y="-414" on="0"/>
        <pt x="670" y="-402" on="0"/>
        <pt x="659" y="-397" on="1"/>
        <pt x="646" y="-388" on="1"/>
        <pt x="641" y="-371" on="1"/>
        <pt x="642" y="-362" on="1"/>
        <pt x="642" y="-353" on="0"/>
        <pt x="639" y="-336" on="0"/>
        <pt x="637" y="-327" on="1"/>
        <pt x="636" y="-322" on="0"/>
        <pt x="636" y="-312" on="1"/>
        <pt x="636" y="-295" on="0"/>
        <pt x="646" y="-258" on="0"/>
        <pt x="654" y="-238" on="1"/>
        <pt x="659" y="-227" on="0"/>
        <pt x="677" y="-195" on="0"/>
        <pt x="684" y="-183" on="1"/>
        <pt x="699" y="-154" on="1"/>
        <pt x="723" y="-120" on="1"/>
        <pt x="757" y="-84" on="1"/>
        <pt x="801" y="-37" on="0"/>
        <pt x="854" y="-6" on="1"/>
        <pt x="842" y="-3" on="1"/>
        <pt x="838" y="-2" on="0"/>
        <pt x="836" y="-2" on="1"/>
        <pt x="661" y="-2" on="1"/>
        <pt x="655" y="4" on="0"/>
        <pt x="640" y="12" on="0"/>
        <pt x="627" y="20" on="0"/>
        <pt x="619" y="31" on="0"/>
        <pt x="619" y="40" on="1"/>
        <pt x="619" y="72" on="0"/>
        <pt x="644" y="98" on="0"/>
        <pt x="682" y="108" on="0"/>
        <pt x="727" y="116" on="0"/>
        <pt x="746" y="131" on="1"/>
        <pt x="778" y="157" on="0"/>
        <pt x="824" y="231" on="0"/>
        <pt x="842" y="270" on="1"/>
        <pt x="842" y="271" on="0"/>
        <pt x="845" y="281" on="0"/>
        <pt x="850" y="293" on="0"/>
        <pt x="854" y="303" on="0"/>
        <pt x="855" y="304" on="1"/>
        <pt x="857" y="307" on="0"/>
        <pt x="868" y="318" on="0"/>
        <pt x="870" y="318" on="1"/>
        <pt x="884" y="339" on="0"/>
        <pt x="889" y="393" on="0"/>
        <pt x="896" y="415" on="1"/>
        <pt x="897" y="418" on="0"/>
        <pt x="904" y="434" on="0"/>
        <pt x="912" y="453" on="0"/>
        <pt x="919" y="469" on="0"/>
        <pt x="919" y="472" on="1"/>
        <pt x="919" y="503" on="1"/>
        <pt x="919" y="513" on="0"/>
        <pt x="917" y="530" on="0"/>
        <pt x="912" y="535" on="1"/>
        <pt x="910" y="536" on="0"/>
        <pt x="892" y="541" on="0"/>
        <pt x="889" y="541" on="1"/>
        <pt x="888" y="542" on="0"/>
        <pt x="874" y="548" on="0"/>
        <pt x="858" y="556" on="0"/>
        <pt x="843" y="562" on="0"/>
        <pt x="842" y="562" on="1"/>
        <pt x="820" y="562" on="1"/>
        <pt x="813" y="562" on="0"/>
        <pt x="787" y="559" on="0"/>
        <pt x="760" y="557" on="0"/>
        <pt x="740" y="555" on="0"/>
        <pt x="739" y="555" on="1"/>
        <pt x="737" y="554" on="0"/>
        <pt x="719" y="549" on="0"/>
        <pt x="716" y="547" on="1"/>
        <pt x="713" y="547" on="1"/>
        <pt x="699" y="547" on="0"/>
        <pt x="673" y="555" on="0"/>
        <pt x="659" y="555" on="1"/>
        <pt x="650" y="555" on="0"/>
        <pt x="623" y="547" on="0"/>
        <pt x="595" y="535" on="0"/>
        <pt x="570" y="520" on="0"/>
        <pt x="564" y="512" on="1"/>
        <pt x="561" y="510" on="0"/>
        <pt x="546" y="489" on="0"/>
        <pt x="543" y="484" on="1"/>
        <pt x="540" y="484" on="0"/>
        <pt x="535" y="477" on="1"/>
        <pt x="493" y="448" on="0"/>
        <pt x="426" y="370" on="0"/>
        <pt x="391" y="334" on="1"/>
        <pt x="385" y="328" on="0"/>
        <pt x="360" y="303" on="0"/>
        <pt x="333" y="276" on="0"/>
        <pt x="310" y="253" on="0"/>
        <pt x="306" y="249" on="1"/>
        <pt x="304" y="247" on="0"/>
        <pt x="296" y="241" on="1"/>
        <pt x="292" y="238" on="0"/>
        <pt x="287" y="235" on="1"/>
        <pt x="264" y="215" on="0"/>
        <pt x="230" y="154" on="0"/>
        <pt x="230" y="123" on="1"/>
        <pt x="230" y="111" on="1"/>
        <pt x="272" y="69" on="1"/>
        <pt x="277" y="63" on="0"/>
        <pt x="280" y="48" on="0"/>
        <pt x="280" y="42" on="1"/>
        <pt x="280" y="33" on="1"/>
        <pt x="280" y="15" on="0"/>
        <pt x="267" y="-2" on="0"/>
        <pt x="249" y="-2" on="1"/>
        <pt x="235" y="-2" on="0"/>
        <pt x="209" y="7" on="0"/>
        <pt x="195" y="7" on="1"/>
        <pt x="181" y="7" on="0"/>
        <pt x="161" y="-7" on="0"/>
        <pt x="145" y="-9" on="1"/>
        <pt x="114" y="-9" on="1"/>
        <pt x="76" y="-9" on="0"/>
        <pt x="0" y="0" on="0"/>
        <pt x="-38" y="0" on="1"/>
        <pt x="-56" y="0" on="0"/>
        <pt x="-89" y="-16" on="0"/>
        <pt x="-107" y="-16" on="1"/>
        <pt x="-135" y="-16" on="0"/>
        <pt x="-169" y="-3" on="0"/>
        <pt x="-187" y="19" on="1"/>
      </contour>
      <contour>
        <pt x="785" y="718" on="1"/>
        <pt x="785" y="702" on="0"/>
        <pt x="793" y="682" on="0"/>
        <pt x="808" y="668" on="0"/>
        <pt x="829" y="658" on="0"/>
        <pt x="842" y="654" on="1"/>
        <pt x="845" y="651" on="0"/>
        <pt x="853" y="648" on="1"/>
        <pt x="857" y="646" on="0"/>
        <pt x="862" y="645" on="1"/>
        <pt x="974" y="645" on="1"/>
        <pt x="987" y="645" on="0"/>
        <pt x="1012" y="676" on="0"/>
        <pt x="1033" y="717" on="0"/>
        <pt x="1051" y="759" on="0"/>
        <pt x="1057" y="770" on="1"/>
        <pt x="1059" y="774" on="0"/>
        <pt x="1076" y="796" on="0"/>
        <pt x="1078" y="798" on="1"/>
        <pt x="1082" y="803" on="0"/>
        <pt x="1092" y="818" on="0"/>
        <pt x="1092" y="820" on="1"/>
        <pt x="1094" y="826" on="0"/>
        <pt x="1104" y="855" on="0"/>
        <pt x="1116" y="888" on="0"/>
        <pt x="1126" y="918" on="0"/>
        <pt x="1128" y="924" on="1"/>
        <pt x="1126" y="924" on="0"/>
        <pt x="1126" y="927" on="1"/>
        <pt x="1126" y="931" on="0"/>
        <pt x="1128" y="931" on="1"/>
        <pt x="1128" y="932" on="0"/>
        <pt x="1132" y="950" on="0"/>
        <pt x="1135" y="951" on="1"/>
        <pt x="1135" y="952" on="0"/>
        <pt x="1136" y="960" on="0"/>
        <pt x="1137" y="969" on="0"/>
        <pt x="1139" y="978" on="0"/>
        <pt x="1140" y="979" on="1"/>
        <pt x="1143" y="983" on="0"/>
        <pt x="1154" y="1006" on="0"/>
        <pt x="1168" y="1030" on="0"/>
        <pt x="1179" y="1051" on="0"/>
        <pt x="1182" y="1055" on="1"/>
        <pt x="1180" y="1060" on="0"/>
        <pt x="1171" y="1078" on="0"/>
        <pt x="1164" y="1078" on="1"/>
        <pt x="1163" y="1078" on="1"/>
        <pt x="1156" y="1074" on="0"/>
        <pt x="1130" y="1057" on="0"/>
        <pt x="1128" y="1055" on="1"/>
        <pt x="1126" y="1054" on="0"/>
        <pt x="1114" y="1036" on="0"/>
        <pt x="1112" y="1035" on="1"/>
        <pt x="1111" y="1033" on="0"/>
        <pt x="1108" y="1028" on="0"/>
        <pt x="1106" y="1026" on="1"/>
        <pt x="1103" y="1023" on="0"/>
        <pt x="1100" y="1021" on="1"/>
        <pt x="1098" y="1020" on="0"/>
        <pt x="1085" y="1014" on="0"/>
        <pt x="1070" y="1007" on="0"/>
        <pt x="1058" y="1001" on="0"/>
        <pt x="1057" y="1000" on="1"/>
        <pt x="1056" y="998" on="0"/>
        <pt x="1048" y="988" on="0"/>
        <pt x="1039" y="977" on="0"/>
        <pt x="1032" y="966" on="0"/>
        <pt x="1031" y="965" on="1"/>
        <pt x="1029" y="964" on="0"/>
        <pt x="1016" y="956" on="0"/>
        <pt x="1001" y="947" on="0"/>
        <pt x="989" y="938" on="0"/>
        <pt x="988" y="936" on="1"/>
        <pt x="986" y="935" on="0"/>
        <pt x="976" y="926" on="0"/>
        <pt x="965" y="914" on="0"/>
        <pt x="954" y="903" on="0"/>
        <pt x="953" y="901" on="1"/>
        <pt x="951" y="901" on="0"/>
        <pt x="932" y="891" on="0"/>
        <pt x="932" y="889" on="1"/>
        <pt x="928" y="886" on="0"/>
        <pt x="915" y="873" on="0"/>
        <pt x="902" y="859" on="0"/>
        <pt x="891" y="848" on="0"/>
        <pt x="889" y="848" on="1"/>
        <pt x="888" y="845" on="0"/>
        <pt x="881" y="828" on="0"/>
        <pt x="872" y="809" on="0"/>
        <pt x="864" y="793" on="0"/>
        <pt x="862" y="792" on="1"/>
        <pt x="855" y="780" on="0"/>
        <pt x="829" y="767" on="0"/>
        <pt x="804" y="753" on="0"/>
        <pt x="785" y="735" on="0"/>
      </contour>
    </TTGlyph>
    <TTGlyph name="Aogonek.swash" xMin="80" yMin="-431" xMax="2851" yMax="1455">
      <contour>
        <pt x="80" y="311" on="1"/>
        <pt x="81" y="313" on="0"/>
        <pt x="87" y="330" on="0"/>
        <pt x="87" y="332" on="1"/>
        <pt x="87" y="335" on="0"/>
        <pt x="91" y="353" on="0"/>
        <pt x="96" y="376" on="0"/>
        <pt x="100" y="396" on="0"/>
        <pt x="101" y="401" on="1"/>
        <pt x="101" y="408" on="1"/>
        <pt x="99" y="415" on="0"/>
        <pt x="93" y="449" on="0"/>
        <pt x="87" y="486" on="0"/>
        <pt x="81" y="520" on="0"/>
        <pt x="80" y="526" on="1"/>
        <pt x="91" y="558" on="0"/>
        <pt x="108" y="626" on="0"/>
        <pt x="121" y="657" on="1"/>
        <pt x="123" y="659" on="0"/>
        <pt x="126" y="676" on="0"/>
        <pt x="126" y="678" on="1"/>
        <pt x="132" y="693" on="0"/>
        <pt x="151" y="726" on="0"/>
        <pt x="177" y="754" on="0"/>
        <pt x="207" y="774" on="0"/>
        <pt x="225" y="777" on="1"/>
        <pt x="308" y="777" on="1"/>
        <pt x="321" y="777" on="0"/>
        <pt x="346" y="775" on="0"/>
        <pt x="357" y="770" on="1"/>
        <pt x="363" y="758" on="0"/>
        <pt x="380" y="728" on="0"/>
        <pt x="396" y="696" on="0"/>
        <pt x="407" y="664" on="0"/>
        <pt x="407" y="650" on="1"/>
        <pt x="407" y="639" on="0"/>
        <pt x="389" y="618" on="0"/>
        <pt x="384" y="609" on="1"/>
        <pt x="384" y="607" on="0"/>
        <pt x="378" y="597" on="0"/>
        <pt x="370" y="586" on="0"/>
        <pt x="364" y="575" on="0"/>
        <pt x="363" y="574" on="1"/>
        <pt x="358" y="567" on="0"/>
        <pt x="334" y="551" on="0"/>
        <pt x="304" y="536" on="0"/>
        <pt x="276" y="523" on="0"/>
        <pt x="268" y="519" on="1"/>
        <pt x="251" y="510" on="0"/>
        <pt x="234" y="487" on="0"/>
        <pt x="228" y="461" on="0"/>
        <pt x="227" y="431" on="0"/>
        <pt x="225" y="415" on="1"/>
        <pt x="225" y="413" on="0"/>
        <pt x="218" y="398" on="0"/>
        <pt x="218" y="396" on="1"/>
        <pt x="203" y="324" on="0"/>
        <pt x="203" y="254" on="1"/>
        <pt x="203" y="180" on="0"/>
        <pt x="260" y="131" on="1"/>
        <pt x="264" y="126" on="0"/>
        <pt x="286" y="111" on="0"/>
        <pt x="287" y="111" on="1"/>
        <pt x="288" y="109" on="0"/>
        <pt x="303" y="107" on="0"/>
        <pt x="320" y="105" on="0"/>
        <pt x="335" y="104" on="0"/>
        <pt x="338" y="104" on="1"/>
        <pt x="362" y="99" on="0"/>
        <pt x="412" y="84" on="0"/>
        <pt x="463" y="71" on="0"/>
        <pt x="514" y="62" on="0"/>
        <pt x="540" y="62" on="1"/>
        <pt x="550" y="62" on="1"/>
        <pt x="561" y="62" on="0"/>
        <pt x="596" y="64" on="0"/>
        <pt x="629" y="67" on="0"/>
        <pt x="653" y="69" on="0"/>
        <pt x="654" y="69" on="1"/>
        <pt x="656" y="69" on="0"/>
        <pt x="666" y="73" on="0"/>
        <pt x="678" y="77" on="0"/>
        <pt x="687" y="81" on="0"/>
        <pt x="689" y="81" on="1"/>
        <pt x="745" y="98" on="0"/>
        <pt x="857" y="121" on="0"/>
        <pt x="912" y="138" on="1"/>
        <pt x="918" y="139" on="0"/>
        <pt x="944" y="156" on="0"/>
        <pt x="972" y="177" on="0"/>
        <pt x="995" y="196" on="0"/>
        <pt x="1000" y="201" on="1"/>
        <pt x="1003" y="204" on="0"/>
        <pt x="1026" y="226" on="0"/>
        <pt x="1051" y="252" on="0"/>
        <pt x="1073" y="274" on="0"/>
        <pt x="1076" y="277" on="1"/>
        <pt x="1080" y="279" on="0"/>
        <pt x="1101" y="295" on="0"/>
        <pt x="1104" y="298" on="1"/>
        <pt x="1106" y="299" on="0"/>
        <pt x="1117" y="305" on="0"/>
        <pt x="1129" y="311" on="0"/>
        <pt x="1138" y="317" on="0"/>
        <pt x="1139" y="318" on="1"/>
        <pt x="1141" y="320" on="0"/>
        <pt x="1159" y="337" on="0"/>
        <pt x="1161" y="339" on="1"/>
        <pt x="1171" y="348" on="0"/>
        <pt x="1191" y="358" on="0"/>
        <pt x="1212" y="366" on="0"/>
        <pt x="1232" y="374" on="0"/>
        <pt x="1242" y="381" on="1"/>
        <pt x="1253" y="387" on="0"/>
        <pt x="1270" y="415" on="0"/>
        <pt x="1277" y="422" on="1"/>
        <pt x="1281" y="426" on="0"/>
        <pt x="1311" y="454" on="0"/>
        <pt x="1344" y="487" on="0"/>
        <pt x="1373" y="516" on="0"/>
        <pt x="1376" y="519" on="1"/>
        <pt x="1377" y="522" on="0"/>
        <pt x="1384" y="533" on="0"/>
        <pt x="1393" y="547" on="0"/>
        <pt x="1401" y="558" on="0"/>
        <pt x="1403" y="561" on="1"/>
        <pt x="1404" y="562" on="0"/>
        <pt x="1406" y="570" on="0"/>
        <pt x="1408" y="579" on="0"/>
        <pt x="1410" y="587" on="0"/>
        <pt x="1410" y="588" on="1"/>
        <pt x="1411" y="589" on="0"/>
        <pt x="1419" y="600" on="0"/>
        <pt x="1429" y="612" on="0"/>
        <pt x="1437" y="622" on="0"/>
        <pt x="1438" y="623" on="1"/>
        <pt x="1454" y="645" on="0"/>
        <pt x="1484" y="691" on="0"/>
        <pt x="1507" y="708" on="1"/>
        <pt x="1508" y="708" on="0"/>
        <pt x="1524" y="715" on="0"/>
        <pt x="1543" y="724" on="0"/>
        <pt x="1560" y="733" on="0"/>
        <pt x="1562" y="735" on="1"/>
        <pt x="1564" y="736" on="0"/>
        <pt x="1577" y="748" on="0"/>
        <pt x="1591" y="762" on="0"/>
        <pt x="1602" y="775" on="0"/>
        <pt x="1604" y="777" on="1"/>
        <pt x="1606" y="778" on="0"/>
        <pt x="1630" y="794" on="0"/>
        <pt x="1632" y="796" on="1"/>
        <pt x="1664" y="823" on="0"/>
        <pt x="1715" y="891" on="0"/>
        <pt x="1742" y="920" on="1"/>
        <pt x="1767" y="946" on="0"/>
        <pt x="1817" y="997" on="0"/>
        <pt x="1846" y="1019" on="1"/>
        <pt x="1882" y="1044" on="0"/>
        <pt x="1947" y="1101" on="0"/>
        <pt x="2009" y="1163" on="0"/>
        <pt x="2071" y="1225" on="0"/>
        <pt x="2104" y="1254" on="1"/>
        <pt x="2105" y="1255" on="0"/>
        <pt x="2119" y="1265" on="0"/>
        <pt x="2135" y="1277" on="0"/>
        <pt x="2149" y="1287" on="0"/>
        <pt x="2151" y="1289" on="1"/>
        <pt x="2153" y="1291" on="0"/>
        <pt x="2171" y="1308" on="0"/>
        <pt x="2173" y="1310" on="1"/>
        <pt x="2219" y="1344" on="0"/>
        <pt x="2328" y="1381" on="0"/>
        <pt x="2381" y="1400" on="1"/>
        <pt x="2381" y="1400" on="0"/>
        <pt x="2389" y="1404" on="0"/>
        <pt x="2398" y="1409" on="0"/>
        <pt x="2407" y="1413" on="0"/>
        <pt x="2408" y="1413" on="1"/>
        <pt x="2438" y="1427" on="0"/>
        <pt x="2488" y="1433" on="0"/>
        <pt x="2519" y="1439" on="1"/>
        <pt x="2520" y="1440" on="0"/>
        <pt x="2532" y="1446" on="0"/>
        <pt x="2546" y="1451" on="0"/>
        <pt x="2559" y="1455" on="0"/>
        <pt x="2561" y="1455" on="1"/>
        <pt x="2604" y="1455" on="1"/>
        <pt x="2644" y="1455" on="0"/>
        <pt x="2721" y="1436" on="0"/>
        <pt x="2761" y="1427" on="1"/>
        <pt x="2771" y="1424" on="0"/>
        <pt x="2789" y="1423" on="0"/>
        <pt x="2806" y="1420" on="0"/>
        <pt x="2819" y="1411" on="0"/>
        <pt x="2824" y="1400" on="1"/>
        <pt x="2824" y="1398" on="0"/>
        <pt x="2829" y="1381" on="0"/>
        <pt x="2833" y="1362" on="0"/>
        <pt x="2837" y="1346" on="0"/>
        <pt x="2837" y="1344" on="1"/>
        <pt x="2838" y="1343" on="0"/>
        <pt x="2842" y="1334" on="0"/>
        <pt x="2846" y="1325" on="0"/>
        <pt x="2850" y="1317" on="0"/>
        <pt x="2851" y="1317" on="1"/>
        <pt x="2851" y="1313" on="1"/>
        <pt x="2851" y="1277" on="0"/>
        <pt x="2807" y="1213" on="0"/>
        <pt x="2782" y="1192" on="1"/>
        <pt x="2773" y="1183" on="0"/>
        <pt x="2760" y="1183" on="1"/>
        <pt x="2755" y="1183" on="0"/>
        <pt x="2742" y="1185" on="0"/>
        <pt x="2737" y="1185" on="1"/>
        <pt x="2725" y="1185" on="0"/>
        <pt x="2708" y="1186" on="0"/>
        <pt x="2694" y="1190" on="0"/>
        <pt x="2680" y="1198" on="0"/>
        <pt x="2670" y="1204" on="1"/>
        <pt x="2669" y="1206" on="0"/>
        <pt x="2657" y="1217" on="0"/>
        <pt x="2643" y="1229" on="0"/>
        <pt x="2631" y="1238" on="0"/>
        <pt x="2630" y="1239" on="1"/>
        <pt x="2630" y="1240" on="0"/>
        <pt x="2616" y="1246" on="0"/>
        <pt x="2616" y="1247" on="1"/>
        <pt x="2607" y="1254" on="0"/>
        <pt x="2592" y="1271" on="0"/>
        <pt x="2575" y="1286" on="0"/>
        <pt x="2556" y="1296" on="0"/>
        <pt x="2543" y="1296" on="1"/>
        <pt x="2523" y="1296" on="0"/>
        <pt x="2483" y="1280" on="0"/>
        <pt x="2446" y="1254" on="0"/>
        <pt x="2417" y="1221" on="0"/>
        <pt x="2408" y="1204" on="1"/>
        <pt x="2407" y="1202" on="0"/>
        <pt x="2401" y="1180" on="0"/>
        <pt x="2401" y="1178" on="1"/>
        <pt x="2396" y="1161" on="0"/>
        <pt x="2381" y="1130" on="0"/>
        <pt x="2363" y="1100" on="0"/>
        <pt x="2345" y="1070" on="0"/>
        <pt x="2339" y="1054" on="1"/>
        <pt x="2338" y="1051" on="0"/>
        <pt x="2329" y="1026" on="0"/>
        <pt x="2320" y="997" on="0"/>
        <pt x="2312" y="973" on="0"/>
        <pt x="2311" y="971" on="1"/>
        <pt x="2311" y="969" on="0"/>
        <pt x="2304" y="961" on="0"/>
        <pt x="2297" y="952" on="0"/>
        <pt x="2290" y="944" on="0"/>
        <pt x="2289" y="943" on="1"/>
        <pt x="2289" y="941" on="0"/>
        <pt x="2284" y="929" on="0"/>
        <pt x="2278" y="914" on="0"/>
        <pt x="2272" y="898" on="0"/>
        <pt x="2270" y="893" on="1"/>
        <pt x="2269" y="891" on="0"/>
        <pt x="2267" y="885" on="0"/>
        <pt x="2265" y="882" on="1"/>
        <pt x="2261" y="874" on="1"/>
        <pt x="2261" y="823" on="1"/>
        <pt x="2261" y="823" on="0"/>
        <pt x="2258" y="815" on="0"/>
        <pt x="2254" y="806" on="0"/>
        <pt x="2250" y="797" on="0"/>
        <pt x="2249" y="796" on="1"/>
        <pt x="2247" y="794" on="0"/>
        <pt x="2242" y="778" on="0"/>
        <pt x="2242" y="777" on="1"/>
        <pt x="2242" y="775" on="0"/>
        <pt x="2239" y="764" on="0"/>
        <pt x="2237" y="752" on="0"/>
        <pt x="2235" y="743" on="0"/>
        <pt x="2235" y="742" on="1"/>
        <pt x="2235" y="740" on="0"/>
        <pt x="2229" y="731" on="0"/>
        <pt x="2221" y="722" on="0"/>
        <pt x="2215" y="714" on="0"/>
        <pt x="2215" y="713" on="1"/>
        <pt x="2206" y="699" on="0"/>
        <pt x="2193" y="662" on="0"/>
        <pt x="2183" y="623" on="0"/>
        <pt x="2176" y="585" on="0"/>
        <pt x="2173" y="569" on="1"/>
        <pt x="2170" y="554" on="0"/>
        <pt x="2153" y="528" on="0"/>
        <pt x="2133" y="504" on="0"/>
        <pt x="2115" y="479" on="0"/>
        <pt x="2111" y="465" on="1"/>
        <pt x="2102" y="440" on="0"/>
        <pt x="2092" y="390" on="0"/>
        <pt x="2081" y="367" on="1"/>
        <pt x="2081" y="365" on="0"/>
        <pt x="2075" y="355" on="0"/>
        <pt x="2067" y="344" on="0"/>
        <pt x="2061" y="333" on="0"/>
        <pt x="2061" y="332" on="1"/>
        <pt x="2058" y="326" on="0"/>
        <pt x="2047" y="293" on="0"/>
        <pt x="2033" y="256" on="0"/>
        <pt x="2022" y="222" on="0"/>
        <pt x="2019" y="215" on="1"/>
        <pt x="2019" y="201" on="1"/>
        <pt x="2019" y="181" on="0"/>
        <pt x="2040" y="150" on="0"/>
        <pt x="2054" y="138" on="1"/>
        <pt x="2065" y="138" on="0"/>
        <pt x="2089" y="140" on="0"/>
        <pt x="2102" y="140" on="1"/>
        <pt x="2143" y="140" on="0"/>
        <pt x="2224" y="121" on="0"/>
        <pt x="2249" y="90" on="1"/>
        <pt x="2252" y="86" on="0"/>
        <pt x="2261" y="71" on="0"/>
        <pt x="2261" y="69" on="1"/>
        <pt x="2261" y="67" on="0"/>
        <pt x="2262" y="65" on="1"/>
        <pt x="2262" y="63" on="0"/>
        <pt x="2263" y="60" on="0"/>
        <pt x="2263" y="59" on="1"/>
        <pt x="2263" y="50" on="0"/>
        <pt x="2261" y="43" on="0"/>
        <pt x="2254" y="35" on="1"/>
        <pt x="2236" y="5" on="0"/>
        <pt x="2206" y="-9" on="0"/>
        <pt x="2180" y="-9" on="1"/>
        <pt x="2147" y="-9" on="1"/>
        <pt x="2139" y="-9" on="0"/>
        <pt x="2106" y="-7" on="0"/>
        <pt x="2104" y="-7" on="1"/>
        <pt x="2101" y="-7" on="0"/>
        <pt x="2076" y="-5" on="0"/>
        <pt x="2047" y="-2" on="0"/>
        <pt x="2022" y="0" on="0"/>
        <pt x="2019" y="0" on="1"/>
        <pt x="1977" y="0" on="1"/>
        <pt x="1952" y="-33" on="0"/>
        <pt x="1908" y="-96" on="0"/>
        <pt x="1894" y="-131" on="1"/>
        <pt x="1887" y="-148" on="0"/>
        <pt x="1870" y="-187" on="0"/>
        <pt x="1866" y="-205" on="1"/>
        <pt x="1865" y="-215" on="0"/>
        <pt x="1860" y="-235" on="0"/>
        <pt x="1860" y="-246" on="1"/>
        <pt x="1860" y="-252" on="1"/>
        <pt x="1862" y="-264" on="0"/>
        <pt x="1882" y="-277" on="0"/>
        <pt x="1884" y="-288" on="1"/>
        <pt x="1896" y="-297" on="1"/>
        <pt x="1900" y="-304" on="0"/>
        <pt x="1914" y="-307" on="0"/>
        <pt x="1925" y="-308" on="1"/>
        <pt x="1983" y="-297" on="1"/>
        <pt x="1992" y="-297" on="0"/>
        <pt x="2001" y="-300" on="0"/>
        <pt x="2007" y="-303" on="0"/>
        <pt x="2014" y="-305" on="0"/>
        <pt x="2022" y="-305" on="1"/>
        <pt x="2046" y="-307" on="1"/>
        <pt x="2060" y="-307" on="0"/>
        <pt x="2060" y="-317" on="1"/>
        <pt x="2060" y="-319" on="0"/>
        <pt x="2058" y="-325" on="1"/>
        <pt x="2054" y="-333" on="0"/>
        <pt x="2043" y="-342" on="1"/>
        <pt x="2010" y="-370" on="0"/>
        <pt x="1935" y="-406" on="0"/>
        <pt x="1898" y="-416" on="1"/>
        <pt x="1868" y="-428" on="1"/>
        <pt x="1857" y="-430" on="0"/>
        <pt x="1829" y="-431" on="0"/>
        <pt x="1817" y="-431" on="1"/>
        <pt x="1808" y="-431" on="0"/>
        <pt x="1777" y="-427" on="0"/>
        <pt x="1766" y="-425" on="1"/>
        <pt x="1754" y="-418" on="1"/>
        <pt x="1742" y="-414" on="0"/>
        <pt x="1721" y="-402" on="0"/>
        <pt x="1710" y="-397" on="1"/>
        <pt x="1697" y="-388" on="1"/>
        <pt x="1692" y="-371" on="1"/>
        <pt x="1693" y="-362" on="1"/>
        <pt x="1693" y="-353" on="0"/>
        <pt x="1690" y="-336" on="0"/>
        <pt x="1688" y="-327" on="1"/>
        <pt x="1687" y="-322" on="0"/>
        <pt x="1687" y="-312" on="1"/>
        <pt x="1687" y="-295" on="0"/>
        <pt x="1697" y="-258" on="0"/>
        <pt x="1705" y="-238" on="1"/>
        <pt x="1710" y="-227" on="0"/>
        <pt x="1728" y="-195" on="0"/>
        <pt x="1735" y="-183" on="1"/>
        <pt x="1750" y="-154" on="1"/>
        <pt x="1774" y="-120" on="1"/>
        <pt x="1808" y="-84" on="1"/>
        <pt x="1833" y="-57" on="0"/>
        <pt x="1885" y="-17" on="0"/>
        <pt x="1916" y="0" on="1"/>
        <pt x="1811" y="0" on="1"/>
        <pt x="1805" y="5" on="0"/>
        <pt x="1790" y="7" on="0"/>
        <pt x="1782" y="7" on="1"/>
        <pt x="1770" y="7" on="1"/>
        <pt x="1755" y="7" on="0"/>
        <pt x="1726" y="0" on="0"/>
        <pt x="1696" y="-9" on="0"/>
        <pt x="1667" y="-16" on="0"/>
        <pt x="1652" y="-16" on="1"/>
        <pt x="1646" y="-16" on="0"/>
        <pt x="1613" y="-9" on="0"/>
        <pt x="1580" y="3" on="0"/>
        <pt x="1554" y="19" on="0"/>
        <pt x="1554" y="29" on="1"/>
        <pt x="1554" y="41" on="0"/>
        <pt x="1567" y="63" on="0"/>
        <pt x="1587" y="82" on="0"/>
        <pt x="1609" y="98" on="0"/>
        <pt x="1618" y="104" on="1"/>
        <pt x="1715" y="104" on="1"/>
        <pt x="1717" y="104" on="0"/>
        <pt x="1734" y="108" on="0"/>
        <pt x="1735" y="111" on="1"/>
        <pt x="1740" y="114" on="0"/>
        <pt x="1760" y="128" on="0"/>
        <pt x="1780" y="144" on="0"/>
        <pt x="1796" y="157" on="0"/>
        <pt x="1799" y="159" on="1"/>
        <pt x="1802" y="165" on="0"/>
        <pt x="1805" y="170" on="1"/>
        <pt x="1807" y="175" on="0"/>
        <pt x="1810" y="183" on="0"/>
        <pt x="1811" y="185" on="1"/>
        <pt x="1811" y="194" on="1"/>
        <pt x="1813" y="198" on="0"/>
        <pt x="1820" y="218" on="0"/>
        <pt x="1827" y="237" on="0"/>
        <pt x="1833" y="253" on="0"/>
        <pt x="1834" y="254" on="1"/>
        <pt x="1847" y="291" on="0"/>
        <pt x="1890" y="353" on="0"/>
        <pt x="1903" y="388" on="1"/>
        <pt x="1903" y="389" on="0"/>
        <pt x="1904" y="399" on="0"/>
        <pt x="1906" y="411" on="0"/>
        <pt x="1908" y="421" on="0"/>
        <pt x="1908" y="422" on="1"/>
        <pt x="1915" y="442" on="0"/>
        <pt x="1930" y="476" on="0"/>
        <pt x="1942" y="508" on="0"/>
        <pt x="1950" y="541" on="0"/>
        <pt x="1950" y="561" on="1"/>
        <pt x="1950" y="576" on="1"/>
        <pt x="1950" y="585" on="0"/>
        <pt x="1948" y="601" on="0"/>
        <pt x="1943" y="609" on="1"/>
        <pt x="1914" y="627" on="0"/>
        <pt x="1842" y="659" on="0"/>
        <pt x="1808" y="659" on="1"/>
        <pt x="1783" y="659" on="0"/>
        <pt x="1735" y="647" on="0"/>
        <pt x="1715" y="638" on="1"/>
        <pt x="1696" y="629" on="0"/>
        <pt x="1665" y="603" on="0"/>
        <pt x="1645" y="595" on="1"/>
        <pt x="1640" y="590" on="0"/>
        <pt x="1616" y="569" on="0"/>
        <pt x="1590" y="545" on="0"/>
        <pt x="1566" y="523" on="0"/>
        <pt x="1562" y="519" on="1"/>
        <pt x="1558" y="515" on="0"/>
        <pt x="1542" y="499" on="0"/>
        <pt x="1525" y="481" on="0"/>
        <pt x="1510" y="466" on="0"/>
        <pt x="1507" y="465" on="1"/>
        <pt x="1505" y="463" on="0"/>
        <pt x="1493" y="445" on="0"/>
        <pt x="1493" y="443" on="1"/>
        <pt x="1491" y="440" on="0"/>
        <pt x="1478" y="425" on="0"/>
        <pt x="1462" y="410" on="0"/>
        <pt x="1448" y="398" on="0"/>
        <pt x="1445" y="396" on="1"/>
        <pt x="1442" y="394" on="0"/>
        <pt x="1424" y="382" on="0"/>
        <pt x="1424" y="381" on="1"/>
        <pt x="1423" y="380" on="0"/>
        <pt x="1414" y="370" on="0"/>
        <pt x="1405" y="358" on="0"/>
        <pt x="1397" y="347" on="0"/>
        <pt x="1396" y="346" on="1"/>
        <pt x="1388" y="337" on="0"/>
        <pt x="1349" y="291" on="0"/>
        <pt x="1304" y="240" on="0"/>
        <pt x="1265" y="194" on="0"/>
        <pt x="1258" y="185" on="1"/>
        <pt x="1239" y="171" on="0"/>
        <pt x="1212" y="142" on="0"/>
        <pt x="1187" y="112" on="0"/>
        <pt x="1162" y="83" on="0"/>
        <pt x="1145" y="69" on="1"/>
        <pt x="1145" y="67" on="0"/>
        <pt x="1128" y="55" on="0"/>
        <pt x="1126" y="55" on="1"/>
        <pt x="1123" y="53" on="0"/>
        <pt x="1106" y="40" on="0"/>
        <pt x="1086" y="25" on="0"/>
        <pt x="1068" y="10" on="0"/>
        <pt x="1064" y="7" on="1"/>
        <pt x="1057" y="0" on="1"/>
        <pt x="1054" y="-2" on="0"/>
        <pt x="1034" y="-12" on="0"/>
        <pt x="1011" y="-24" on="0"/>
        <pt x="991" y="-34" on="0"/>
        <pt x="988" y="-35" on="1"/>
        <pt x="984" y="-38" on="0"/>
        <pt x="956" y="-58" on="0"/>
        <pt x="923" y="-81" on="0"/>
        <pt x="894" y="-101" on="0"/>
        <pt x="891" y="-104" on="1"/>
        <pt x="874" y="-115" on="0"/>
        <pt x="826" y="-124" on="0"/>
        <pt x="806" y="-126" on="1"/>
        <pt x="799" y="-126" on="0"/>
        <pt x="754" y="-128" on="0"/>
        <pt x="701" y="-129" on="0"/>
        <pt x="652" y="-131" on="0"/>
        <pt x="642" y="-131" on="1"/>
        <pt x="580" y="-131" on="1"/>
        <pt x="516" y="-131" on="0"/>
        <pt x="402" y="-110" on="0"/>
        <pt x="343" y="-85" on="1"/>
        <pt x="339" y="-82" on="0"/>
        <pt x="319" y="-71" on="0"/>
        <pt x="296" y="-57" on="0"/>
        <pt x="277" y="-45" on="0"/>
        <pt x="274" y="-42" on="1"/>
        <pt x="272" y="-41" on="0"/>
        <pt x="266" y="-33" on="0"/>
        <pt x="259" y="-24" on="0"/>
        <pt x="253" y="-16" on="0"/>
        <pt x="253" y="-16" on="1"/>
        <pt x="214" y="29" on="0"/>
        <pt x="137" y="111" on="0"/>
        <pt x="101" y="159" on="1"/>
        <pt x="99" y="162" on="0"/>
        <pt x="92" y="174" on="0"/>
        <pt x="85" y="188" on="0"/>
        <pt x="80" y="199" on="0"/>
        <pt x="80" y="201" on="1"/>
      </contour>
      <contour>
        <pt x="1799" y="804" on="1"/>
        <pt x="1799" y="796" on="1"/>
        <pt x="1808" y="771" on="0"/>
        <pt x="1840" y="742" on="0"/>
        <pt x="1869" y="742" on="1"/>
        <pt x="1888" y="742" on="1"/>
        <pt x="1889" y="742" on="0"/>
        <pt x="1907" y="747" on="0"/>
        <pt x="1908" y="747" on="1"/>
        <pt x="1972" y="747" on="1"/>
        <pt x="1980" y="748" on="0"/>
        <pt x="2002" y="754" on="0"/>
        <pt x="2024" y="762" on="0"/>
        <pt x="2042" y="774" on="0"/>
        <pt x="2047" y="782" on="1"/>
        <pt x="2049" y="785" on="0"/>
        <pt x="2057" y="800" on="0"/>
        <pt x="2066" y="818" on="0"/>
        <pt x="2074" y="835" on="0"/>
        <pt x="2076" y="839" on="1"/>
        <pt x="2076" y="841" on="0"/>
        <pt x="2081" y="856" on="0"/>
        <pt x="2081" y="858" on="1"/>
        <pt x="2082" y="860" on="0"/>
        <pt x="2091" y="871" on="0"/>
        <pt x="2101" y="883" on="0"/>
        <pt x="2109" y="892" on="0"/>
        <pt x="2111" y="893" on="1"/>
        <pt x="2111" y="894" on="0"/>
        <pt x="2116" y="904" on="0"/>
        <pt x="2116" y="908" on="1"/>
        <pt x="2125" y="926" on="0"/>
        <pt x="2130" y="966" on="0"/>
        <pt x="2138" y="984" on="1"/>
        <pt x="2138" y="1088" on="1"/>
        <pt x="2132" y="1093" on="1"/>
        <pt x="2130" y="1093" on="0"/>
        <pt x="2115" y="1097" on="0"/>
        <pt x="2111" y="1097" on="1"/>
        <pt x="2073" y="1097" on="0"/>
        <pt x="2010" y="1063" on="0"/>
        <pt x="1984" y="1031" on="1"/>
        <pt x="1984" y="1029" on="0"/>
        <pt x="1974" y="1014" on="0"/>
        <pt x="1972" y="1012" on="1"/>
        <pt x="1951" y="989" on="0"/>
        <pt x="1900" y="940" on="0"/>
        <pt x="1852" y="888" on="0"/>
        <pt x="1811" y="833" on="0"/>
      </contour>
    </TTGlyph>
    <TTGlyph name="Aring" xMin="-187" yMin="-16" xMax="1509" yMax="1809">
      <component glyphName="A" x="0" y="0" flags="0x204"/>
      <component glyphName="Ring" x="476" y="-59" flags="0x4"/>
    </TTGlyph>
    <TTGlyph name="Aring.swash" xMin="80" yMin="-131" xMax="2851" yMax="1868">
      <component glyphName="A.swash" x="0" y="0" flags="0x204"/>
      <component glyphName="Ring" x="1452" y="0" flags="0x4"/>
    </TTGlyph>
    <TTGlyph name="Atilde" xMin="-187" yMin="-16" xMax="1651" yMax="1745">
      <component glyphName="A" x="0" y="0" flags="0x204"/>
      <component glyphName="Tilde" x="540" y="-99" flags="0x4"/>
    </TTGlyph>
    <TTGlyph name="Atilde.swash" xMin="80" yMin="-131" xMax="2851" yMax="1844">
      <component glyphName="A.swash" x="0" y="0" flags="0x204"/>
      <component glyphName="Tilde" x="1484" y="0" flags="0x4"/>
    </TTGlyph>
    <TTGlyph name="B" xMin="-58" yMin="-69" xMax="1464" yMax="1424">
      <contour>
        <pt x="1137" y="1272" on="1"/>
        <pt x="1105" y="1290" on="0"/>
        <pt x="1029" y="1313" on="0"/>
        <pt x="990" y="1320" on="1"/>
        <pt x="985" y="1320" on="0"/>
        <pt x="968" y="1314" on="0"/>
        <pt x="957" y="1310" on="1"/>
        <pt x="893" y="1244" on="1"/>
        <pt x="891" y="1242" on="0"/>
        <pt x="881" y="1230" on="0"/>
        <pt x="868" y="1214" on="0"/>
        <pt x="854" y="1197" on="0"/>
        <pt x="850" y="1190" on="1"/>
        <pt x="845" y="1177" on="0"/>
        <pt x="834" y="1152" on="0"/>
        <pt x="828" y="1140" on="1"/>
        <pt x="826" y="1135" on="0"/>
        <pt x="811" y="1109" on="0"/>
        <pt x="800" y="1095" on="1"/>
        <pt x="791" y="1075" on="0"/>
        <pt x="775" y="1038" on="0"/>
        <pt x="756" y="1004" on="0"/>
        <pt x="731" y="973" on="0"/>
        <pt x="713" y="960" on="1"/>
        <pt x="716" y="949" on="0"/>
        <pt x="706" y="921" on="0"/>
        <pt x="691" y="889" on="0"/>
        <pt x="677" y="855" on="0"/>
        <pt x="677" y="839" on="1"/>
        <pt x="677" y="831" on="0"/>
        <pt x="679" y="806" on="0"/>
        <pt x="686" y="801" on="1"/>
        <pt x="692" y="795" on="0"/>
        <pt x="719" y="788" on="0"/>
        <pt x="751" y="785" on="0"/>
        <pt x="782" y="785" on="0"/>
        <pt x="791" y="785" on="1"/>
        <pt x="805" y="785" on="0"/>
        <pt x="823" y="794" on="0"/>
        <pt x="836" y="794" on="1"/>
        <pt x="859" y="794" on="0"/>
        <pt x="893" y="785" on="0"/>
        <pt x="914" y="785" on="1"/>
        <pt x="949" y="785" on="1"/>
        <pt x="953" y="797" on="0"/>
        <pt x="966" y="812" on="0"/>
        <pt x="982" y="822" on="0"/>
        <pt x="1002" y="831" on="0"/>
        <pt x="1013" y="836" on="1"/>
        <pt x="1017" y="837" on="0"/>
        <pt x="1041" y="847" on="0"/>
        <pt x="1067" y="858" on="0"/>
        <pt x="1090" y="868" on="0"/>
        <pt x="1094" y="870" on="1"/>
        <pt x="1101" y="878" on="0"/>
        <pt x="1121" y="891" on="0"/>
        <pt x="1130" y="898" on="1"/>
        <pt x="1133" y="901" on="0"/>
        <pt x="1146" y="909" on="0"/>
        <pt x="1160" y="918" on="0"/>
        <pt x="1170" y="925" on="0"/>
        <pt x="1172" y="926" on="1"/>
        <pt x="1183" y="931" on="0"/>
        <pt x="1205" y="935" on="0"/>
        <pt x="1213" y="946" on="1"/>
        <pt x="1216" y="949" on="0"/>
        <pt x="1226" y="964" on="0"/>
        <pt x="1237" y="980" on="0"/>
        <pt x="1246" y="993" on="0"/>
        <pt x="1248" y="995" on="1"/>
        <pt x="1249" y="996" on="0"/>
        <pt x="1250" y="1001" on="0"/>
        <pt x="1252" y="1003" on="1"/>
        <pt x="1253" y="1006" on="0"/>
        <pt x="1255" y="1009" on="1"/>
        <pt x="1262" y="1023" on="0"/>
        <pt x="1267" y="1052" on="0"/>
        <pt x="1267" y="1067" on="1"/>
        <pt x="1267" y="1083" on="0"/>
        <pt x="1262" y="1112" on="0"/>
        <pt x="1255" y="1128" on="1"/>
        <pt x="1255" y="1130" on="0"/>
        <pt x="1244" y="1152" on="0"/>
        <pt x="1239" y="1163" on="1"/>
        <pt x="1224" y="1175" on="1"/>
        <pt x="1222" y="1181" on="0"/>
        <pt x="1216" y="1192" on="0"/>
        <pt x="1213" y="1199" on="1"/>
        <pt x="1207" y="1207" on="0"/>
        <pt x="1194" y="1225" on="0"/>
        <pt x="1186" y="1232" on="1"/>
        <pt x="1184" y="1232" on="0"/>
        <pt x="1178" y="1236" on="0"/>
        <pt x="1174" y="1238" on="1"/>
        <pt x="1170" y="1241" on="0"/>
        <pt x="1165" y="1244" on="1"/>
      </contour>
      <contour>
        <pt x="378" y="145" on="1"/>
        <pt x="378" y="125" on="0"/>
        <pt x="412" y="100" on="0"/>
        <pt x="428" y="92" on="1"/>
        <pt x="463" y="92" on="1"/>
        <pt x="519" y="92" on="0"/>
        <pt x="635" y="110" on="0"/>
        <pt x="693" y="112" on="1"/>
        <pt x="697" y="120" on="0"/>
        <pt x="705" y="126" on="0"/>
        <pt x="715" y="129" on="0"/>
        <pt x="726" y="130" on="0"/>
        <pt x="732" y="133" on="1"/>
        <pt x="735" y="135" on="0"/>
        <pt x="753" y="145" on="0"/>
        <pt x="755" y="147" on="1"/>
        <pt x="756" y="147" on="0"/>
        <pt x="767" y="151" on="0"/>
        <pt x="779" y="156" on="0"/>
        <pt x="789" y="160" on="0"/>
        <pt x="789" y="161" on="1"/>
        <pt x="792" y="163" on="0"/>
        <pt x="808" y="171" on="0"/>
        <pt x="810" y="173" on="1"/>
        <pt x="838" y="198" on="0"/>
        <pt x="886" y="247" on="0"/>
        <pt x="925" y="299" on="0"/>
        <pt x="953" y="359" on="0"/>
        <pt x="962" y="396" on="1"/>
        <pt x="962" y="398" on="0"/>
        <pt x="963" y="400" on="1"/>
        <pt x="963" y="402" on="0"/>
        <pt x="964" y="405" on="0"/>
        <pt x="964" y="407" on="1"/>
        <pt x="964" y="408" on="0"/>
        <pt x="963" y="412" on="0"/>
        <pt x="963" y="414" on="1"/>
        <pt x="962" y="417" on="0"/>
        <pt x="962" y="419" on="1"/>
        <pt x="962" y="425" on="0"/>
        <pt x="960" y="450" on="0"/>
        <pt x="958" y="477" on="0"/>
        <pt x="956" y="499" on="0"/>
        <pt x="956" y="502" on="1"/>
        <pt x="956" y="507" on="0"/>
        <pt x="948" y="537" on="0"/>
        <pt x="943" y="543" on="1"/>
        <pt x="942" y="544" on="0"/>
        <pt x="934" y="552" on="0"/>
        <pt x="924" y="561" on="0"/>
        <pt x="915" y="569" on="0"/>
        <pt x="914" y="571" on="1"/>
        <pt x="913" y="572" on="0"/>
        <pt x="905" y="582" on="0"/>
        <pt x="895" y="594" on="0"/>
        <pt x="887" y="604" on="0"/>
        <pt x="886" y="605" on="1"/>
        <pt x="824" y="670" on="1"/>
        <pt x="816" y="677" on="0"/>
        <pt x="793" y="683" on="0"/>
        <pt x="769" y="687" on="0"/>
        <pt x="743" y="692" on="0"/>
        <pt x="732" y="697" on="1"/>
        <pt x="710" y="706" on="0"/>
        <pt x="668" y="725" on="0"/>
        <pt x="642" y="725" on="1"/>
        <pt x="626" y="725" on="0"/>
        <pt x="597" y="702" on="0"/>
        <pt x="574" y="669" on="0"/>
        <pt x="557" y="633" on="0"/>
        <pt x="554" y="619" on="1"/>
        <pt x="553" y="617" on="0"/>
        <pt x="548" y="601" on="0"/>
        <pt x="543" y="582" on="0"/>
        <pt x="539" y="565" on="0"/>
        <pt x="539" y="562" on="1"/>
        <pt x="534" y="549" on="0"/>
        <pt x="515" y="535" on="0"/>
        <pt x="513" y="522" on="1"/>
        <pt x="511" y="517" on="0"/>
        <pt x="500" y="487" on="0"/>
        <pt x="488" y="452" on="0"/>
        <pt x="477" y="423" on="0"/>
        <pt x="476" y="419" on="1"/>
        <pt x="468" y="393" on="0"/>
        <pt x="443" y="355" on="0"/>
        <pt x="418" y="319" on="0"/>
        <pt x="397" y="278" on="0"/>
        <pt x="393" y="251" on="1"/>
        <pt x="391" y="230" on="0"/>
        <pt x="378" y="171" on="0"/>
      </contour>
      <contour>
        <pt x="-58" y="-12" on="1"/>
        <pt x="-58" y="-2" on="0"/>
        <pt x="-56" y="25" on="0"/>
        <pt x="-50" y="51" on="0"/>
        <pt x="-36" y="71" on="0"/>
        <pt x="-24" y="76" on="1"/>
        <pt x="-23" y="77" on="0"/>
        <pt x="-10" y="79" on="0"/>
        <pt x="4" y="82" on="0"/>
        <pt x="16" y="84" on="0"/>
        <pt x="18" y="85" on="1"/>
        <pt x="47" y="91" on="0"/>
        <pt x="103" y="132" on="0"/>
        <pt x="123" y="154" on="1"/>
        <pt x="161" y="201" on="0"/>
        <pt x="211" y="320" on="0"/>
        <pt x="234" y="377" on="1"/>
        <pt x="241" y="393" on="0"/>
        <pt x="264" y="421" on="0"/>
        <pt x="269" y="439" on="1"/>
        <pt x="269" y="441" on="0"/>
        <pt x="273" y="458" on="0"/>
        <pt x="278" y="476" on="0"/>
        <pt x="281" y="492" on="0"/>
        <pt x="281" y="493" on="1"/>
        <pt x="282" y="496" on="0"/>
        <pt x="289" y="511" on="0"/>
        <pt x="298" y="529" on="0"/>
        <pt x="307" y="546" on="0"/>
        <pt x="309" y="550" on="1"/>
        <pt x="311" y="553" on="0"/>
        <pt x="321" y="569" on="0"/>
        <pt x="333" y="587" on="0"/>
        <pt x="342" y="603" on="0"/>
        <pt x="343" y="605" on="1"/>
        <pt x="356" y="629" on="0"/>
        <pt x="379" y="681" on="0"/>
        <pt x="393" y="704" on="1"/>
        <pt x="396" y="706" on="0"/>
        <pt x="400" y="709" on="1"/>
        <pt x="402" y="711" on="0"/>
        <pt x="407" y="715" on="0"/>
        <pt x="407" y="716" on="1"/>
        <pt x="411" y="721" on="0"/>
        <pt x="428" y="742" on="0"/>
        <pt x="428" y="744" on="1"/>
        <pt x="429" y="745" on="0"/>
        <pt x="431" y="756" on="0"/>
        <pt x="433" y="768" on="0"/>
        <pt x="435" y="778" on="0"/>
        <pt x="435" y="778" on="1"/>
        <pt x="436" y="779" on="0"/>
        <pt x="441" y="790" on="0"/>
        <pt x="447" y="804" on="0"/>
        <pt x="454" y="817" on="0"/>
        <pt x="456" y="820" on="1"/>
        <pt x="457" y="823" on="0"/>
        <pt x="467" y="841" on="0"/>
        <pt x="479" y="862" on="0"/>
        <pt x="489" y="880" on="0"/>
        <pt x="490" y="882" on="1"/>
        <pt x="490" y="912" on="1"/>
        <pt x="495" y="946" on="0"/>
        <pt x="534" y="1000" on="0"/>
        <pt x="554" y="1029" on="1"/>
        <pt x="559" y="1038" on="0"/>
        <pt x="565" y="1048" on="0"/>
        <pt x="570" y="1058" on="0"/>
        <pt x="577" y="1070" on="0"/>
        <pt x="585" y="1081" on="1"/>
        <pt x="588" y="1088" on="0"/>
        <pt x="590" y="1099" on="0"/>
        <pt x="594" y="1105" on="1"/>
        <pt x="594" y="1106" on="0"/>
        <pt x="599" y="1116" on="0"/>
        <pt x="607" y="1128" on="0"/>
        <pt x="613" y="1139" on="0"/>
        <pt x="615" y="1140" on="1"/>
        <pt x="615" y="1141" on="0"/>
        <pt x="619" y="1151" on="0"/>
        <pt x="624" y="1163" on="0"/>
        <pt x="628" y="1173" on="0"/>
        <pt x="629" y="1175" on="1"/>
        <pt x="629" y="1175" on="0"/>
        <pt x="633" y="1183" on="0"/>
        <pt x="637" y="1193" on="0"/>
        <pt x="642" y="1203" on="0"/>
        <pt x="642" y="1206" on="1"/>
        <pt x="642" y="1222" on="0"/>
        <pt x="621" y="1249" on="0"/>
        <pt x="608" y="1258" on="1"/>
        <pt x="605" y="1259" on="0"/>
        <pt x="585" y="1269" on="0"/>
        <pt x="562" y="1280" on="0"/>
        <pt x="542" y="1290" on="0"/>
        <pt x="539" y="1292" on="1"/>
        <pt x="520" y="1301" on="0"/>
        <pt x="511" y="1324" on="0"/>
        <pt x="511" y="1344" on="1"/>
        <pt x="511" y="1358" on="1"/>
        <pt x="511" y="1362" on="0"/>
        <pt x="512" y="1369" on="0"/>
        <pt x="516" y="1374" on="1"/>
        <pt x="517" y="1374" on="0"/>
        <pt x="527" y="1381" on="0"/>
        <pt x="539" y="1390" on="0"/>
        <pt x="549" y="1399" on="0"/>
        <pt x="551" y="1401" on="1"/>
        <pt x="553" y="1403" on="0"/>
        <pt x="561" y="1409" on="0"/>
        <pt x="565" y="1411" on="1"/>
        <pt x="569" y="1414" on="0"/>
        <pt x="573" y="1417" on="1"/>
        <pt x="677" y="1417" on="1"/>
        <pt x="683" y="1420" on="0"/>
        <pt x="692" y="1422" on="0"/>
        <pt x="703" y="1424" on="0"/>
        <pt x="719" y="1424" on="0"/>
        <pt x="732" y="1424" on="1"/>
        <pt x="738" y="1424" on="0"/>
        <pt x="783" y="1422" on="0"/>
        <pt x="834" y="1419" on="0"/>
        <pt x="879" y="1417" on="0"/>
        <pt x="885" y="1417" on="1"/>
        <pt x="892" y="1416" on="0"/>
        <pt x="922" y="1415" on="0"/>
        <pt x="960" y="1415" on="0"/>
        <pt x="1005" y="1415" on="0"/>
        <pt x="1028" y="1415" on="1"/>
        <pt x="1051" y="1415" on="0"/>
        <pt x="1096" y="1415" on="0"/>
        <pt x="1135" y="1415" on="0"/>
        <pt x="1165" y="1416" on="0"/>
        <pt x="1174" y="1417" on="1"/>
        <pt x="1178" y="1415" on="0"/>
        <pt x="1197" y="1410" on="0"/>
        <pt x="1217" y="1403" on="0"/>
        <pt x="1235" y="1397" on="0"/>
        <pt x="1238" y="1396" on="1"/>
        <pt x="1251" y="1391" on="0"/>
        <pt x="1268" y="1373" on="0"/>
        <pt x="1277" y="1367" on="1"/>
        <pt x="1280" y="1367" on="0"/>
        <pt x="1291" y="1362" on="0"/>
        <pt x="1293" y="1362" on="1"/>
        <pt x="1306" y="1351" on="0"/>
        <pt x="1323" y="1337" on="0"/>
        <pt x="1340" y="1321" on="0"/>
        <pt x="1365" y="1298" on="0"/>
        <pt x="1386" y="1278" on="1"/>
        <pt x="1407" y="1264" on="0"/>
        <pt x="1435" y="1220" on="0"/>
        <pt x="1449" y="1197" on="1"/>
        <pt x="1449" y="1189" on="0"/>
        <pt x="1454" y="1153" on="0"/>
        <pt x="1459" y="1112" on="0"/>
        <pt x="1463" y="1074" on="0"/>
        <pt x="1464" y="1064" on="1"/>
        <pt x="1464" y="1044" on="0"/>
        <pt x="1448" y="1012" on="0"/>
        <pt x="1442" y="995" on="1"/>
        <pt x="1416" y="923" on="0"/>
        <pt x="1339" y="811" on="0"/>
        <pt x="1276" y="766" on="1"/>
        <pt x="1269" y="760" on="0"/>
        <pt x="1245" y="748" on="0"/>
        <pt x="1219" y="736" on="0"/>
        <pt x="1194" y="726" on="0"/>
        <pt x="1186" y="723" on="1"/>
        <pt x="1175" y="720" on="0"/>
        <pt x="1145" y="715" on="0"/>
        <pt x="1119" y="707" on="0"/>
        <pt x="1101" y="690" on="0"/>
        <pt x="1101" y="675" on="1"/>
        <pt x="1101" y="663" on="1"/>
        <pt x="1101" y="647" on="0"/>
        <pt x="1106" y="611" on="0"/>
        <pt x="1116" y="600" on="1"/>
        <pt x="1123" y="592" on="0"/>
        <pt x="1142" y="580" on="0"/>
        <pt x="1160" y="568" on="0"/>
        <pt x="1172" y="553" on="0"/>
        <pt x="1172" y="540" on="1"/>
        <pt x="1172" y="522" on="0"/>
        <pt x="1151" y="495" on="0"/>
        <pt x="1144" y="481" on="1"/>
        <pt x="1144" y="413" on="1"/>
        <pt x="1144" y="373" on="0"/>
        <pt x="1151" y="292" on="0"/>
        <pt x="1151" y="249" on="1"/>
        <pt x="1131" y="205" on="0"/>
        <pt x="1075" y="139" on="0"/>
        <pt x="1047" y="104" on="1"/>
        <pt x="1045" y="102" on="0"/>
        <pt x="1031" y="84" on="0"/>
        <pt x="1025" y="76" on="1"/>
        <pt x="991" y="51" on="0"/>
        <pt x="920" y="21" on="0"/>
        <pt x="845" y="4" on="0"/>
        <pt x="766" y="-2" on="0"/>
        <pt x="725" y="-2" on="1"/>
        <pt x="710" y="-2" on="0"/>
        <pt x="679" y="0" on="0"/>
        <pt x="663" y="0" on="1"/>
        <pt x="652" y="-9" on="0"/>
        <pt x="625" y="-14" on="0"/>
        <pt x="611" y="-14" on="1"/>
        <pt x="589" y="-14" on="1"/>
        <pt x="584" y="-14" on="0"/>
        <pt x="567" y="-13" on="0"/>
        <pt x="551" y="-13" on="0"/>
        <pt x="539" y="-12" on="0"/>
        <pt x="539" y="-12" on="1"/>
        <pt x="537" y="-12" on="0"/>
        <pt x="512" y="-5" on="0"/>
        <pt x="504" y="-5" on="1"/>
        <pt x="498" y="-9" on="1"/>
        <pt x="493" y="-12" on="0"/>
        <pt x="490" y="-12" on="1"/>
        <pt x="486" y="-14" on="0"/>
        <pt x="464" y="-19" on="0"/>
        <pt x="463" y="-21" on="1"/>
        <pt x="388" y="-21" on="1"/>
        <pt x="359" y="-21" on="1"/>
        <pt x="356" y="-21" on="0"/>
        <pt x="343" y="-23" on="0"/>
        <pt x="328" y="-25" on="0"/>
        <pt x="313" y="-27" on="0"/>
        <pt x="309" y="-28" on="1"/>
        <pt x="307" y="-28" on="0"/>
        <pt x="292" y="-32" on="0"/>
        <pt x="273" y="-36" on="0"/>
        <pt x="257" y="-40" on="0"/>
        <pt x="255" y="-40" on="1"/>
        <pt x="250" y="-41" on="0"/>
        <pt x="212" y="-44" on="0"/>
        <pt x="167" y="-46" on="0"/>
        <pt x="128" y="-47" on="0"/>
        <pt x="123" y="-47" on="1"/>
        <pt x="118" y="-47" on="0"/>
        <pt x="82" y="-54" on="0"/>
        <pt x="41" y="-61" on="0"/>
        <pt x="3" y="-68" on="0"/>
        <pt x="-3" y="-69" on="1"/>
        <pt x="-30" y="-69" on="0"/>
        <pt x="-58" y="-39" on="0"/>
      </contour>
    </TTGlyph>
    <TTGlyph name="Breve" xMin="505" yMin="1586" xMax="951" yMax="1868">
      <contour>
        <pt x="666" y="1586" on="1"/>
        <pt x="658" y="1586" on="0"/>
        <pt x="642" y="1587" on="0"/>
        <pt x="635" y="1589" on="1"/>
        <pt x="635" y="1589" on="0"/>
        <pt x="622" y="1593" on="0"/>
        <pt x="608" y="1598" on="0"/>
        <pt x="597" y="1602" on="0"/>
        <pt x="597" y="1602" on="1"/>
        <pt x="584" y="1604" on="1"/>
        <pt x="570" y="1606" on="0"/>
        <pt x="558" y="1625" on="0"/>
        <pt x="552" y="1629" on="1"/>
        <pt x="538" y="1638" on="1"/>
        <pt x="530" y="1647" on="0"/>
        <pt x="523" y="1670" on="0"/>
        <pt x="518" y="1694" on="0"/>
        <pt x="512" y="1719" on="0"/>
        <pt x="506" y="1730" on="1"/>
        <pt x="508" y="1745" on="1"/>
        <pt x="506" y="1755" on="1"/>
        <pt x="505" y="1756" on="0"/>
        <pt x="505" y="1761" on="1"/>
        <pt x="505" y="1765" on="0"/>
        <pt x="506" y="1768" on="1"/>
        <pt x="510" y="1780" on="1"/>
        <pt x="518" y="1818" on="1"/>
        <pt x="520" y="1826" on="0"/>
        <pt x="521" y="1846" on="0"/>
        <pt x="523" y="1854" on="1"/>
        <pt x="533" y="1868" on="0"/>
        <pt x="548" y="1868" on="1"/>
        <pt x="561" y="1868" on="0"/>
        <pt x="568" y="1854" on="1"/>
        <pt x="567" y="1850" on="0"/>
        <pt x="567" y="1842" on="1"/>
        <pt x="567" y="1834" on="0"/>
        <pt x="568" y="1830" on="1"/>
        <pt x="570" y="1819" on="0"/>
        <pt x="586" y="1797" on="0"/>
        <pt x="588" y="1786" on="1"/>
        <pt x="589" y="1780" on="1"/>
        <pt x="591" y="1772" on="0"/>
        <pt x="594" y="1757" on="0"/>
        <pt x="601" y="1750" on="1"/>
        <pt x="612" y="1739" on="0"/>
        <pt x="649" y="1719" on="0"/>
        <pt x="665" y="1716" on="1"/>
        <pt x="677" y="1714" on="0"/>
        <pt x="695" y="1712" on="0"/>
        <pt x="705" y="1709" on="1"/>
        <pt x="712" y="1707" on="0"/>
        <pt x="722" y="1702" on="0"/>
        <pt x="729" y="1702" on="1"/>
        <pt x="736" y="1702" on="0"/>
        <pt x="740" y="1704" on="1"/>
        <pt x="748" y="1708" on="0"/>
        <pt x="755" y="1710" on="0"/>
        <pt x="757" y="1710" on="1"/>
        <pt x="758" y="1711" on="1"/>
        <pt x="759" y="1712" on="0"/>
        <pt x="759" y="1713" on="0"/>
        <pt x="760" y="1714" on="1"/>
        <pt x="761" y="1716" on="0"/>
        <pt x="763" y="1719" on="1"/>
        <pt x="776" y="1728" on="1"/>
        <pt x="821" y="1745" on="1"/>
        <pt x="827" y="1749" on="1"/>
        <pt x="842" y="1758" on="1"/>
        <pt x="843" y="1759" on="0"/>
        <pt x="846" y="1761" on="0"/>
        <pt x="846" y="1763" on="1"/>
        <pt x="850" y="1766" on="1"/>
        <pt x="858" y="1772" on="0"/>
        <pt x="870" y="1800" on="0"/>
        <pt x="881" y="1810" on="1"/>
        <pt x="886" y="1814" on="1"/>
        <pt x="889" y="1822" on="1"/>
        <pt x="906" y="1854" on="1"/>
        <pt x="916" y="1868" on="0"/>
        <pt x="931" y="1868" on="1"/>
        <pt x="939" y="1868" on="0"/>
        <pt x="947" y="1859" on="0"/>
        <pt x="951" y="1854" on="1"/>
        <pt x="944" y="1821" on="1"/>
        <pt x="941" y="1810" on="0"/>
        <pt x="934" y="1784" on="0"/>
        <pt x="930" y="1775" on="1"/>
        <pt x="922" y="1760" on="0"/>
        <pt x="900" y="1727" on="0"/>
        <pt x="895" y="1716" on="1"/>
        <pt x="887" y="1701" on="0"/>
        <pt x="876" y="1677" on="0"/>
        <pt x="867" y="1666" on="1"/>
        <pt x="850" y="1645" on="0"/>
        <pt x="811" y="1616" on="0"/>
        <pt x="789" y="1610" on="1"/>
        <pt x="779" y="1607" on="0"/>
        <pt x="763" y="1600" on="0"/>
        <pt x="747" y="1594" on="0"/>
        <pt x="729" y="1589" on="0"/>
        <pt x="717" y="1588" on="1"/>
        <pt x="707" y="1587" on="0"/>
        <pt x="687" y="1586" on="0"/>
        <pt x="679" y="1586" on="1"/>
      </contour>
    </TTGlyph>
    <TTGlyph name="C" xMin="189" yMin="-14" xMax="1448" yMax="1424">
      <contour>
        <pt x="488" y="0" on="1"/>
        <pt x="475" y="8" on="0"/>
        <pt x="443" y="25" on="0"/>
        <pt x="426" y="28" on="1"/>
        <pt x="425" y="28" on="0"/>
        <pt x="416" y="31" on="0"/>
        <pt x="404" y="33" on="0"/>
        <pt x="393" y="35" on="0"/>
        <pt x="391" y="35" on="1"/>
        <pt x="391" y="36" on="0"/>
        <pt x="370" y="57" on="0"/>
        <pt x="363" y="62" on="1"/>
        <pt x="361" y="65" on="0"/>
        <pt x="349" y="79" on="0"/>
        <pt x="336" y="96" on="0"/>
        <pt x="324" y="110" on="0"/>
        <pt x="322" y="112" on="1"/>
        <pt x="313" y="124" on="0"/>
        <pt x="284" y="141" on="0"/>
        <pt x="275" y="154" on="1"/>
        <pt x="257" y="177" on="0"/>
        <pt x="243" y="221" on="0"/>
        <pt x="232" y="251" on="1"/>
        <pt x="215" y="298" on="0"/>
        <pt x="189" y="395" on="0"/>
        <pt x="190" y="445" on="1"/>
        <pt x="193" y="513" on="0"/>
        <pt x="220" y="644" on="0"/>
        <pt x="232" y="709" on="1"/>
        <pt x="233" y="710" on="0"/>
        <pt x="234" y="725" on="0"/>
        <pt x="236" y="742" on="0"/>
        <pt x="237" y="757" on="0"/>
        <pt x="237" y="759" on="1"/>
        <pt x="238" y="760" on="0"/>
        <pt x="244" y="772" on="0"/>
        <pt x="251" y="787" on="0"/>
        <pt x="258" y="802" on="0"/>
        <pt x="260" y="806" on="1"/>
        <pt x="261" y="810" on="0"/>
        <pt x="273" y="832" on="0"/>
        <pt x="275" y="834" on="1"/>
        <pt x="275" y="836" on="0"/>
        <pt x="278" y="851" on="0"/>
        <pt x="283" y="868" on="0"/>
        <pt x="287" y="883" on="0"/>
        <pt x="287" y="884" on="1"/>
        <pt x="288" y="886" on="0"/>
        <pt x="300" y="902" on="0"/>
        <pt x="315" y="921" on="0"/>
        <pt x="328" y="936" on="0"/>
        <pt x="329" y="938" on="1"/>
        <pt x="330" y="940" on="0"/>
        <pt x="336" y="955" on="0"/>
        <pt x="343" y="972" on="0"/>
        <pt x="349" y="986" on="0"/>
        <pt x="350" y="988" on="1"/>
        <pt x="382" y="1047" on="0"/>
        <pt x="477" y="1148" on="0"/>
        <pt x="523" y="1195" on="1"/>
        <pt x="533" y="1205" on="0"/>
        <pt x="549" y="1218" on="0"/>
        <pt x="566" y="1230" on="0"/>
        <pt x="582" y="1244" on="0"/>
        <pt x="592" y="1253" on="1"/>
        <pt x="594" y="1253" on="0"/>
        <pt x="605" y="1263" on="0"/>
        <pt x="616" y="1275" on="0"/>
        <pt x="626" y="1286" on="0"/>
        <pt x="626" y="1287" on="1"/>
        <pt x="629" y="1289" on="0"/>
        <pt x="647" y="1292" on="0"/>
        <pt x="649" y="1292" on="1"/>
        <pt x="651" y="1295" on="0"/>
        <pt x="668" y="1306" on="0"/>
        <pt x="670" y="1308" on="1"/>
        <pt x="672" y="1308" on="0"/>
        <pt x="688" y="1315" on="0"/>
        <pt x="690" y="1315" on="1"/>
        <pt x="702" y="1319" on="0"/>
        <pt x="722" y="1334" on="0"/>
        <pt x="742" y="1351" on="0"/>
        <pt x="761" y="1365" on="0"/>
        <pt x="773" y="1370" on="1"/>
        <pt x="775" y="1371" on="0"/>
        <pt x="790" y="1376" on="0"/>
        <pt x="806" y="1380" on="0"/>
        <pt x="820" y="1383" on="0"/>
        <pt x="822" y="1384" on="1"/>
        <pt x="824" y="1384" on="0"/>
        <pt x="835" y="1391" on="0"/>
        <pt x="837" y="1391" on="1"/>
        <pt x="840" y="1393" on="0"/>
        <pt x="861" y="1396" on="0"/>
        <pt x="865" y="1396" on="1"/>
        <pt x="867" y="1398" on="0"/>
        <pt x="877" y="1398" on="1"/>
        <pt x="888" y="1398" on="0"/>
        <pt x="910" y="1396" on="0"/>
        <pt x="912" y="1396" on="1"/>
        <pt x="923" y="1398" on="0"/>
        <pt x="939" y="1406" on="0"/>
        <pt x="954" y="1413" on="0"/>
        <pt x="970" y="1419" on="0"/>
        <pt x="981" y="1419" on="1"/>
        <pt x="1001" y="1421" on="0"/>
        <pt x="1039" y="1424" on="0"/>
        <pt x="1059" y="1424" on="1"/>
        <pt x="1084" y="1424" on="0"/>
        <pt x="1133" y="1421" on="0"/>
        <pt x="1158" y="1419" on="1"/>
        <pt x="1159" y="1417" on="0"/>
        <pt x="1175" y="1407" on="0"/>
        <pt x="1177" y="1405" on="1"/>
        <pt x="1180" y="1403" on="0"/>
        <pt x="1205" y="1389" on="0"/>
        <pt x="1233" y="1373" on="0"/>
        <pt x="1258" y="1358" on="0"/>
        <pt x="1261" y="1356" on="1"/>
        <pt x="1262" y="1355" on="0"/>
        <pt x="1277" y="1345" on="0"/>
        <pt x="1295" y="1332" on="0"/>
        <pt x="1312" y="1319" on="0"/>
        <pt x="1317" y="1315" on="1"/>
        <pt x="1318" y="1313" on="0"/>
        <pt x="1320" y="1311" on="1"/>
        <pt x="1321" y="1308" on="0"/>
        <pt x="1324" y="1308" on="1"/>
        <pt x="1325" y="1305" on="0"/>
        <pt x="1340" y="1286" on="0"/>
        <pt x="1358" y="1264" on="0"/>
        <pt x="1376" y="1246" on="0"/>
        <pt x="1379" y="1246" on="1"/>
        <pt x="1391" y="1243" on="0"/>
        <pt x="1416" y="1233" on="0"/>
        <pt x="1436" y="1215" on="0"/>
        <pt x="1448" y="1187" on="0"/>
        <pt x="1448" y="1166" on="1"/>
        <pt x="1448" y="1149" on="0"/>
        <pt x="1427" y="1119" on="0"/>
        <pt x="1420" y="1105" on="1"/>
        <pt x="1409" y="1083" on="0"/>
        <pt x="1386" y="1032" on="0"/>
        <pt x="1379" y="1007" on="1"/>
        <pt x="1378" y="1006" on="0"/>
        <pt x="1376" y="997" on="0"/>
        <pt x="1374" y="985" on="0"/>
        <pt x="1371" y="974" on="0"/>
        <pt x="1370" y="972" on="1"/>
        <pt x="1361" y="946" on="0"/>
        <pt x="1309" y="910" on="0"/>
        <pt x="1280" y="910" on="1"/>
        <pt x="1273" y="910" on="0"/>
        <pt x="1256" y="916" on="0"/>
        <pt x="1242" y="927" on="0"/>
        <pt x="1232" y="942" on="0"/>
        <pt x="1232" y="951" on="1"/>
        <pt x="1232" y="960" on="1"/>
        <pt x="1233" y="966" on="0"/>
        <pt x="1236" y="986" on="0"/>
        <pt x="1238" y="1006" on="0"/>
        <pt x="1239" y="1021" on="0"/>
        <pt x="1239" y="1022" on="1"/>
        <pt x="1240" y="1023" on="0"/>
        <pt x="1243" y="1035" on="0"/>
        <pt x="1248" y="1051" on="0"/>
        <pt x="1252" y="1066" on="0"/>
        <pt x="1254" y="1071" on="1"/>
        <pt x="1254" y="1073" on="0"/>
        <pt x="1261" y="1090" on="0"/>
        <pt x="1261" y="1092" on="1"/>
        <pt x="1261" y="1095" on="0"/>
        <pt x="1259" y="1105" on="0"/>
        <pt x="1257" y="1116" on="0"/>
        <pt x="1255" y="1125" on="0"/>
        <pt x="1254" y="1126" on="1"/>
        <pt x="1254" y="1128" on="0"/>
        <pt x="1243" y="1139" on="0"/>
        <pt x="1231" y="1151" on="0"/>
        <pt x="1221" y="1160" on="0"/>
        <pt x="1220" y="1161" on="1"/>
        <pt x="1218" y="1163" on="0"/>
        <pt x="1206" y="1181" on="0"/>
        <pt x="1204" y="1183" on="1"/>
        <pt x="1201" y="1186" on="0"/>
        <pt x="1189" y="1199" on="0"/>
        <pt x="1176" y="1212" on="0"/>
        <pt x="1165" y="1222" on="0"/>
        <pt x="1163" y="1223" on="1"/>
        <pt x="1160" y="1226" on="0"/>
        <pt x="1132" y="1242" on="0"/>
        <pt x="1099" y="1262" on="0"/>
        <pt x="1067" y="1282" on="0"/>
        <pt x="1059" y="1287" on="1"/>
        <pt x="1048" y="1292" on="0"/>
        <pt x="1027" y="1296" on="0"/>
        <pt x="1014" y="1296" on="1"/>
        <pt x="997" y="1296" on="1"/>
        <pt x="969" y="1296" on="0"/>
        <pt x="929" y="1294" on="0"/>
        <pt x="900" y="1287" on="1"/>
        <pt x="889" y="1271" on="0"/>
        <pt x="868" y="1244" on="0"/>
        <pt x="850" y="1239" on="1"/>
        <pt x="848" y="1238" on="0"/>
        <pt x="836" y="1234" on="0"/>
        <pt x="822" y="1229" on="0"/>
        <pt x="810" y="1224" on="0"/>
        <pt x="808" y="1223" on="1"/>
        <pt x="803" y="1218" on="1"/>
        <pt x="801" y="1216" on="0"/>
        <pt x="788" y="1206" on="0"/>
        <pt x="774" y="1194" on="0"/>
        <pt x="762" y="1184" on="0"/>
        <pt x="761" y="1183" on="1"/>
        <pt x="757" y="1178" on="0"/>
        <pt x="737" y="1155" on="0"/>
        <pt x="715" y="1129" on="0"/>
        <pt x="694" y="1105" on="0"/>
        <pt x="690" y="1099" on="1"/>
        <pt x="690" y="1098" on="0"/>
        <pt x="686" y="1090" on="0"/>
        <pt x="682" y="1081" on="0"/>
        <pt x="677" y="1072" on="0"/>
        <pt x="677" y="1071" on="1"/>
        <pt x="676" y="1069" on="0"/>
        <pt x="669" y="1062" on="0"/>
        <pt x="660" y="1053" on="0"/>
        <pt x="652" y="1046" on="0"/>
        <pt x="649" y="1045" on="1"/>
        <pt x="649" y="1042" on="0"/>
        <pt x="635" y="1038" on="0"/>
        <pt x="635" y="1036" on="1"/>
        <pt x="633" y="1034" on="0"/>
        <pt x="623" y="1011" on="0"/>
        <pt x="621" y="1007" on="1"/>
        <pt x="621" y="1006" on="0"/>
        <pt x="614" y="1001" on="0"/>
        <pt x="607" y="994" on="0"/>
        <pt x="600" y="989" on="0"/>
        <pt x="600" y="988" on="1"/>
        <pt x="599" y="986" on="0"/>
        <pt x="594" y="969" on="0"/>
        <pt x="592" y="967" on="1"/>
        <pt x="583" y="944" on="0"/>
        <pt x="558" y="886" on="0"/>
        <pt x="545" y="863" on="1"/>
        <pt x="543" y="861" on="0"/>
        <pt x="531" y="843" on="0"/>
        <pt x="530" y="841" on="1"/>
        <pt x="530" y="839" on="0"/>
        <pt x="525" y="816" on="0"/>
        <pt x="523" y="813" on="1"/>
        <pt x="521" y="807" on="1"/>
        <pt x="520" y="805" on="0"/>
        <pt x="518" y="801" on="0"/>
        <pt x="517" y="799" on="1"/>
        <pt x="499" y="770" on="0"/>
        <pt x="467" y="714" on="0"/>
        <pt x="453" y="682" on="1"/>
        <pt x="445" y="659" on="0"/>
        <pt x="444" y="614" on="0"/>
        <pt x="441" y="592" on="1"/>
        <pt x="435" y="551" on="0"/>
        <pt x="414" y="469" on="0"/>
        <pt x="414" y="427" on="1"/>
        <pt x="414" y="405" on="1"/>
        <pt x="414" y="402" on="0"/>
        <pt x="419" y="391" on="0"/>
        <pt x="419" y="389" on="1"/>
        <pt x="419" y="355" on="1"/>
        <pt x="423" y="327" on="0"/>
        <pt x="431" y="276" on="0"/>
        <pt x="448" y="251" on="1"/>
        <pt x="448" y="249" on="0"/>
        <pt x="454" y="243" on="1"/>
        <pt x="460" y="237" on="1"/>
        <pt x="461" y="236" on="0"/>
        <pt x="467" y="224" on="0"/>
        <pt x="474" y="209" on="0"/>
        <pt x="481" y="196" on="0"/>
        <pt x="483" y="194" on="1"/>
        <pt x="484" y="192" on="0"/>
        <pt x="493" y="179" on="0"/>
        <pt x="504" y="164" on="0"/>
        <pt x="515" y="150" on="0"/>
        <pt x="517" y="147" on="1"/>
        <pt x="522" y="149" on="0"/>
        <pt x="529" y="149" on="0"/>
        <pt x="533" y="149" on="1"/>
        <pt x="545" y="149" on="0"/>
        <pt x="563" y="141" on="0"/>
        <pt x="583" y="132" on="0"/>
        <pt x="606" y="125" on="0"/>
        <pt x="621" y="125" on="1"/>
        <pt x="637" y="125" on="0"/>
        <pt x="675" y="126" on="0"/>
        <pt x="690" y="131" on="1"/>
        <pt x="691" y="132" on="0"/>
        <pt x="702" y="138" on="0"/>
        <pt x="714" y="146" on="0"/>
        <pt x="724" y="153" on="0"/>
        <pt x="725" y="154" on="1"/>
        <pt x="742" y="163" on="0"/>
        <pt x="773" y="173" on="0"/>
        <pt x="787" y="189" on="1"/>
        <pt x="789" y="190" on="0"/>
        <pt x="800" y="208" on="0"/>
        <pt x="803" y="209" on="1"/>
        <pt x="811" y="218" on="0"/>
        <pt x="836" y="232" on="0"/>
        <pt x="863" y="242" on="0"/>
        <pt x="889" y="252" on="0"/>
        <pt x="900" y="258" on="1"/>
        <pt x="906" y="262" on="0"/>
        <pt x="922" y="276" on="0"/>
        <pt x="937" y="291" on="0"/>
        <pt x="949" y="306" on="0"/>
        <pt x="952" y="311" on="1"/>
        <pt x="966" y="329" on="0"/>
        <pt x="1000" y="361" on="0"/>
        <pt x="1031" y="383" on="0"/>
        <pt x="1054" y="396" on="0"/>
        <pt x="1059" y="396" on="1"/>
        <pt x="1064" y="396" on="1"/>
        <pt x="1074" y="396" on="0"/>
        <pt x="1104" y="393" on="0"/>
        <pt x="1132" y="381" on="0"/>
        <pt x="1155" y="357" on="0"/>
        <pt x="1158" y="336" on="1"/>
        <pt x="1158" y="327" on="1"/>
        <pt x="1158" y="315" on="0"/>
        <pt x="1148" y="288" on="0"/>
        <pt x="1133" y="260" on="0"/>
        <pt x="1118" y="233" on="0"/>
        <pt x="1114" y="223" on="1"/>
        <pt x="1113" y="220" on="0"/>
        <pt x="1103" y="194" on="0"/>
        <pt x="1091" y="163" on="0"/>
        <pt x="1081" y="135" on="0"/>
        <pt x="1080" y="131" on="1"/>
        <pt x="1078" y="130" on="0"/>
        <pt x="1074" y="122" on="0"/>
        <pt x="1070" y="113" on="0"/>
        <pt x="1067" y="106" on="0"/>
        <pt x="1066" y="106" on="1"/>
        <pt x="1054" y="89" on="0"/>
        <pt x="1029" y="54" on="0"/>
        <pt x="1001" y="26" on="0"/>
        <pt x="968" y="7" on="0"/>
        <pt x="946" y="7" on="1"/>
        <pt x="928" y="7" on="0"/>
        <pt x="908" y="20" on="0"/>
        <pt x="890" y="37" on="0"/>
        <pt x="869" y="50" on="0"/>
        <pt x="850" y="50" on="1"/>
        <pt x="837" y="50" on="1"/>
        <pt x="826" y="50" on="0"/>
        <pt x="812" y="45" on="0"/>
        <pt x="796" y="35" on="1"/>
        <pt x="794" y="35" on="0"/>
        <pt x="782" y="21" on="0"/>
        <pt x="780" y="21" on="1"/>
        <pt x="780" y="20" on="0"/>
        <pt x="770" y="18" on="0"/>
        <pt x="759" y="17" on="0"/>
        <pt x="748" y="16" on="0"/>
        <pt x="746" y="16" on="1"/>
        <pt x="723" y="9" on="0"/>
        <pt x="678" y="-14" on="0"/>
        <pt x="652" y="-14" on="1"/>
        <pt x="635" y="-14" on="1"/>
        <pt x="627" y="-13" on="0"/>
        <pt x="586" y="-8" on="0"/>
        <pt x="539" y="-4" on="0"/>
        <pt x="497" y="-1" on="0"/>
      </contour>
    </TTGlyph>
    <TTGlyph name="Cacute" xMin="189" yMin="-14" xMax="1503" yMax="1868">
      <component glyphName="C" x="0" y="0" flags="0x204"/>
      <component glyphName="Acute" x="180" y="0" flags="0x4"/>
    </TTGlyph>
    <TTGlyph name="Caron" xMin="592" yMin="1519" xMax="1092" yMax="1848">
      <contour>
        <pt x="627" y="1697" on="1"/>
        <pt x="619" y="1708" on="0"/>
        <pt x="612" y="1732" on="0"/>
        <pt x="610" y="1745" on="1"/>
        <pt x="608" y="1757" on="0"/>
        <pt x="604" y="1780" on="0"/>
        <pt x="596" y="1790" on="1"/>
        <pt x="592" y="1832" on="1"/>
        <pt x="594" y="1839" on="0"/>
        <pt x="612" y="1843" on="0"/>
        <pt x="617" y="1848" on="1"/>
        <pt x="634" y="1839" on="1"/>
        <pt x="662" y="1799" on="1"/>
        <pt x="667" y="1791" on="0"/>
        <pt x="676" y="1782" on="0"/>
        <pt x="683" y="1775" on="1"/>
        <pt x="688" y="1769" on="0"/>
        <pt x="701" y="1764" on="0"/>
        <pt x="708" y="1757" on="1"/>
        <pt x="717" y="1748" on="0"/>
        <pt x="740" y="1729" on="0"/>
        <pt x="748" y="1718" on="1"/>
        <pt x="753" y="1706" on="0"/>
        <pt x="775" y="1691" on="0"/>
        <pt x="784" y="1683" on="1"/>
        <pt x="810" y="1695" on="0"/>
        <pt x="845" y="1707" on="0"/>
        <pt x="858" y="1721" on="1"/>
        <pt x="883" y="1730" on="0"/>
        <pt x="926" y="1755" on="0"/>
        <pt x="967" y="1781" on="0"/>
        <pt x="1009" y="1806" on="0"/>
        <pt x="1034" y="1816" on="1"/>
        <pt x="1048" y="1823" on="0"/>
        <pt x="1077" y="1835" on="0"/>
        <pt x="1092" y="1844" on="1"/>
        <pt x="1092" y="1828" on="0"/>
        <pt x="1088" y="1801" on="0"/>
        <pt x="1085" y="1790" on="1"/>
        <pt x="1058" y="1759" on="0"/>
        <pt x="998" y="1706" on="0"/>
        <pt x="966" y="1683" on="1"/>
        <pt x="955" y="1671" on="0"/>
        <pt x="930" y="1655" on="0"/>
        <pt x="905" y="1639" on="0"/>
        <pt x="882" y="1622" on="0"/>
        <pt x="873" y="1609" on="1"/>
        <pt x="845" y="1579" on="0"/>
        <pt x="782" y="1541" on="0"/>
        <pt x="738" y="1519" on="1"/>
        <pt x="729" y="1528" on="1"/>
        <pt x="704" y="1548" on="0"/>
        <pt x="666" y="1590" on="0"/>
        <pt x="660" y="1617" on="1"/>
        <pt x="658" y="1642" on="1"/>
        <pt x="651" y="1653" on="0"/>
        <pt x="629" y="1679" on="0"/>
      </contour>
    </TTGlyph>
    <TTGlyph name="Ccaron" xMin="189" yMin="-14" xMax="1451" yMax="1848">
      <component glyphName="C" x="0" y="0" flags="0x204"/>
      <component glyphName="Caron" x="359" y="0" flags="0x4"/>
    </TTGlyph>
    <TTGlyph name="Ccedilla" xMin="189" yMin="-538" xMax="1448" yMax="1424">
      <contour>
        <pt x="488" y="0" on="1"/>
        <pt x="475" y="8" on="0"/>
        <pt x="443" y="25" on="0"/>
        <pt x="426" y="28" on="1"/>
        <pt x="425" y="28" on="0"/>
        <pt x="416" y="31" on="0"/>
        <pt x="404" y="33" on="0"/>
        <pt x="393" y="35" on="0"/>
        <pt x="391" y="35" on="1"/>
        <pt x="391" y="36" on="0"/>
        <pt x="370" y="57" on="0"/>
        <pt x="363" y="62" on="1"/>
        <pt x="361" y="65" on="0"/>
        <pt x="349" y="79" on="0"/>
        <pt x="336" y="96" on="0"/>
        <pt x="324" y="110" on="0"/>
        <pt x="322" y="112" on="1"/>
        <pt x="313" y="124" on="0"/>
        <pt x="284" y="141" on="0"/>
        <pt x="275" y="154" on="1"/>
        <pt x="257" y="177" on="0"/>
        <pt x="243" y="221" on="0"/>
        <pt x="232" y="251" on="1"/>
        <pt x="215" y="298" on="0"/>
        <pt x="189" y="395" on="0"/>
        <pt x="190" y="445" on="1"/>
        <pt x="193" y="513" on="0"/>
        <pt x="220" y="644" on="0"/>
        <pt x="232" y="709" on="1"/>
        <pt x="233" y="710" on="0"/>
        <pt x="234" y="725" on="0"/>
        <pt x="236" y="742" on="0"/>
        <pt x="237" y="757" on="0"/>
        <pt x="237" y="759" on="1"/>
        <pt x="238" y="760" on="0"/>
        <pt x="244" y="772" on="0"/>
        <pt x="251" y="787" on="0"/>
        <pt x="258" y="802" on="0"/>
        <pt x="260" y="806" on="1"/>
        <pt x="261" y="810" on="0"/>
        <pt x="273" y="832" on="0"/>
        <pt x="275" y="834" on="1"/>
        <pt x="275" y="836" on="0"/>
        <pt x="278" y="851" on="0"/>
        <pt x="283" y="868" on="0"/>
        <pt x="287" y="883" on="0"/>
        <pt x="287" y="884" on="1"/>
        <pt x="288" y="886" on="0"/>
        <pt x="300" y="902" on="0"/>
        <pt x="315" y="921" on="0"/>
        <pt x="328" y="936" on="0"/>
        <pt x="329" y="938" on="1"/>
        <pt x="330" y="940" on="0"/>
        <pt x="336" y="955" on="0"/>
        <pt x="343" y="972" on="0"/>
        <pt x="349" y="986" on="0"/>
        <pt x="350" y="988" on="1"/>
        <pt x="382" y="1047" on="0"/>
        <pt x="477" y="1148" on="0"/>
        <pt x="523" y="1195" on="1"/>
        <pt x="533" y="1205" on="0"/>
        <pt x="549" y="1218" on="0"/>
        <pt x="566" y="1230" on="0"/>
        <pt x="582" y="1244" on="0"/>
        <pt x="592" y="1253" on="1"/>
        <pt x="594" y="1253" on="0"/>
        <pt x="605" y="1263" on="0"/>
        <pt x="616" y="1275" on="0"/>
        <pt x="626" y="1286" on="0"/>
        <pt x="626" y="1287" on="1"/>
        <pt x="629" y="1289" on="0"/>
        <pt x="647" y="1292" on="0"/>
        <pt x="649" y="1292" on="1"/>
        <pt x="651" y="1295" on="0"/>
        <pt x="668" y="1306" on="0"/>
        <pt x="670" y="1308" on="1"/>
        <pt x="672" y="1308" on="0"/>
        <pt x="688" y="1315" on="0"/>
        <pt x="690" y="1315" on="1"/>
        <pt x="702" y="1319" on="0"/>
        <pt x="722" y="1334" on="0"/>
        <pt x="742" y="1351" on="0"/>
        <pt x="761" y="1365" on="0"/>
        <pt x="773" y="1370" on="1"/>
        <pt x="775" y="1371" on="0"/>
        <pt x="790" y="1376" on="0"/>
        <pt x="806" y="1380" on="0"/>
        <pt x="820" y="1383" on="0"/>
        <pt x="822" y="1384" on="1"/>
        <pt x="824" y="1384" on="0"/>
        <pt x="835" y="1391" on="0"/>
        <pt x="837" y="1391" on="1"/>
        <pt x="840" y="1393" on="0"/>
        <pt x="861" y="1396" on="0"/>
        <pt x="865" y="1396" on="1"/>
        <pt x="867" y="1398" on="0"/>
        <pt x="877" y="1398" on="1"/>
        <pt x="888" y="1398" on="0"/>
        <pt x="910" y="1396" on="0"/>
        <pt x="912" y="1396" on="1"/>
        <pt x="923" y="1398" on="0"/>
        <pt x="939" y="1406" on="0"/>
        <pt x="954" y="1413" on="0"/>
        <pt x="970" y="1419" on="0"/>
        <pt x="981" y="1419" on="1"/>
        <pt x="1001" y="1421" on="0"/>
        <pt x="1039" y="1424" on="0"/>
        <pt x="1059" y="1424" on="1"/>
        <pt x="1084" y="1424" on="0"/>
        <pt x="1133" y="1421" on="0"/>
        <pt x="1158" y="1419" on="1"/>
        <pt x="1159" y="1417" on="0"/>
        <pt x="1175" y="1407" on="0"/>
        <pt x="1177" y="1405" on="1"/>
        <pt x="1180" y="1403" on="0"/>
        <pt x="1205" y="1389" on="0"/>
        <pt x="1233" y="1373" on="0"/>
        <pt x="1258" y="1358" on="0"/>
        <pt x="1261" y="1356" on="1"/>
        <pt x="1262" y="1355" on="0"/>
        <pt x="1277" y="1345" on="0"/>
        <pt x="1295" y="1332" on="0"/>
        <pt x="1312" y="1319" on="0"/>
        <pt x="1317" y="1315" on="1"/>
        <pt x="1318" y="1313" on="0"/>
        <pt x="1320" y="1311" on="1"/>
        <pt x="1321" y="1308" on="0"/>
        <pt x="1324" y="1308" on="1"/>
        <pt x="1325" y="1305" on="0"/>
        <pt x="1340" y="1286" on="0"/>
        <pt x="1358" y="1264" on="0"/>
        <pt x="1376" y="1246" on="0"/>
        <pt x="1379" y="1246" on="1"/>
        <pt x="1391" y="1243" on="0"/>
        <pt x="1416" y="1233" on="0"/>
        <pt x="1436" y="1215" on="0"/>
        <pt x="1448" y="1187" on="0"/>
        <pt x="1448" y="1166" on="1"/>
        <pt x="1448" y="1149" on="0"/>
        <pt x="1427" y="1119" on="0"/>
        <pt x="1420" y="1105" on="1"/>
        <pt x="1409" y="1083" on="0"/>
        <pt x="1386" y="1032" on="0"/>
        <pt x="1379" y="1007" on="1"/>
        <pt x="1378" y="1006" on="0"/>
        <pt x="1376" y="997" on="0"/>
        <pt x="1374" y="985" on="0"/>
        <pt x="1371" y="974" on="0"/>
        <pt x="1370" y="972" on="1"/>
        <pt x="1361" y="946" on="0"/>
        <pt x="1309" y="910" on="0"/>
        <pt x="1280" y="910" on="1"/>
        <pt x="1273" y="910" on="0"/>
        <pt x="1256" y="916" on="0"/>
        <pt x="1242" y="927" on="0"/>
        <pt x="1232" y="942" on="0"/>
        <pt x="1232" y="951" on="1"/>
        <pt x="1232" y="960" on="1"/>
        <pt x="1233" y="966" on="0"/>
        <pt x="1236" y="986" on="0"/>
        <pt x="1238" y="1006" on="0"/>
        <pt x="1239" y="1021" on="0"/>
        <pt x="1239" y="1022" on="1"/>
        <pt x="1240" y="1023" on="0"/>
        <pt x="1243" y="1035" on="0"/>
        <pt x="1248" y="1051" on="0"/>
        <pt x="1252" y="1066" on="0"/>
        <pt x="1254" y="1071" on="1"/>
        <pt x="1254" y="1073" on="0"/>
        <pt x="1261" y="1090" on="0"/>
        <pt x="1261" y="1092" on="1"/>
        <pt x="1261" y="1095" on="0"/>
        <pt x="1259" y="1105" on="0"/>
        <pt x="1257" y="1116" on="0"/>
        <pt x="1255" y="1125" on="0"/>
        <pt x="1254" y="1126" on="1"/>
        <pt x="1254" y="1128" on="0"/>
        <pt x="1243" y="1139" on="0"/>
        <pt x="1231" y="1151" on="0"/>
        <pt x="1221" y="1160" on="0"/>
        <pt x="1220" y="1161" on="1"/>
        <pt x="1218" y="1163" on="0"/>
        <pt x="1206" y="1181" on="0"/>
        <pt x="1204" y="1183" on="1"/>
        <pt x="1201" y="1186" on="0"/>
        <pt x="1189" y="1199" on="0"/>
        <pt x="1176" y="1212" on="0"/>
        <pt x="1165" y="1222" on="0"/>
        <pt x="1163" y="1223" on="1"/>
        <pt x="1160" y="1226" on="0"/>
        <pt x="1132" y="1242" on="0"/>
        <pt x="1099" y="1262" on="0"/>
        <pt x="1067" y="1282" on="0"/>
        <pt x="1059" y="1287" on="1"/>
        <pt x="1048" y="1292" on="0"/>
        <pt x="1027" y="1296" on="0"/>
        <pt x="1014" y="1296" on="1"/>
        <pt x="997" y="1296" on="1"/>
        <pt x="969" y="1296" on="0"/>
        <pt x="929" y="1294" on="0"/>
        <pt x="900" y="1287" on="1"/>
        <pt x="889" y="1271" on="0"/>
        <pt x="868" y="1244" on="0"/>
        <pt x="850" y="1239" on="1"/>
        <pt x="848" y="1238" on="0"/>
        <pt x="836" y="1234" on="0"/>
        <pt x="822" y="1229" on="0"/>
        <pt x="810" y="1224" on="0"/>
        <pt x="808" y="1223" on="1"/>
        <pt x="803" y="1218" on="1"/>
        <pt x="801" y="1216" on="0"/>
        <pt x="788" y="1206" on="0"/>
        <pt x="774" y="1194" on="0"/>
        <pt x="762" y="1184" on="0"/>
        <pt x="761" y="1183" on="1"/>
        <pt x="757" y="1178" on="0"/>
        <pt x="737" y="1155" on="0"/>
        <pt x="715" y="1129" on="0"/>
        <pt x="694" y="1105" on="0"/>
        <pt x="690" y="1099" on="1"/>
        <pt x="690" y="1098" on="0"/>
        <pt x="686" y="1090" on="0"/>
        <pt x="682" y="1081" on="0"/>
        <pt x="677" y="1072" on="0"/>
        <pt x="677" y="1071" on="1"/>
        <pt x="676" y="1069" on="0"/>
        <pt x="669" y="1062" on="0"/>
        <pt x="660" y="1053" on="0"/>
        <pt x="652" y="1046" on="0"/>
        <pt x="649" y="1045" on="1"/>
        <pt x="649" y="1042" on="0"/>
        <pt x="635" y="1038" on="0"/>
        <pt x="635" y="1036" on="1"/>
        <pt x="633" y="1034" on="0"/>
        <pt x="623" y="1011" on="0"/>
        <pt x="621" y="1007" on="1"/>
        <pt x="621" y="1006" on="0"/>
        <pt x="614" y="1001" on="0"/>
        <pt x="607" y="994" on="0"/>
        <pt x="600" y="989" on="0"/>
        <pt x="600" y="988" on="1"/>
        <pt x="599" y="986" on="0"/>
        <pt x="594" y="969" on="0"/>
        <pt x="592" y="967" on="1"/>
        <pt x="583" y="944" on="0"/>
        <pt x="558" y="886" on="0"/>
        <pt x="545" y="863" on="1"/>
        <pt x="543" y="861" on="0"/>
        <pt x="531" y="843" on="0"/>
        <pt x="530" y="841" on="1"/>
        <pt x="530" y="839" on="0"/>
        <pt x="525" y="816" on="0"/>
        <pt x="523" y="813" on="1"/>
        <pt x="521" y="807" on="1"/>
        <pt x="520" y="805" on="0"/>
        <pt x="518" y="801" on="0"/>
        <pt x="517" y="799" on="1"/>
        <pt x="499" y="770" on="0"/>
        <pt x="467" y="714" on="0"/>
        <pt x="453" y="682" on="1"/>
        <pt x="445" y="659" on="0"/>
        <pt x="444" y="614" on="0"/>
        <pt x="441" y="592" on="1"/>
        <pt x="435" y="551" on="0"/>
        <pt x="414" y="469" on="0"/>
        <pt x="414" y="427" on="1"/>
        <pt x="414" y="405" on="1"/>
        <pt x="414" y="402" on="0"/>
        <pt x="419" y="391" on="0"/>
        <pt x="419" y="389" on="1"/>
        <pt x="419" y="355" on="1"/>
        <pt x="423" y="327" on="0"/>
        <pt x="431" y="276" on="0"/>
        <pt x="448" y="251" on="1"/>
        <pt x="448" y="249" on="0"/>
        <pt x="454" y="243" on="1"/>
        <pt x="460" y="237" on="1"/>
        <pt x="461" y="236" on="0"/>
        <pt x="467" y="224" on="0"/>
        <pt x="474" y="209" on="0"/>
        <pt x="481" y="196" on="0"/>
        <pt x="483" y="194" on="1"/>
        <pt x="484" y="192" on="0"/>
        <pt x="493" y="179" on="0"/>
        <pt x="504" y="164" on="0"/>
        <pt x="515" y="150" on="0"/>
        <pt x="517" y="147" on="1"/>
        <pt x="522" y="149" on="0"/>
        <pt x="529" y="149" on="0"/>
        <pt x="533" y="149" on="1"/>
        <pt x="545" y="149" on="0"/>
        <pt x="563" y="141" on="0"/>
        <pt x="583" y="132" on="0"/>
        <pt x="606" y="125" on="0"/>
        <pt x="621" y="125" on="1"/>
        <pt x="637" y="125" on="0"/>
        <pt x="675" y="126" on="0"/>
        <pt x="690" y="131" on="1"/>
        <pt x="691" y="132" on="0"/>
        <pt x="702" y="138" on="0"/>
        <pt x="714" y="146" on="0"/>
        <pt x="724" y="153" on="0"/>
        <pt x="725" y="154" on="1"/>
        <pt x="742" y="163" on="0"/>
        <pt x="773" y="173" on="0"/>
        <pt x="787" y="189" on="1"/>
        <pt x="789" y="190" on="0"/>
        <pt x="800" y="208" on="0"/>
        <pt x="803" y="209" on="1"/>
        <pt x="811" y="218" on="0"/>
        <pt x="836" y="232" on="0"/>
        <pt x="863" y="242" on="0"/>
        <pt x="889" y="252" on="0"/>
        <pt x="900" y="258" on="1"/>
        <pt x="906" y="262" on="0"/>
        <pt x="922" y="276" on="0"/>
        <pt x="937" y="291" on="0"/>
        <pt x="949" y="306" on="0"/>
        <pt x="952" y="311" on="1"/>
        <pt x="966" y="329" on="0"/>
        <pt x="1000" y="361" on="0"/>
        <pt x="1031" y="383" on="0"/>
        <pt x="1054" y="396" on="0"/>
        <pt x="1059" y="396" on="1"/>
        <pt x="1064" y="396" on="1"/>
        <pt x="1074" y="396" on="0"/>
        <pt x="1104" y="393" on="0"/>
        <pt x="1132" y="381" on="0"/>
        <pt x="1155" y="357" on="0"/>
        <pt x="1158" y="336" on="1"/>
        <pt x="1158" y="327" on="1"/>
        <pt x="1158" y="315" on="0"/>
        <pt x="1148" y="288" on="0"/>
        <pt x="1133" y="260" on="0"/>
        <pt x="1118" y="233" on="0"/>
        <pt x="1114" y="223" on="1"/>
        <pt x="1113" y="220" on="0"/>
        <pt x="1103" y="194" on="0"/>
        <pt x="1091" y="163" on="0"/>
        <pt x="1081" y="135" on="0"/>
        <pt x="1080" y="131" on="1"/>
        <pt x="1078" y="130" on="0"/>
        <pt x="1074" y="122" on="0"/>
        <pt x="1070" y="113" on="0"/>
        <pt x="1067" y="106" on="0"/>
        <pt x="1066" y="106" on="1"/>
        <pt x="1054" y="89" on="0"/>
        <pt x="1029" y="54" on="0"/>
        <pt x="1001" y="26" on="0"/>
        <pt x="968" y="7" on="0"/>
        <pt x="946" y="7" on="1"/>
        <pt x="928" y="7" on="0"/>
        <pt x="908" y="20" on="0"/>
        <pt x="890" y="37" on="0"/>
        <pt x="869" y="50" on="0"/>
        <pt x="850" y="50" on="1"/>
        <pt x="837" y="50" on="1"/>
        <pt x="826" y="50" on="0"/>
        <pt x="812" y="45" on="0"/>
        <pt x="796" y="35" on="1"/>
        <pt x="794" y="35" on="0"/>
        <pt x="782" y="21" on="0"/>
        <pt x="780" y="21" on="1"/>
        <pt x="780" y="20" on="0"/>
        <pt x="770" y="18" on="0"/>
        <pt x="759" y="17" on="0"/>
        <pt x="748" y="16" on="0"/>
        <pt x="746" y="16" on="1"/>
        <pt x="723" y="9" on="0"/>
        <pt x="678" y="-14" on="0"/>
        <pt x="652" y="-14" on="1"/>
        <pt x="635" y="-14" on="1"/>
        <pt x="627" y="-12" on="0"/>
        <pt x="592" y="-8" on="0"/>
        <pt x="570" y="-6" on="1"/>
        <pt x="566" y="-17" on="0"/>
        <pt x="559" y="-43" on="0"/>
        <pt x="559" y="-45" on="1"/>
        <pt x="550" y="-70" on="0"/>
        <pt x="524" y="-114" on="0"/>
        <pt x="524" y="-140" on="1"/>
        <pt x="524" y="-160" on="0"/>
        <pt x="539" y="-198" on="0"/>
        <pt x="556" y="-236" on="0"/>
        <pt x="571" y="-275" on="0"/>
        <pt x="571" y="-294" on="1"/>
        <pt x="571" y="-296" on="1"/>
        <pt x="571" y="-298" on="0"/>
        <pt x="566" y="-314" on="0"/>
        <pt x="566" y="-317" on="1"/>
        <pt x="565" y="-320" on="0"/>
        <pt x="561" y="-342" on="0"/>
        <pt x="557" y="-368" on="0"/>
        <pt x="553" y="-390" on="0"/>
        <pt x="552" y="-393" on="1"/>
        <pt x="552" y="-395" on="0"/>
        <pt x="548" y="-405" on="0"/>
        <pt x="542" y="-417" on="0"/>
        <pt x="536" y="-429" on="0"/>
        <pt x="535" y="-433" on="1"/>
        <pt x="506" y="-481" on="0"/>
        <pt x="430" y="-538" on="0"/>
        <pt x="370" y="-538" on="1"/>
        <pt x="368" y="-538" on="0"/>
        <pt x="358" y="-537" on="0"/>
        <pt x="346" y="-536" on="0"/>
        <pt x="335" y="-535" on="0"/>
        <pt x="332" y="-535" on="1"/>
        <pt x="306" y="-527" on="0"/>
        <pt x="287" y="-496" on="0"/>
        <pt x="287" y="-469" on="1"/>
        <pt x="287" y="-430" on="0"/>
        <pt x="315" y="-403" on="0"/>
        <pt x="352" y="-396" on="0"/>
        <pt x="391" y="-391" on="0"/>
        <pt x="403" y="-374" on="1"/>
        <pt x="405" y="-369" on="0"/>
        <pt x="405" y="-348" on="0"/>
        <pt x="405" y="-344" on="1"/>
        <pt x="405" y="-331" on="0"/>
        <pt x="397" y="-298" on="0"/>
        <pt x="383" y="-267" on="0"/>
        <pt x="363" y="-239" on="0"/>
        <pt x="351" y="-230" on="1"/>
        <pt x="351" y="-128" on="1"/>
        <pt x="359" y="-112" on="1"/>
        <pt x="362" y="-106" on="0"/>
        <pt x="368" y="-94" on="0"/>
        <pt x="370" y="-90" on="1"/>
        <pt x="379" y="-73" on="0"/>
        <pt x="410" y="-50" on="0"/>
        <pt x="445" y="-32" on="0"/>
        <pt x="479" y="-14" on="0"/>
        <pt x="492" y="0" on="1"/>
      </contour>
    </TTGlyph>
    <TTGlyph name="Circumflex" xMin="613" yMin="1527" xMax="1113" yMax="1856">
      <contour>
        <pt x="1078" y="1678" on="1"/>
        <pt x="1086" y="1667" on="0"/>
        <pt x="1093" y="1643" on="0"/>
        <pt x="1095" y="1630" on="1"/>
        <pt x="1097" y="1618" on="0"/>
        <pt x="1101" y="1595" on="0"/>
        <pt x="1109" y="1585" on="1"/>
        <pt x="1113" y="1543" on="1"/>
        <pt x="1111" y="1536" on="0"/>
        <pt x="1093" y="1532" on="0"/>
        <pt x="1088" y="1527" on="1"/>
        <pt x="1071" y="1536" on="1"/>
        <pt x="1043" y="1576" on="1"/>
        <pt x="1038" y="1584" on="0"/>
        <pt x="1026" y="1585" on="0"/>
        <pt x="1019" y="1592" on="1"/>
        <pt x="1014" y="1598" on="0"/>
        <pt x="1007" y="1611" on="0"/>
        <pt x="1000" y="1618" on="1"/>
        <pt x="991" y="1627" on="0"/>
        <pt x="970" y="1632" on="0"/>
        <pt x="962" y="1643" on="1"/>
        <pt x="957" y="1655" on="0"/>
        <pt x="935" y="1670" on="0"/>
        <pt x="926" y="1678" on="1"/>
        <pt x="900" y="1666" on="0"/>
        <pt x="865" y="1654" on="0"/>
        <pt x="852" y="1640" on="1"/>
        <pt x="801" y="1622" on="0"/>
        <pt x="720" y="1578" on="0"/>
        <pt x="671" y="1559" on="1"/>
        <pt x="657" y="1552" on="0"/>
        <pt x="628" y="1540" on="0"/>
        <pt x="613" y="1531" on="1"/>
        <pt x="613" y="1547" on="0"/>
        <pt x="617" y="1574" on="0"/>
        <pt x="620" y="1585" on="1"/>
        <pt x="647" y="1616" on="0"/>
        <pt x="707" y="1669" on="0"/>
        <pt x="739" y="1692" on="1"/>
        <pt x="750" y="1704" on="0"/>
        <pt x="775" y="1720" on="0"/>
        <pt x="800" y="1736" on="0"/>
        <pt x="823" y="1753" on="0"/>
        <pt x="832" y="1766" on="1"/>
        <pt x="860" y="1796" on="0"/>
        <pt x="923" y="1834" on="0"/>
        <pt x="967" y="1856" on="1"/>
        <pt x="976" y="1847" on="1"/>
        <pt x="1001" y="1827" on="0"/>
        <pt x="1039" y="1785" on="0"/>
        <pt x="1045" y="1758" on="1"/>
        <pt x="1047" y="1733" on="1"/>
        <pt x="1054" y="1722" on="0"/>
        <pt x="1076" y="1696" on="0"/>
      </contour>
    </TTGlyph>
</ttFont>
